<svg width="301" height="63" viewBox="0 0 301 63" fill="none" xmlns="http://www.w3.org/2000/svg"> <g clip-path="url(#clip0_10042_253117)"> <path d="M106.63 28.8067L102.155 25.4628C101.742 25.1579 101.172 25.2268 100.847 25.63C97.4835 29.8394 94.4839 31.5507 90.5204 31.5507C84.2555 31.5507 79.5248 26.5545 79.5248 19.9355V19.5225C79.5248 12.7757 84.3538 7.49427 90.5204 7.49427C95.2018 7.49427 98.4867 10.5923 100.414 13.1887C100.719 13.6018 101.309 13.7001 101.722 13.3953L106.306 10.1005C106.719 9.80549 106.827 9.22522 106.532 8.80232C102.726 3.20621 96.9033 0 90.5597 0C79.8396 0 71.7454 8.39909 71.7454 19.5323V19.9945C71.7454 30.8622 79.8297 39.0646 90.5597 39.0646C97.0311 39.0646 103.119 35.7109 106.846 30.0951C107.122 29.6722 107.023 29.1116 106.62 28.8165L106.63 28.8067Z" fill="white"></path> <path d="M129.341 0C118.709 0 110.379 8.57612 110.379 19.5323V19.6897C110.379 30.7344 118.463 39.0646 129.193 39.0646C139.923 39.0646 148.057 30.5573 148.057 19.6897V19.5323C148.057 8.21222 140.189 0 129.35 0H129.341ZM140.238 19.5323V19.6897C140.238 26.1217 135.153 31.5605 129.144 31.5605C123.135 31.5605 118.148 26.3479 118.148 19.6897V19.5323C118.148 12.7855 123.046 7.5041 129.301 7.5041C135.556 7.5041 140.248 12.6773 140.248 19.5323H140.238Z" fill="white"></path> <path d="M189.55 0.570312H184.662C184.367 0.570312 184.082 0.708002 183.905 0.944042L173.548 14.654C173.017 15.3818 172.555 16.0998 172.191 16.6899C171.817 16.0899 171.345 15.3818 170.844 14.6934L160.497 0.953877C160.32 0.717837 160.035 0.580147 159.74 0.580147H154.852C154.331 0.580147 153.908 1.00305 153.908 1.52431V37.5597C153.908 38.081 154.331 38.5039 154.852 38.5039H160.724C161.245 38.5039 161.668 38.081 161.668 37.5597V15.9424C161.668 15.6179 161.668 15.254 161.648 14.8802C161.756 15.0376 161.864 15.1851 161.973 15.3228L170.106 26.2888C170.283 26.5249 170.568 26.6724 170.863 26.6724H173.44C173.735 26.6724 174.021 26.5347 174.198 26.2888L182.429 15.2736C182.538 15.1261 182.656 14.9786 182.764 14.8212C182.744 15.2146 182.734 15.5982 182.734 15.9424V37.5597C182.734 38.081 183.157 38.5039 183.678 38.5039H189.55C190.071 38.5039 190.494 38.081 190.494 37.5597V1.51447C190.494 0.993217 190.071 0.570312 189.55 0.570312Z" fill="white"></path> <path d="M260.676 0.570312H231.338C230.817 0.570312 230.394 0.993217 230.394 1.51447V7.12042C230.394 7.64167 230.817 8.06458 231.338 8.06458H242.127V37.54C242.127 38.0613 242.55 38.4842 243.071 38.4842H248.943C249.464 38.4842 249.887 38.0613 249.887 37.54V8.07441H260.676C261.197 8.07441 261.62 7.65151 261.62 7.13025V1.51447C261.62 0.993217 261.197 0.570312 260.676 0.570312Z" fill="white"></path> <path d="M220.295 1.73084C218.524 0.934207 215.78 0.570312 213.981 0.570312H198.845C198.323 0.570312 197.9 0.993217 197.9 1.51447V37.5499C197.9 38.0711 198.323 38.494 198.845 38.494H204.716C205.237 38.494 205.66 38.0711 205.66 37.5499V33.0946V28.5312C205.808 26.8888 206.339 25.4627 208.67 25.3742H213.981C214.551 25.3742 217.462 25.3447 219.272 24.6857C224.14 22.7679 227.287 18.0963 227.287 12.7854V12.5788C227.287 7.82854 224.612 3.66834 220.295 1.73084ZM219.37 12.7854C219.37 14.772 218.2 16.7882 216.626 17.4865C216.184 17.693 215.003 17.8602 214.04 17.8602H205.67V8.06458H214.04C215.023 8.06458 216.508 8.32029 217.079 8.58583C218.475 9.26445 219.37 10.8282 219.37 12.569V12.7755V12.7854Z" fill="white"></path> <path d="M25.9152 30.9408H15.0279C15.0279 30.9408 12.6085 30.9408 11.0054 30.9408C8.47776 30.9408 7.92701 29.4754 7.76965 27.7739V1.51447C7.76965 0.993217 7.34674 0.570312 6.82549 0.570312H0.944159C0.422905 0.570312 0 0.993217 0 1.51447V37.5499C0 38.0711 0.422905 38.494 0.944159 38.494H25.9054C26.4266 38.494 26.8495 38.0711 26.8495 37.5499V31.8849C26.8495 31.3637 26.4266 30.9408 25.9054 30.9408H25.9152Z" fill="white"></path> <path d="M48.6838 0C38.0522 0 29.7219 8.57612 29.7219 19.5323V19.6897C29.7219 30.7344 37.8063 39.0646 48.5363 39.0646C48.9198 39.0646 49.3034 39.0548 49.687 39.0253C49.746 39.0253 49.8148 39.0154 49.8738 39.0154C50.2279 38.9859 50.5819 38.9564 50.936 38.9171C50.936 38.9171 50.9458 38.9171 50.9557 38.9171C53.7587 38.563 56.3453 37.609 58.6073 36.1633C58.7745 36.0551 58.9417 35.9469 59.0991 35.8387C59.1286 35.819 59.1581 35.7994 59.1777 35.7797C61.3611 34.3143 63.2888 32.3965 64.823 30.0951C64.9705 29.8689 65.0099 29.6033 64.9509 29.3575C64.9017 29.1411 64.7837 28.9444 64.5968 28.8067L60.1219 25.4628C59.7088 25.1579 59.1286 25.2366 58.8138 25.63C58.6073 25.8857 58.4106 26.1316 58.2041 26.3676C58.1352 26.4463 58.0664 26.5151 58.0074 26.5938C57.8697 26.7512 57.7418 26.8987 57.6041 27.0462C57.5255 27.1347 57.4468 27.2134 57.3681 27.3019C57.2501 27.4298 57.1321 27.5577 57.014 27.6757C56.9255 27.7642 56.8468 27.8429 56.7583 27.9314C56.6501 28.0396 56.5321 28.1478 56.4239 28.2559C56.3354 28.3346 56.2469 28.4133 56.1584 28.492C56.0502 28.5903 55.942 28.6887 55.8338 28.7772C55.7453 28.8559 55.6568 28.9247 55.5585 29.0034C55.4503 29.0919 55.3421 29.1804 55.2339 29.2591C55.1454 29.328 55.047 29.3968 54.9585 29.4656C54.8503 29.5443 54.7421 29.623 54.634 29.6918C54.5356 29.7509 54.4471 29.8197 54.3487 29.8787C54.2406 29.9476 54.1324 30.0164 54.0242 30.0754C53.9258 30.1344 53.8373 30.1836 53.739 30.2426C53.6308 30.3016 53.5226 30.3606 53.4144 30.4098C53.3161 30.459 53.2177 30.5082 53.1194 30.5573C53.0112 30.6065 52.903 30.6557 52.7948 30.7049C52.6965 30.7442 52.5981 30.7934 52.4998 30.8327C52.3916 30.872 52.2736 30.9114 52.1654 30.9507C52.067 30.9901 51.9687 31.0196 51.8703 31.0589C51.7621 31.0983 51.6441 31.1278 51.5261 31.1573C51.4278 31.1868 51.3294 31.2163 51.2212 31.2359C51.1032 31.2654 50.9852 31.2851 50.8672 31.3146C50.7688 31.3343 50.6705 31.3638 50.5721 31.3736C50.4443 31.3933 50.3164 31.413 50.1787 31.4326C50.0804 31.4425 49.9918 31.4621 49.8935 31.472C49.6771 31.5015 49.4509 31.5212 49.2346 31.531C49.2346 31.531 49.2346 31.531 49.2247 31.531C48.9788 31.5408 48.733 31.5507 48.4773 31.5507C43.2745 31.5507 39.016 27.833 37.8161 22.6697H65.7278C66.554 22.6697 67.2621 22.0402 67.3309 21.2141C67.3703 20.7125 67.3899 20.1912 67.3899 19.6798V19.5225C67.3899 8.21222 59.522 0 48.6838 0ZM38.1899 15.2442C39.7635 10.6808 43.786 7.5041 48.6346 7.5041C53.4833 7.5041 57.4074 10.6316 58.9122 15.2442H38.1899Z" fill="white"></path> <path d="M282.294 0C271.662 0 263.332 8.57612 263.332 19.5323V19.6897C263.332 30.7344 271.416 39.0646 282.146 39.0646C282.53 39.0646 282.913 39.0548 283.297 39.0253C283.356 39.0253 283.425 39.0154 283.484 39.0154C283.838 38.9859 284.192 38.9564 284.546 38.9171C284.546 38.9171 284.556 38.9171 284.566 38.9171C287.369 38.563 289.955 37.609 292.217 36.1633C292.384 36.0551 292.552 35.9469 292.709 35.8387C292.738 35.819 292.768 35.7994 292.788 35.7797C294.971 34.3143 296.899 32.3965 298.433 30.0951C298.58 29.8689 298.62 29.6033 298.561 29.3575C298.512 29.1411 298.394 28.9444 298.207 28.8067L293.732 25.4628C293.319 25.1579 292.738 25.2366 292.424 25.63C292.217 25.8857 292.02 26.1316 291.814 26.3676C291.745 26.4463 291.676 26.5151 291.617 26.5938C291.48 26.7512 291.352 26.8987 291.214 27.0462C291.135 27.1347 291.057 27.2134 290.978 27.3019C290.86 27.4298 290.742 27.5577 290.624 27.6757C290.535 27.7642 290.457 27.8429 290.368 27.9314C290.26 28.0396 290.142 28.1478 290.034 28.2559C289.945 28.3346 289.857 28.4133 289.768 28.492C289.66 28.5903 289.552 28.6887 289.444 28.7772C289.355 28.8559 289.267 28.9247 289.168 29.0034C289.06 29.0919 288.952 29.1804 288.844 29.2591C288.755 29.328 288.657 29.3968 288.568 29.4656C288.46 29.5443 288.352 29.623 288.244 29.6918C288.145 29.7509 288.057 29.8197 287.959 29.8787C287.85 29.9476 287.742 30.0164 287.634 30.0754C287.536 30.1344 287.447 30.1836 287.349 30.2426C287.241 30.3016 287.132 30.3606 287.024 30.4098C286.926 30.459 286.828 30.5082 286.729 30.5573C286.621 30.6065 286.513 30.6557 286.405 30.7049C286.306 30.7442 286.208 30.7934 286.11 30.8327C286.001 30.872 285.883 30.9114 285.775 30.9507C285.677 30.9901 285.579 31.0196 285.48 31.0589C285.372 31.0983 285.254 31.1278 285.136 31.1573C285.038 31.1868 284.939 31.2163 284.831 31.2359C284.713 31.2654 284.595 31.2851 284.477 31.3146C284.379 31.3343 284.28 31.3638 284.182 31.3736C284.054 31.3933 283.926 31.413 283.789 31.4326C283.69 31.4425 283.602 31.4621 283.503 31.472C283.287 31.5015 283.061 31.5212 282.844 31.531C282.844 31.531 282.844 31.531 282.835 31.531C282.589 31.5408 282.343 31.5507 282.087 31.5507C276.884 31.5507 272.626 27.833 271.426 22.6697H299.338C300.164 22.6697 300.872 22.0402 300.941 21.2141C300.98 20.7125 301 20.1912 301 19.6798V19.5225C301 8.21222 293.142 0 282.294 0ZM271.8 15.2442C273.373 10.6808 277.396 7.5041 282.244 7.5041C287.093 7.5041 291.017 10.6316 292.522 15.2442H271.8Z" fill="white"></path> <path d="M96.4025 44.3558C96.8943 44.3362 97.4942 44.0903 97.5336 43.0773C97.5336 42.4183 97.1205 42.0249 96.3829 41.9856C95.6354 42.0151 95.2617 42.6249 95.2322 43.1953C95.2322 43.9133 95.6747 44.3558 96.4025 44.3558Z" fill="white"></path> <path d="M103.826 49.4306C104.466 48.3782 104.77 47.5324 104.77 46.8538C104.77 45.7031 104.072 44.9556 103 44.9556C101.663 44.9556 100.876 45.7523 100.876 47.08C100.876 47.9455 101.318 48.8208 102.174 49.6863C101.456 50.8173 101.023 51.5156 100.768 51.9581C100.718 52.0467 100.679 52.1352 100.62 52.2237C100.168 52.863 99.6661 53.5317 99.1547 54.1415C98.7121 54.6726 98.3187 54.9381 97.9745 54.9381C97.3647 54.9381 97.0303 53.7973 97.0303 51.7319C97.109 48.6733 97.1287 47.1193 97.1287 46.8636C97.109 46.6768 96.991 46.3719 96.4501 46.3129C96.1157 46.3129 95.8993 46.3522 95.7419 46.4505C95.7026 46.4702 95.6731 46.4997 95.6534 46.5391C95.4272 46.9325 95.201 47.4734 94.906 48.152C94.6306 48.8109 94.3159 49.5486 93.9126 50.3944C93.4897 51.2402 93.1849 51.85 92.9488 52.2434C92.9488 52.2434 92.9488 52.2434 92.9488 52.2532C92.9488 52.263 92.9291 52.2729 92.9193 52.2827C91.6899 54.0628 90.913 54.8201 90.3032 54.8201C89.5951 54.8201 89.0837 53.9743 88.2772 51.4861C87.6773 49.4797 87.4707 49.3912 87.3429 49.342C87.3134 49.3322 87.2839 49.3224 87.2543 49.3224C86.7134 49.3224 86.4282 49.5682 86.3987 50.0993C86.3987 50.178 86.4282 50.2567 86.4577 50.3354C86.5069 50.4534 86.5757 50.6304 86.5954 50.896C85.6512 53.4334 84.4317 54.7218 82.986 54.7218C81.6976 54.7218 80.8911 53.7284 80.8911 52.1253C80.8911 51.4172 81.1271 50.6796 81.5894 49.9125C82.0516 49.165 82.6516 48.5847 83.3794 48.2012C84.0973 47.8176 84.9235 47.6209 85.8283 47.6209C86.3692 47.6209 86.8511 47.7979 87.3035 48.152C87.3429 48.1913 87.4019 48.2012 87.4609 48.2012C87.8936 48.2012 88.1198 47.916 88.1198 47.3455C88.1198 47.2865 88.1002 47.2275 88.0608 47.1882C87.5494 46.5882 86.7823 46.2932 85.7889 46.2932C83.5859 46.2932 81.8156 47.2373 80.5272 49.0962C79.9273 49.9911 79.6126 51.014 79.6027 52.1548C79.5929 52.1745 79.5732 52.1844 79.5634 52.204C78.6094 53.5908 77.9308 54.1809 77.2128 54.6529C76.5342 55.0955 75.8851 55.3217 75.2852 55.3217C73.7312 55.3217 72.4035 54.3185 71.8134 52.7253C71.538 51.8893 71.3905 50.8173 71.3905 49.5289C71.3905 47.7881 71.7839 45.6834 72.5707 43.2837C73.387 40.8544 73.8001 39.1923 73.8001 38.3465C73.8001 36.1238 72.7281 35.6616 71.8232 35.6616C70.584 35.6616 69.4235 36.468 68.3613 38.0613C67.5844 39.2317 66.6599 41.6412 65.5584 45.3785C65.7157 44.041 65.7846 42.91 65.7846 41.9363C65.7846 39.1136 64.7224 38.6907 64.0831 38.6907C62.9324 38.6907 61.8309 39.5562 60.7982 41.2478C60.0311 42.4772 59.3328 43.982 58.6739 45.8014C58.7034 45.1228 58.7132 44.4442 58.7132 43.7656C58.7132 40.343 58.3493 37.9433 57.6412 36.6647C56.7659 34.9928 55.1431 34.147 52.822 34.147C51.6222 34.147 50.4616 34.4519 49.3503 35.042C48.1996 35.6321 47.3243 36.468 46.7538 37.5302C46.1736 38.5826 45.8884 39.8218 45.8884 41.2085C45.8884 42.1723 46.0752 43.087 46.449 44.0016C45.3671 44.5524 43.3706 46.5292 43.3018 48.8798C43.3018 48.9191 43.3018 48.9585 43.3313 48.9978C43.4493 49.2339 43.7247 49.3617 44.1869 49.3617H44.1967C44.5016 49.3224 44.6885 49.106 44.6885 48.8306C44.8655 46.903 46.2326 45.6244 47.1669 45.1818C48.0717 46.5587 49.2913 47.3259 50.619 47.3554C51.6123 47.3554 52.3893 46.6177 52.3893 45.6736C52.3598 44.9163 51.9664 44.3164 51.2386 43.9328C50.5501 43.5787 49.8224 43.3919 49.0651 43.3919C48.6717 43.3919 48.2291 43.4312 47.757 43.5099C47.403 42.7329 47.2259 41.956 47.2259 41.1987C47.2259 38.8284 48.1504 37.1663 49.9896 36.232C50.9534 35.7402 51.8975 35.4944 52.8712 35.4944C54.73 35.4944 55.9397 36.114 56.4905 37.3433C57.0806 38.5235 57.3756 40.6872 57.3756 43.7656C57.3756 44.936 57.3166 46.7063 57.1789 49.6666C56.7954 51.8991 56.3725 53.8268 55.9102 55.4102C55.4775 56.8953 55.2611 57.8296 55.2611 58.1739C55.2611 58.2034 55.2611 58.223 55.2709 58.2525C55.3988 58.6459 55.625 58.8623 55.9299 58.9017C55.9397 58.9017 55.9496 58.9017 55.9594 58.9017C55.9594 58.9017 55.9791 58.9017 55.9889 58.9017C56.3036 58.8623 56.5397 58.7443 56.697 58.5181C56.7167 58.4886 56.7265 58.4689 56.7364 58.4394C57.4445 55.6758 58.0247 53.158 58.4673 50.9746C59.6967 46.5489 60.8179 43.5689 61.7915 42.1232C63.0209 40.2938 63.6995 40.0185 64.0044 40.0185C64.1716 40.0185 64.4962 40.5987 64.4962 41.9265C64.4962 43.2542 64.3093 45.1425 63.9356 47.434C63.5914 49.7453 63.0111 52.3614 62.2145 55.2037C62.2145 55.2332 62.2046 55.2529 62.2145 55.2824C62.2538 56.0888 62.7455 56.2265 63.2471 56.3052C63.5618 56.3052 63.8274 56.0692 64.7519 52.8236C65.4502 50.3747 65.8042 49.1748 65.9714 48.6536C67.2795 43.9328 68.2728 40.943 68.9219 39.7628C69.5809 38.5727 70.1415 37.8351 70.6234 37.5105C71.1053 37.1663 71.4987 36.9991 71.8232 36.9991C72.3543 36.9991 72.4429 37.8449 72.4429 38.3563C72.4429 39.1628 72.0396 40.7561 71.2331 43.087C70.4365 45.4867 70.0234 47.6504 70.0234 49.5191C69.9743 54.0727 71.7741 56.5511 75.2458 56.6789C76.1605 56.6789 77.0555 56.3839 77.9308 55.7741C78.2848 55.5381 79.052 54.9775 79.8289 53.994C80.301 55.3217 81.3534 56.0692 82.8581 56.0692C84.6874 56.0692 86.1725 54.9283 87.2839 52.6663C87.451 53.1777 87.6969 53.7678 88.0018 54.4267C88.6608 55.8528 89.5951 56.1479 90.2639 56.1479C91.5916 56.1479 93.0472 54.5054 93.9717 52.9613C93.9717 52.9613 93.9717 52.9515 93.9717 52.9416C93.9815 52.922 94.0011 52.9121 94.011 52.9023C94.6798 51.7516 95.26 50.6599 95.7813 49.3617C95.7321 50.5419 95.7026 51.4467 95.7026 52.086C95.7026 54.8496 96.4501 56.2462 97.9352 56.2462C98.6433 56.2462 99.3219 55.8823 99.9513 55.1644C100.561 54.4464 101.112 53.7186 101.643 52.9121C101.643 52.9121 101.653 52.9023 101.653 52.8925L103.089 50.4927C104.761 52.1844 105.616 53.5121 105.616 54.4464C105.626 55.066 105.38 55.6561 104.918 56.0888C104.397 56.5806 103.669 56.8265 102.882 56.7675C102.095 56.797 101.722 56.6396 101.446 56.5314C101.309 56.4724 101.191 56.4232 101.043 56.4134C100.905 56.4134 100.669 56.4626 100.6 56.8166C100.6 56.8363 100.6 56.8461 100.6 56.8658C100.6 57.3477 100.63 57.4559 101.033 57.6919C101.545 57.9673 102.194 58.105 102.941 58.105C102.941 58.105 103.02 58.105 103.059 58.105C104.161 58.105 105.243 57.6723 105.97 56.9248C106.629 56.256 106.954 55.3906 106.905 54.4562C106.905 53.0597 105.892 51.4172 103.826 49.4306ZM102.204 47.0603C102.204 46.4997 102.43 46.2637 102.951 46.2637C103.197 46.2637 103.443 46.3325 103.443 46.8538C103.443 47.2373 103.246 47.8176 102.882 48.5061C102.44 47.9651 102.213 47.4832 102.213 47.0505L102.204 47.0603ZM49.0257 44.7098C50.1666 44.7098 51.0616 45.1622 51.0616 45.7326C51.0616 45.8703 51.0616 46.0473 50.5993 46.067C50.0092 46.067 49.1437 45.6637 48.4553 44.7589C48.6717 44.7196 48.8585 44.7098 49.0257 44.7098Z" fill="white"></path> <path d="M112.049 46.4014C109.531 46.4014 107.476 48.7028 107.476 51.5156C107.417 52.863 107.928 54.1808 108.872 55.1348C109.708 55.9708 110.8 56.4331 111.98 56.4331C112.039 56.4331 112.088 56.4331 112.147 56.4331C113.308 56.4626 114.409 56.0102 115.236 55.1742C116.111 54.2792 116.563 53.0597 116.514 51.7418C116.514 48.6536 114.636 46.4112 112.049 46.4112V46.4014ZM112.187 55.0955C110.112 55.0955 108.823 53.7088 108.823 51.4762C108.823 49.2437 110.485 47.7291 112.029 47.7291C113.957 47.7783 115.118 49.2142 115.216 51.6828C115.255 52.6761 114.901 53.6203 114.252 54.2694C113.701 54.8201 112.974 55.1152 112.197 55.0857L112.187 55.0955Z" fill="white"></path> <path d="M133.548 51.9975C133.371 51.9975 133.213 52.086 133.105 52.2434C132.682 52.922 132.2 53.6006 131.669 54.2497C131.217 54.8398 130.774 55.1742 130.469 55.1742C130.056 55.1742 129.692 54.7218 129.358 53.7875C129.014 52.7843 128.738 51.5255 128.502 49.9125C128.247 48.1816 127.745 47.3357 126.958 47.3357C126.339 47.3357 125.798 47.68 125.394 48.3488C125.031 48.988 124.509 50.3256 123.88 52.2336C123.113 54.535 122.768 54.9579 122.67 55.0365C122.483 54.9677 121.814 54.1514 121.028 50.7583L120.398 47.9455C120.241 47.1489 119.907 46.9817 119.651 46.9817C119.375 46.9817 119.169 47.021 119.012 47.1194C118.962 47.1489 118.923 47.1981 118.903 47.2571C118.608 48.2012 118.038 49.6961 117.497 50.7288C117.241 51.2304 116.966 51.7418 116.661 52.2532C116.631 52.3123 116.582 52.4106 116.582 52.5385C116.582 52.5581 116.582 52.5778 116.582 52.5876C116.661 52.9417 116.917 53.1384 117.281 53.1384C117.458 53.1384 117.615 53.0499 117.703 52.9122C117.782 52.804 117.969 52.4696 118.51 51.4861C118.844 50.896 119.159 50.2862 119.434 49.6568C120.359 54.2301 121.401 56.3643 122.7 56.3643C123.25 56.3643 123.732 55.9709 124.165 55.1644C124.549 54.4268 125.04 53.1482 125.65 51.2599C126.348 49.1454 126.722 48.7323 126.83 48.6536C126.899 48.7618 127.057 49.1257 127.234 50.3846C127.43 51.6238 127.725 52.9122 128.129 54.3383C128.571 55.7545 129.348 56.4725 130.42 56.4725C131.168 56.4725 131.876 56.0496 132.574 55.1841C133.223 54.3481 133.764 53.581 134.177 52.8827C134.207 52.8237 134.256 52.7253 134.256 52.5975C134.256 52.5778 134.256 52.5581 134.256 52.5483C134.177 52.1942 133.921 51.9975 133.557 51.9975H133.548Z" fill="white"></path> <path d="M160.398 51.9976C160.221 51.9976 160.064 52.0861 159.965 52.2336C159.483 52.922 158.883 53.5908 158.195 54.2006C157.546 54.8005 156.867 55.0956 156.149 55.0956C153.858 55.0956 153.396 53.1286 153.396 49.9519C153.396 48.6635 153.464 46.8834 153.612 44.6606C154.635 44.7688 155.697 44.9557 156.779 45.2114C156.808 45.2114 156.838 45.2114 156.877 45.2114C157.162 45.1721 157.349 44.9852 157.398 44.6606C157.398 44.4541 157.339 44.2968 157.221 44.1787C157.212 44.1689 157.202 44.1591 157.192 44.1492C156.798 43.8837 155.5 43.5198 153.73 43.3428C153.838 41.9265 153.887 40.7463 153.887 39.9792C153.887 36.95 153.681 36.7336 153.317 36.7336C152.727 36.773 152.54 37.068 152.481 37.3041C152.481 37.3237 152.481 37.3532 152.481 37.3729C152.53 38.3072 152.56 39.1826 152.56 39.9792C152.56 40.9037 152.51 41.9855 152.422 43.2936H151.537C149.658 43.4313 149.275 43.6968 149.275 44.0706C149.304 44.464 149.452 44.7295 149.707 44.877C149.766 44.9065 149.825 44.9164 149.894 44.8967C150.661 44.7 151.36 44.6016 151.969 44.6016H152.314C152.156 46.5981 152.078 48.3783 152.078 49.8929C152.078 50.6502 152.107 51.3484 152.176 51.9976C152.147 51.9976 152.127 51.9877 152.097 51.9877C151.92 51.9877 151.763 52.0762 151.655 52.2336C150.612 54.0236 148.911 55.0857 147.111 55.0857C145.223 55.0857 143.924 54.417 142.823 52.8729C144.633 51.5255 145.862 50.483 146.462 49.7748C147.091 49.0372 147.406 48.3094 147.406 47.6308C147.406 46.0966 146.629 45.3491 145.036 45.3491C144.042 45.2999 142.961 45.8015 142.066 46.7162C141.102 47.6997 140.551 48.9979 140.63 50.0699C140.63 51.2501 140.964 52.391 141.633 53.4531C142.292 54.5055 143.098 55.2726 144.052 55.7349C144.987 56.1873 145.99 56.4233 147.032 56.4233C149.206 56.4233 151.055 55.371 152.412 53.3646C152.884 55.2038 153.956 56.3348 156.189 56.4233C157.251 56.4233 158.234 56.0102 159.1 55.1841C159.946 54.3875 160.595 53.6203 161.037 52.8729C161.067 52.8139 161.116 52.7155 161.116 52.5877C161.116 52.568 161.116 52.5483 161.116 52.5385C161.037 52.1844 160.782 51.9877 160.418 51.9877L160.398 51.9976ZM146.059 47.6407C146.059 48.575 144.898 49.8043 142.203 51.732C142.016 51.2206 141.928 50.6698 141.928 50.0601C141.928 48.9979 142.449 48.0144 143.384 47.2768C143.875 46.8834 144.367 46.6965 144.947 46.6965C145.97 46.7162 145.99 46.8834 146.049 47.6407H146.059Z" fill="white"></path> <path d="M171.029 49.4305C171.668 48.3781 171.973 47.5323 171.973 46.8537C171.973 45.703 171.275 44.9556 170.203 44.9556C168.865 44.9556 168.078 45.7522 168.078 47.0799C168.078 47.9454 168.521 48.8207 169.377 49.6862C168.659 50.8172 168.226 51.5155 167.97 51.9482C167.921 52.0466 167.882 52.1351 167.813 52.2138C167.813 52.2236 167.793 52.2433 167.793 52.2531C167.764 52.3121 167.715 52.4105 167.715 52.5383C167.715 52.558 167.715 52.5777 167.715 52.5875C167.793 52.9416 168.049 53.1383 168.413 53.1383C168.59 53.1383 168.747 53.0498 168.855 52.8924L170.291 50.4927C171.963 52.1843 172.819 53.512 172.819 54.4463C172.829 55.0659 172.583 55.656 172.121 56.0888C171.599 56.5805 170.872 56.8264 170.085 56.7674C169.308 56.7969 168.924 56.6395 168.649 56.5314C168.511 56.4723 168.393 56.4232 168.246 56.4133C168.108 56.4133 167.872 56.4625 167.803 56.8166C167.803 56.8362 167.803 56.8461 167.803 56.8657C167.803 57.3477 167.833 57.4558 168.246 57.6919C168.757 57.9673 169.406 58.105 170.154 58.105C170.154 58.105 170.232 58.105 170.272 58.105C171.373 58.105 172.455 57.6722 173.183 56.9248C173.842 56.256 174.166 55.3905 174.117 54.4562C174.117 53.0596 173.104 51.4172 171.039 49.4305H171.029ZM170.154 46.2636C170.4 46.2636 170.645 46.3325 170.645 46.8537C170.645 47.2373 170.449 47.8176 170.085 48.506C169.642 47.9651 169.416 47.4832 169.416 47.0504C169.416 46.4898 169.642 46.2538 170.164 46.2538L170.154 46.2636Z" fill="white"></path> <path d="M190.188 47.9062C189.844 47.9455 189.588 48.1029 189.48 48.3586C189.48 48.3684 189.47 48.3881 189.47 48.3979C188.566 52.2533 187.346 54.2104 185.851 54.2104C185.212 54.2104 184.494 53.2269 184.494 51.8107C184.494 50.3945 184.74 49.2143 185.251 48.2701C185.271 48.2308 185.281 48.1914 185.281 48.1521C185.281 47.9652 185.182 47.6505 184.543 47.6013C184.464 47.6013 184.376 47.6308 184.327 47.6997C183.55 48.7422 183.156 50.1289 183.156 51.8107C183.156 51.8894 183.156 51.9779 183.156 52.0566C183.078 52.0959 183.019 52.1549 182.969 52.2336C182.488 52.922 181.888 53.5908 181.199 54.2006C180.55 54.8005 179.862 55.0956 179.153 55.0956C176.862 55.0956 176.4 53.1286 176.4 49.9519C176.4 48.6635 176.469 46.8834 176.616 44.6606C177.639 44.7688 178.701 44.9459 179.783 45.2114C179.812 45.2114 179.842 45.2114 179.881 45.2114C180.166 45.1721 180.353 44.9852 180.403 44.6606C180.403 44.4541 180.344 44.2968 180.225 44.1787C180.216 44.1689 180.206 44.1591 180.196 44.1492C179.803 43.8837 178.504 43.5198 176.734 43.3428C176.842 41.9265 176.891 40.7463 176.891 39.9792C176.891 36.95 176.685 36.7336 176.321 36.7336C175.731 36.773 175.544 37.068 175.485 37.3041C175.485 37.3237 175.485 37.3532 175.485 37.3729C175.534 38.2974 175.564 39.1727 175.564 39.9792C175.564 40.9037 175.524 41.9855 175.426 43.2936H174.541C172.662 43.4313 172.279 43.6968 172.279 44.0706C172.308 44.464 172.456 44.7295 172.712 44.877C172.771 44.9065 172.83 44.9164 172.898 44.9065C173.666 44.7098 174.364 44.6115 174.974 44.6115H175.318C175.16 46.608 175.082 48.3881 175.082 49.9027C175.082 53.7187 175.78 56.2954 179.193 56.4331C180.255 56.4331 181.238 56.0201 182.104 55.1939C182.635 54.6923 183.087 54.2006 183.461 53.7187C183.864 54.8005 184.681 55.4005 185.9 55.5086C187.789 55.5086 189.225 53.8269 190.297 50.3748C190.424 50.8469 190.562 51.5451 190.69 52.568C190.877 54.0924 190.965 55.4005 190.965 56.5807C190.965 59.9049 189.638 61.5473 186.913 61.5965C185.684 61.5965 184.75 61.1933 184.277 60.4655C184.041 60.1114 183.874 59.7082 183.805 59.3148C183.687 58.6165 183.353 58.4788 183.107 58.4788C182.842 58.4788 182.606 58.5968 182.488 58.8034C182.458 58.8525 182.448 58.9017 182.458 58.9607C182.783 61.6358 184.228 62.9439 186.874 62.9439C189.146 62.9439 191.014 61.8227 191.752 60.0229C192.126 59.1181 192.303 58.0362 192.303 56.6987C192.303 55.0661 192.126 53.2073 191.762 51.1616C191.369 48.9094 190.896 47.9062 190.198 47.9062H190.188Z" fill="white"></path> <path d="M212.375 51.9975C212.198 51.9975 212.041 52.086 211.932 52.2434C210.89 54.0334 209.188 55.0956 207.389 55.0956C205.5 55.0956 204.202 54.4268 203.101 52.8827C204.91 51.5353 206.14 50.4928 206.74 49.7847C207.369 49.047 207.684 48.3192 207.684 47.6406C207.684 46.1064 206.907 45.3589 205.313 45.3589C204.32 45.3097 203.238 45.8113 202.343 46.726C201.379 47.7095 200.829 49.0077 200.907 50.0797C200.907 50.7977 201.035 51.5058 201.281 52.1942C201.281 52.2041 201.261 52.2139 201.252 52.2237C200.366 53.4728 199.649 54.2301 198.931 54.6727C198.242 55.1251 197.623 55.3414 197.032 55.3414C196.118 55.3414 195.213 54.9775 194.8 52.4008C195.754 51.1419 196.718 49.1847 197.672 46.5785C198.665 43.9132 199.167 41.9068 199.167 40.5988C199.167 38.9858 198.449 37.9827 197.288 37.9827C196.226 37.9827 195.39 38.7105 194.8 40.1464C194.239 41.4741 193.856 42.9887 193.61 44.7885C193.393 46.4604 193.275 48.2111 193.275 50.0109C193.275 50.6895 193.305 51.2894 193.364 51.8598L192.961 52.3319C192.872 52.4598 192.715 52.7155 192.715 52.9614C192.715 53.4629 193 53.64 193.266 53.64C193.374 53.64 193.482 53.6006 193.6 53.522C194.22 55.607 195.37 56.6692 197.032 56.6692C197.78 56.6692 198.616 56.3938 199.521 55.843C200.268 55.3906 201.143 54.5153 201.901 53.4728C202.56 54.5251 203.366 55.2923 204.31 55.7447C205.245 56.1971 206.248 56.4331 207.29 56.4331C209.631 56.4331 211.598 55.2136 212.975 52.8925C213.004 52.8335 213.054 52.7352 213.054 52.6073C213.054 52.5876 213.054 52.568 213.054 52.5581C212.975 52.2041 212.719 52.0074 212.355 52.0074L212.375 51.9975ZM206.356 47.6406C206.356 48.575 205.195 49.8043 202.501 51.732C202.314 51.2206 202.225 50.6698 202.225 50.06C202.225 48.9979 202.747 48.0144 203.681 47.2767C204.173 46.8833 204.664 46.6965 205.245 46.6965C206.267 46.7161 206.287 46.8833 206.346 47.6406H206.356ZM194.623 49.9814C194.623 48.6045 194.721 47.0407 194.928 45.3589C195.164 43.5788 195.498 42.1625 195.96 41.0217C196.383 39.93 196.885 39.3202 197.357 39.3202C197.78 39.3202 197.849 40.1562 197.849 40.648C197.849 41.6216 197.514 43.146 196.846 45.172C196.236 46.9915 195.498 48.7225 194.643 50.3354C194.643 50.2174 194.643 50.0994 194.643 49.9814H194.623Z" fill="white"></path> <path d="M243.867 51.9974C243.69 51.9974 243.533 52.0859 243.425 52.2433C242.382 54.0333 240.681 55.0954 238.881 55.0954C236.993 55.0954 235.694 54.4267 234.593 52.8826C236.403 51.5352 237.622 50.4927 238.232 49.7845C238.861 49.0469 239.176 48.3191 239.176 47.6405C239.176 46.1063 238.399 45.3588 236.806 45.3588C235.812 45.3096 234.731 45.8112 233.836 46.7259C232.872 47.7094 232.321 49.0076 232.4 50.0796C232.4 50.8074 232.528 51.5057 232.783 52.1941C232.773 52.2138 232.754 52.2236 232.744 52.2433C231.76 53.9841 231.092 54.8594 230.138 54.8594C229.125 54.8594 228.239 53.5022 227.856 51.3877C231.259 45.3195 232.518 42.2313 232.518 40.0086C232.518 38.6612 231.8 37.7563 230.708 37.7563C229.528 37.8154 228.485 38.6415 227.502 40.2938C226.587 41.887 226.125 44.3458 226.125 47.5815C226.125 48.8404 226.223 50.0206 226.42 51.1024C225.082 53.6792 224.02 54.8299 222.968 54.8299C221.916 54.8299 221.158 53.6989 221.158 52.2531C221.158 50.709 221.876 49.4895 223.253 48.7027C224.06 48.2208 224.522 48.0929 224.768 48.0733C224.896 48.0733 225.004 47.9552 225.004 47.8274C225.004 47.2274 224.63 46.8636 224.256 46.8636C223.863 46.8931 223.283 47.1193 222.398 47.611C221.591 48.0733 220.952 48.6929 220.499 49.4502C220.047 50.1976 219.831 51.0926 219.831 52.1941C219.831 55.1151 221.434 56.1576 222.929 56.1576C223.902 56.1576 224.768 55.7446 225.505 54.9282C226.056 54.3185 226.538 53.6595 226.941 52.9711C227.679 55.1348 228.702 56.1478 230.128 56.1478C231.721 56.1478 232.685 54.9282 233.482 53.512C234.131 54.525 234.927 55.2626 235.842 55.715C236.776 56.1675 237.779 56.4035 238.822 56.4035C241.163 56.4035 243.13 55.184 244.507 52.8629C244.536 52.8039 244.585 52.7055 244.585 52.5777C244.585 52.558 244.585 52.5383 244.585 52.5285C244.507 52.1744 244.251 51.9777 243.887 51.9777L243.867 51.9974ZM237.848 47.6405C237.848 48.5748 236.688 49.814 233.993 51.7319C233.806 51.2205 233.718 50.6697 233.718 50.0599C233.718 48.9977 234.239 48.0142 235.173 47.2766C235.665 46.8832 236.166 46.6964 236.737 46.6964C237.76 46.716 237.779 46.8832 237.838 47.6405H237.848ZM227.443 47.5913C227.443 46.8439 227.472 46.1554 227.541 45.467C227.669 43.5098 228.092 41.9264 228.8 40.7757C229.479 39.6742 230.157 39.0841 230.747 39.0841C231.131 39.0841 231.21 39.5955 231.21 40.0282C231.21 41.7494 229.98 44.8966 227.541 49.3813C227.512 48.8994 227.472 48.2798 227.433 47.5815L227.443 47.5913Z" fill="white"></path> <path d="M266.044 44.3558C266.536 44.3362 267.136 44.0903 267.165 43.0773C267.165 42.4085 266.752 42.0151 266.015 41.9856C265.267 42.0151 264.894 42.6249 264.864 43.1953C264.864 43.9133 265.307 44.3558 266.034 44.3558H266.044Z" fill="white"></path> <path d="M282.085 52.5385C282.006 52.1844 281.751 51.9877 281.387 51.9877C281.21 51.9877 281.052 52.0762 280.944 52.2336C279.902 54.0235 278.2 55.0857 276.4 55.0857C274.512 55.0857 273.214 54.4169 272.112 52.8728C273.922 51.5255 275.151 50.4829 275.751 49.7748C276.381 49.0372 276.695 48.3094 276.695 47.6308C276.695 46.0965 275.918 45.3491 274.325 45.3491C273.332 45.2999 272.25 45.8015 271.355 46.7161C270.391 47.6996 269.84 48.9979 269.919 50.0699C269.919 50.7878 270.047 51.4959 270.293 52.1844C270.283 52.1942 270.273 52.2139 270.253 52.2237C269.437 53.4728 268.404 54.9087 267.588 54.9087C266.978 54.9087 266.644 53.7777 266.644 51.732C266.723 48.6733 266.742 47.1194 266.742 46.8637C266.723 46.6768 266.605 46.3719 266.064 46.3129C265.985 46.3129 265.818 46.3129 265.09 46.8342C264.146 47.4636 263.113 47.3456 262.051 46.7358C262.336 45.949 262.474 45.2409 262.474 44.6311C262.474 43.2641 261.589 42.4478 260.723 42.4478C259.858 42.4478 259.209 43.3722 259.209 44.7C259.209 45.6245 259.602 46.4506 260.369 47.1686C260.212 47.6701 259.72 49.0765 258.747 51.7418C258.068 53.3548 257.537 54.476 257.124 55.1251C256.622 54.2891 256.209 53.3941 255.875 52.4008C255.54 51.3976 255.275 50.4338 255.068 49.4503L254.695 47.6898C254.655 47.3849 254.37 47.2079 253.859 47.1686C253.839 47.1686 253.819 47.1686 253.79 47.1686C253.455 47.2374 253.406 47.5718 253.386 47.6996C253.367 47.9554 253.209 48.6241 252.373 50.2174C252.049 50.8272 251.744 51.3681 251.459 51.8598L251.252 52.2336C251.223 52.2926 251.174 52.3909 251.174 52.5188C251.174 52.5385 251.174 52.5581 251.174 52.568C251.252 52.922 251.508 53.1187 251.872 53.1187C252.049 53.1187 252.206 53.0302 252.314 52.8728L253.209 51.3484C253.504 50.8173 253.741 50.3354 253.937 49.9027C254.39 52.1057 254.98 53.8268 255.806 55.4103C256.278 56.3348 256.711 56.7773 257.173 56.8167C257.842 56.8167 258.933 54.83 260.428 50.9157L261.55 48.0045C262.218 48.3488 262.976 48.5356 263.861 48.5553C264.461 48.5553 264.982 48.4274 265.424 48.1717C265.356 50.2371 265.346 51.4861 265.346 52.0664C265.346 54.83 266.093 56.2266 267.578 56.2266C268.601 56.2266 269.654 55.3709 270.942 53.4629C271.601 54.5055 272.407 55.2628 273.342 55.725C274.276 56.1774 275.279 56.4134 276.322 56.4134C278.662 56.4134 280.629 55.1939 282.006 52.8728C282.036 52.8138 282.085 52.7155 282.085 52.5876C282.085 52.568 282.085 52.5483 282.085 52.5385ZM275.368 47.6406C275.368 48.575 274.207 49.8043 271.512 51.732C271.325 51.2206 271.237 50.6698 271.237 50.06C271.237 48.9979 271.758 48.0144 272.693 47.2767C273.184 46.8833 273.676 46.6965 274.256 46.6965C275.279 46.7161 275.299 46.8833 275.358 47.6406H275.368ZM261.156 44.6705C261.156 44.9262 261.087 45.2901 260.95 45.7818C260.694 45.4179 260.556 45.0639 260.556 44.7295C260.556 44.041 260.714 43.8247 260.743 43.805C260.979 43.805 261.156 44.1689 261.156 44.6803V44.6705Z" fill="white"></path> </g> <defs> <clipPath id="clip0_10042_253117"> <rect width="301" height="62.9341" fill="white"></rect> </clipPath> </defs> </svg>