<svg viewBox="0 0 42 35" fill="none" xmlns="http://www.w3.org/2000/svg"> <g clip-path="url(#clip0_3758_4285)"> <path d="M4.84044 3.48063C5.38667 2.66128 6.02394 1.56882 6.75225 1.11363C7.1164 0.931548 7.38951 1.2957 7.29848 1.56882C7.1164 1.93297 6.57017 2.57024 6.75225 2.66128C7.02536 2.84336 7.38951 2.57024 7.66263 2.38816L8.66405 1.38674C8.84613 1.20467 9.11924 0.749471 9.39236 1.02259C9.4834 1.11363 9.39236 1.47778 9.57444 1.56882C9.66548 1.56882 9.84755 1.56882 9.93859 1.47778C10.3027 1.20467 11.0311 0.385318 11.8504 0.567394C12.2146 0.658433 12.2146 1.02259 12.1235 1.2957C12.0325 1.47778 9.11924 5.3014 9.02821 5.84763C9.02821 5.93866 9.11925 6.0297 9.21028 6.0297C10.0296 5.93866 10.94 5.39243 11.4862 5.48347C12.0325 5.57451 10.7579 7.2132 10.3938 8.03255C10.2117 8.30566 11.0311 8.57878 11.2131 8.76085C11.4862 8.94293 11.3952 9.21605 11.3042 9.39812C11.2131 9.76228 10.849 10.3996 10.5759 10.7637C9.75651 11.9472 8.48197 13.6769 8.39094 13.859C8.2999 14.0411 8.11782 14.4053 7.75367 14.2232C7.57159 14.1321 7.48055 13.768 7.1164 13.9501C6.75225 14.1321 6.29705 15.1336 5.9329 15.0425C5.65978 15.0425 5.75082 14.6784 5.84186 14.4053C6.02394 14.0411 6.66121 13.4038 6.38809 13.2218C6.20602 13.1307 6.02394 13.2218 5.9329 13.3128C4.47629 14.9515 3.83902 17.3185 2.29136 18.8661C2.01825 19.1393 1.56306 19.1393 1.47202 18.6841C1.38098 18.3199 1.56306 18.0468 1.74513 17.7737C2.10929 17.1364 3.29279 15.4067 3.20175 15.0425C3.11071 14.8604 2.92863 14.8604 2.74656 14.9515C2.3824 15.1336 2.01825 15.6798 1.83617 15.9529C1.56306 16.226 1.1989 16.135 1.01682 15.9529C0.834751 15.6798 1.01682 15.2246 1.1989 14.7694C1.56306 13.6769 2.10929 12.5845 1.65409 11.492C1.56306 11.3099 1.38098 11.1279 1.28994 10.8548C1.10786 10.2175 1.38098 9.30708 1.65409 8.66982C1.74513 8.21462 4.20317 4.57309 4.84044 3.48063Z" fill="white"></path> <path d="M6.2976 15.6798C6.57071 15.3157 6.93486 14.5873 7.48109 14.8605C7.66317 14.9515 6.93486 15.7708 7.11694 15.8619H7.39006C7.66317 15.6798 7.84525 15.5888 8.2094 15.6798C8.30044 15.6798 8.39148 15.8619 8.30044 15.9529C7.39006 17.6827 6.47967 19.3213 5.1141 20.96C5.02306 21.0511 4.74994 20.96 4.6589 20.778C4.47683 20.4138 4.74994 20.1407 4.84098 19.8676C4.93202 19.6855 5.75137 18.3199 6.02448 17.8647C6.11552 17.6827 5.8424 17.5916 5.75136 17.6827C5.66033 17.7737 5.38721 18.0468 5.20513 18.0468C5.1141 18.1378 4.84098 18.0468 4.84098 17.8647C5.02306 17.4095 6.02448 16.044 6.2976 15.6798Z" fill="white"></path> <path d="M19.4067 3.48063C19.953 2.66128 20.5902 1.56882 21.3185 1.11363C21.6827 0.931548 21.9558 1.2957 21.8648 1.56882C21.6827 1.93297 21.1365 2.57024 21.3185 2.66128C21.5916 2.84336 21.9558 2.57024 22.2289 2.38816L23.2303 1.38674C23.4124 1.20467 23.6855 0.749471 23.9586 1.02259C24.0497 1.11363 23.9586 1.47778 24.1407 1.56882C24.2318 1.56882 24.4138 1.56882 24.5049 1.47778C24.869 1.20467 25.5973 0.385318 26.4167 0.567394C26.7808 0.658433 26.7808 1.02259 26.6898 1.2957C26.5988 1.47778 23.6855 5.3014 23.5945 5.84763C23.5945 5.93866 23.6855 6.0297 23.7766 6.0297C24.5959 5.93866 25.5063 5.39243 26.0525 5.48347C26.5988 5.57451 25.3242 7.2132 24.9601 8.03255C24.778 8.30566 25.5973 8.57878 25.7794 8.76085C26.0525 8.94293 25.9615 9.21605 25.8704 9.39812C25.7794 9.76228 25.4153 10.3996 25.1421 10.7637C24.3228 11.9472 23.0483 13.6769 22.9572 13.859C22.8662 14.0411 22.6841 14.4053 22.3199 14.2232C22.1379 14.1321 22.0468 13.768 21.6827 13.9501C21.3185 14.1321 20.8633 15.1336 20.4992 15.0425C20.2261 15.0425 20.3171 14.6784 20.4081 14.4053C20.5902 14.0411 21.2275 13.4038 20.9544 13.2218C20.7723 13.1307 20.5902 13.2218 20.4992 13.3128C19.0426 14.9515 18.4053 17.3185 16.8576 18.8661C16.5845 19.1393 16.1293 19.1393 16.0383 18.6841C15.9473 18.3199 16.1293 18.0468 16.3114 17.7737C16.6756 17.1364 17.8591 15.4067 17.768 15.0425C17.677 14.8604 17.4949 14.8604 17.3128 14.9515C16.9487 15.1336 16.5845 15.6798 16.4025 15.9529C16.1293 16.226 15.7652 16.135 15.5831 15.9529C15.401 15.6798 15.5831 15.2246 15.7652 14.7694C16.1293 13.6769 16.6756 12.5845 16.2204 11.492C16.1293 11.3099 15.9473 11.1279 15.8562 10.8548C15.6741 10.2175 15.9473 9.30708 16.2204 8.66982C16.3114 8.21462 18.6784 4.57309 19.4067 3.48063Z" fill="white"></path> <path d="M20.8634 15.6798C21.1365 15.3157 21.5007 14.5873 22.0469 14.8605C22.229 14.9515 21.5007 15.7708 21.6827 15.8619H21.9559C22.229 15.6798 22.411 15.5888 22.7752 15.6798C22.8662 15.6798 22.9573 15.8619 22.8662 15.9529C21.9559 17.6827 21.0455 19.3213 19.6799 20.96C19.5889 21.0511 19.3157 20.96 19.2247 20.778C19.0426 20.4138 19.3157 20.1407 19.4068 19.8676C19.4978 19.6855 20.3172 18.3199 20.5903 17.8647C20.6813 17.6827 20.4082 17.5916 20.3172 17.6827C20.2261 17.7737 19.953 18.0468 19.7709 18.0468C19.6799 18.1378 19.4068 18.0468 19.4068 17.8647C19.4978 17.4095 20.5903 16.044 20.8634 15.6798Z" fill="white"></path> <path d="M33.8818 3.48063C34.4281 2.66128 35.0653 1.56882 35.7936 1.11363C36.1578 0.931548 36.4309 1.2957 36.3399 1.56882C36.1578 1.93297 35.6116 2.57024 35.7936 2.66128C36.0667 2.84336 36.4309 2.57024 36.704 2.38816L37.7054 1.38674C37.8875 1.20467 38.1606 0.749471 38.4337 1.02259C38.5248 1.11363 38.4337 1.47778 38.6158 1.56882C38.7069 1.56882 38.8889 1.56882 38.98 1.47778C39.3441 1.20467 40.0724 0.385318 40.8918 0.567394C41.2559 0.658433 41.2559 1.02259 41.1649 1.2957C41.0739 1.47778 38.1606 5.3014 38.0696 5.84763C38.0696 5.93866 38.1606 6.0297 38.2517 6.0297C39.071 5.93866 39.9814 5.39243 40.5276 5.48347C41.0739 5.57451 39.7993 7.2132 39.4352 8.03255C39.2531 8.30566 40.0724 8.57878 40.2545 8.76085C40.5276 8.94293 40.4366 9.21605 40.3456 9.39812C40.2545 9.76228 39.8904 10.3996 39.6172 10.7637C38.7979 11.9472 37.5234 13.6769 37.4323 13.859C37.3413 14.0411 37.1592 14.4053 36.7951 14.2232C36.613 14.1321 36.5219 13.768 36.1578 13.9501C35.7936 14.1321 35.3384 15.1336 34.9743 15.0425C34.7012 15.0425 34.7922 14.6784 34.8832 14.4053C35.0653 14.0411 35.7026 13.4038 35.4295 13.2218C35.2474 13.1307 35.0653 13.2218 34.9743 13.3128C33.5177 14.9515 32.8804 17.3185 31.3327 18.8661C31.0596 19.1393 30.6044 19.1393 30.5134 18.6841C30.4224 18.3199 30.6044 18.0468 30.7865 17.7737C31.1507 17.1364 32.3342 15.4067 32.2431 15.0425C32.1521 14.8604 31.97 14.8604 31.7879 14.9515C31.4238 15.1336 31.0596 15.6798 30.8776 15.9529C30.6044 16.226 30.2403 16.135 30.0582 15.9529C29.8761 15.6798 30.0582 15.2246 30.2403 14.7694C30.6044 13.6769 31.1507 12.5845 30.6955 11.492C30.6044 11.3099 30.4224 11.1279 30.3313 10.8548C30.1492 10.2175 30.4224 9.30708 30.6955 8.66982C30.7865 8.21462 33.1535 4.57309 33.8818 3.48063Z" fill="white"></path> <path d="M35.3381 15.6798C35.6112 15.3157 35.9754 14.5873 36.5216 14.8605C36.7037 14.9515 35.9754 15.7708 36.1575 15.8619H36.4306C36.7037 15.6798 36.8858 15.5888 37.2499 15.6798C37.341 15.6798 37.432 15.8619 37.341 15.9529C36.4306 17.6827 35.5202 19.3213 34.1546 20.96C34.0636 21.0511 33.7905 20.96 33.6994 20.778C33.5174 20.4138 33.7905 20.1407 33.8815 19.8676C33.9725 19.6855 34.7919 18.3199 35.065 17.8647C35.156 17.6827 34.8829 17.5916 34.7919 17.6827C34.7009 17.7737 34.4277 18.0468 34.2457 18.0468C34.1546 18.1378 33.8815 18.0468 33.8815 17.8647C33.9725 17.4095 35.065 16.044 35.3381 15.6798Z" fill="white"></path> <path d="M0.926636 28.7895C0.926636 25.7852 3.2026 23.4182 6.2979 23.4182C9.75736 23.4182 11.5781 25.9673 11.5781 28.6074C11.5781 31.7027 9.21113 33.8876 6.2979 33.8876C2.92948 33.9786 0.926636 31.5206 0.926636 28.7895ZM10.0305 29.1536C10.0305 26.6956 8.93802 23.9644 6.02479 23.9644C4.47713 23.9644 2.38325 25.0569 2.38325 28.3343C2.38325 30.6102 3.47571 33.5235 6.47998 33.5235C8.30075 33.4324 10.0305 32.0668 10.0305 29.1536ZM15.4928 31.4296C15.4928 32.9772 15.4928 33.2503 16.4942 33.3414H16.8584C16.9494 33.4324 16.9494 33.7055 16.8584 33.7055H13.0347C12.9437 33.7055 12.9437 33.4324 13.0347 33.3414H13.3079C14.2182 33.2503 14.2182 33.0683 14.2182 31.4296V25.8762C14.2182 24.6017 14.2182 24.3286 13.4899 24.2375L12.9437 24.1465C12.8527 24.0555 12.8527 23.8734 12.9437 23.7823C13.7631 23.6913 14.6734 23.6913 15.948 23.6913C17.2225 23.6913 18.1329 23.8734 18.8612 24.3286C19.5895 24.7838 20.0447 25.5121 20.0447 26.6045C20.0447 27.9701 19.2254 28.6984 18.4971 28.9715C17.8598 29.2446 17.0404 29.4267 16.4032 29.4267C16.3121 29.3357 16.3121 29.1536 16.4032 29.1536C18.0419 28.8805 18.5881 27.9701 18.5881 26.6045C18.5881 25.1479 17.7687 24.1465 16.1301 24.1465C15.3107 24.1465 15.3107 24.2375 15.3107 24.6927V31.4296H15.4928ZM29.7858 27.5149C29.7858 26.6045 29.7858 24.8748 29.5127 24.4196C29.4217 24.2375 29.1485 24.1465 28.7844 24.1465H28.4202C28.3292 24.0555 28.3292 23.8734 28.4202 23.7823C28.9665 23.7823 29.5127 23.8734 30.15 23.8734C30.7872 23.8734 31.1514 23.8734 31.6976 23.7823C31.7887 23.8734 31.7887 24.0555 31.6976 24.1465H31.3335C30.9693 24.1465 30.6962 24.3286 30.6052 24.5107C30.4231 24.9658 30.4231 26.7866 30.4231 27.606V29.3357C30.4231 30.6102 30.241 32.0668 29.3306 32.9772C28.6934 33.7055 27.6009 34.0697 26.4174 34.0697C25.416 34.0697 24.3235 33.8876 23.5952 33.2503C22.7759 32.6131 22.4117 31.5206 22.4117 29.6998V26.1493C22.4117 24.6017 22.4117 24.3286 21.5013 24.2375H21.1372C21.0461 24.1465 21.0461 23.9644 21.1372 23.8734C21.8655 23.8734 22.4117 23.9644 23.049 23.9644C23.6862 23.9644 24.1414 23.9644 24.8697 23.8734C24.9608 23.9644 24.9608 24.1465 24.8697 24.2375H24.5056C23.5952 24.3286 23.5952 24.6017 23.5952 26.1493V29.4267C23.5952 31.8848 24.3235 33.4324 26.6905 33.4324C28.8754 33.4324 29.6948 31.7027 29.6948 29.4267V27.5149H29.7858ZM35.2481 33.9786C33.9736 33.9786 33.1542 33.6145 32.8811 33.4324C32.699 33.0683 32.517 32.0668 32.517 31.3385C32.608 31.2475 32.7901 31.2475 32.8811 31.3385C33.0632 32.0668 33.7005 33.6145 35.5212 33.6145C36.7958 33.6145 37.433 32.7951 37.433 31.8848C37.433 31.2475 37.342 30.5192 36.1585 29.7909L34.7019 28.8805C33.9736 28.4253 33.0632 27.5149 33.0632 26.2404C33.0632 24.7838 34.1557 23.6003 36.1585 23.6003C36.6137 23.6003 37.1599 23.6913 37.5241 23.7823C37.7062 23.8734 37.8882 23.8734 38.0703 23.8734C38.1614 24.2375 38.3434 25.0569 38.3434 25.6942C38.2524 25.7852 38.0703 25.7852 37.9793 25.7852C37.7972 25.0569 37.342 24.0555 35.8854 24.0555C34.4288 24.0555 34.0646 25.0569 34.0646 25.6942C34.0646 26.6045 34.7929 27.2418 35.3392 27.5149L36.5227 28.2432C37.433 28.7895 38.4345 29.6998 38.4345 31.1565C38.5255 32.7951 37.251 33.9786 35.2481 33.9786Z" fill="white"></path> </g> <defs> <clipPath id="clip0_3758_4285"> <rect width="42" height="35" fill="white"></rect> </clipPath> </defs> </svg>