<svg xmlns="http://www.w3.org/2000/svg" version="1.1" viewBox="0 0 175 44">   <defs>     <style>       .cls-1 {         fill: #fff;       }     </style>   </defs>   <!-- Generator: Adobe Illustrator 28.6.0, SVG Export Plug-In . SVG Version: 1.2.0 Build 709)  -->   <g>     <g id="Layer_1">       <g id="Page-1">         <g id="sec-logo-hockey">           <path id="Shape" class="cls-1" d="M35.9,30l-5.5,8.2c1.4.1,2.8.1,4.3.1,1.7-2.4,4.3-7.3,1.2-8.3Z"></path>           <path id="Shape-2" data-name="Shape" class="cls-1" d="M66.5,6.9S56.9-1.9,38.9.6C20.8,3.1,10.6,12.2,10.6,12.2c0,0-10.5,7.4-9.8,17.1.6,9.7,15.5,12.8,17.5,12.9,2.8.5,15.3,3.1,31.7-2.9,8.1-3.3,12.4-7.2,14.3-9.1,1.5-1.8,2-2.4,2-2.4,0,0-5.5,5.7-15.1,9.3-9.7,3.4-12.1,3.4-19.6,3.8-7.5,0-18.9-2.6-22.3-10.8-1.7-4.7-1.4-11.4,8.3-19.4,3.6-2.6,10.2-6.9,20.7-8.7,10.6-1.5,16-.5,22.6,2,1.8.8,5.4,2.8,5.4,2.8Z"></path>           <path class="cls-1" d="M69.1,14.2c-2.3-8.8-16.9-12.8-32.5-9.1-10.1,2.5-18.7,7.8-22.4,14.1-1.8,3-2.3,6-1.7,8.7,1,4,5.8,7.5,10.9,9.3l9.5-12.9h.3c2.2.9,2.7,1.5,3.1,1.9h.1c3.2,2.5,5.1,2.8,7.7,2.9.1,1.1-.6,5-2.2,8.8.5-.1,2.7-.5,3.2-.6,10.1-2.5,18.7-7.8,22.4-14.1,1.8-3.3,2.4-6.3,1.7-8.9ZM47.4,11.3c2.9-.1,5.2,1.5,5.4,3.6,0,2-2.3,3.8-5.1,3.9-2.9.1-5.2-1.5-5.4-3.6,0-2.1,2.2-3.9,5.1-3.9ZM46.9,26.5c-1.7,0-4.6.1-8.3-2.5-3.7-2.6-7.9-3.4-11-3-.4,0-1.3.3-1.3.3,5.2-3.3,7.4-3.3,10.6-3.3s6.1,1.9,7.8,3.1c1.7,1.3,7,3.3,11.4,2.1-2.9,2.1-6.9,3.3-9.2,3.3Z"></path>           <g id="Group">             <path id="Shape-3" data-name="Shape" class="cls-1" d="M91.9,11.3c0-.6-.3-1-.5-1.3-.4-.3-.9-.4-1.4-.4-.8,0-1.8.3-1.8,1.3s2.3,1.3,3.8,1.8c2.7.9,3.6,2.4,3.6,4.1,0,3.6-3.6,5.4-6.9,5.4s-6.6-1.6-6.5-5.4h4.6c0,.9.3,1.4.6,1.8.3.3.8.3,1.7.3s2-.5,2-1.5-1.5-1.3-3.7-1.9c-1.9-.6-3.7-1.6-3.7-4.1s3.3-5,6.4-5,6.3,1.3,6.1,4.9h-4.3Z"></path>             <path id="Shape-4" data-name="Shape" class="cls-1" d="M103.7,10.7h1.7c1,0,2,.3,2,1.4s-.6,1.8-2.6,1.8h-1.8l.6-3.1ZM96.7,21.9h4.6l1-4.5h3.2c4.1,0,6.6-2.6,6.6-5.7s-1.8-4.9-4.6-4.9h-7.7l-3.2,15.1Z"></path>             <path id="Shape-5" data-name="Shape" class="cls-1" d="M117.8,15.7c0-2.3.9-5.5,3.7-5.5s2.4,1.4,2.4,2.8c0,2.3-.9,5.5-3.7,5.5s-2.4-1.4-2.4-2.8ZM113,15.6c0,4.4,2.7,6.7,7,6.7s8.6-4.1,8.6-9.2-2.7-6.7-7-6.7-8.6,4.1-8.6,9.2Z"></path>             <path id="Shape-6" data-name="Shape" class="cls-1" d="M137.1,10.3h2.6c1.3,0,1.5.8,1.5,1.3,0,.9-.8,1.6-2.3,1.6h-2.6l.8-2.9ZM130.1,21.9h4.6l1.2-5.3h2c1.3,0,1.9.6,1.9,1.4s-.3,1.6-.3,2.4,0,1.1.3,1.5h4.5c-.4-.9-.3-2.4-.3-3.9s-.3-2.8-1.5-3.1c2.2-.4,3.6-2,3.6-4.1,0-3.1-2.2-3.9-5-3.9h-7.8l-3.2,15.1Z"></path>             <polygon id="Shape-7" data-name="Shape" class="cls-1" points="151 10.7 146.8 10.7 147.6 6.8 160.9 6.8 160.1 10.7 155.9 10.7 153.6 21.9 148.8 21.9 151 10.7"></polygon>             <path id="Shape-8" data-name="Shape" class="cls-1" d="M170.1,11.3c0-.6-.3-1-.5-1.3-.4-.3-.9-.4-1.4-.4-.8,0-1.8.3-1.8,1.3s2.3,1.3,3.8,1.8c2.7.9,3.6,2.4,3.6,4.1,0,3.6-3.6,5.4-6.9,5.4s-6.6-1.6-6.5-5.4h4.6c0,.9.3,1.4.6,1.8.4.4,1,.4,1.8.4s2-.5,2-1.5-1.5-1.3-3.7-1.9c-1.9-.6-3.7-1.6-3.7-4.1s3.3-5,6.4-5,6.3,1.3,6.1,4.9h-4.5Z"></path>             <polygon id="Shape-9" data-name="Shape" class="cls-1" points="95.7 32.1 98.1 37 95.3 37 93.9 33.9 91.3 37 88.4 37 92.7 31.9 90.5 27.7 93.3 27.7 94.4 30.3 96.5 27.7 99.5 27.7 95.7 32.1"></polygon>             <path id="Shape-10" data-name="Shape" class="cls-1" d="M106.5,30.8c0-1.1-.6-1.5-1.8-1.5-2,0-2.7,2.4-2.7,3.9s.5,2,1.8,2,1.8-.8,2.2-1.8h2.6c-.8,2.4-2.4,3.6-4.9,3.6s-4.2-1.3-4.2-4,1.9-5.8,5.4-5.8,4.2,1,4.2,3.5h-2.6Z"></path>             <path id="Shape-11" data-name="Shape" class="cls-1" d="M112.5,31.2c.4-1,1.2-2,2.6-2s1.8,1,1.8,2h-4.3ZM119.3,32.8c.1-.5.1-1,.1-1.5,0-2.8-1.8-4-4.5-4s-5.2,2.8-5.2,5.8,1.7,4,4.2,4,4.1-1.1,4.9-3.3h-2.6c-.4.6-.9,1.3-1.9,1.3s-2-.8-2-1.8v-.5h7Z"></path>             <polygon id="Shape-12" data-name="Shape" class="cls-1" points="122.8 24 125.3 24 122.5 37 119.9 37 122.8 24"></polygon>             <polygon id="Shape-13" data-name="Shape" class="cls-1" points="127.5 24 130.1 24 127.2 37 124.7 37 127.5 24"></polygon>             <path id="Shape-14" data-name="Shape" class="cls-1" d="M132.6,31.2c.4-1,1.2-2,2.6-2s1.8,1,1.8,2h-4.3ZM139.4,32.8c.1-.5.1-1,.1-1.5,0-2.8-1.8-4-4.5-4s-5.2,2.8-5.2,5.8,1.7,4,4.2,4,4.1-1.1,4.9-3.3h-2.6c-.4.6-.9,1.3-1.9,1.3s-2-.8-2-1.8v-.5h7Z"></path>             <path id="Shape-15" data-name="Shape" class="cls-1" d="M141.9,27.5h2.6l-.3,1.3c.9-1,1.9-1.5,3.3-1.5s2.8.9,2.8,2.5-.3,1.3-.3,1.6l-1.2,5.5h-2.6l1.2-5.5c.1-.3.1-.9.1-1.1,0-.5-.6-1-1.3-1-1.5,0-2.4,1.3-2.7,2.6l-1,5h-2.6l1.8-9.4Z"></path>             <path id="Shape-16" data-name="Shape" class="cls-1" d="M158.6,30.8c0-1.1-.6-1.5-1.8-1.5-2,0-2.7,2.4-2.7,3.9s.5,2,1.8,2,1.8-.8,2.2-1.8h2.6c-.8,2.4-2.4,3.6-4.9,3.6s-4.2-1.3-4.2-4,1.9-5.8,5.4-5.8,4.2,1,4.2,3.5h-2.6Z"></path>             <path id="Shape-17" data-name="Shape" class="cls-1" d="M164.6,31.2c.4-1,1.2-2,2.6-2s1.8,1,1.8,2h-4.3ZM171.4,32.8c.1-.5.1-1,.1-1.5,0-2.8-1.8-4-4.5-4s-5.2,2.8-5.2,5.8,1.7,4,4.2,4,4.1-1.1,4.9-3.3h-2.6c-.4.6-.9,1.3-1.9,1.3s-2-.8-2-1.8v-.5h7Z"></path>             <path id="Shape-18" data-name="Shape" class="cls-1" d="M82.4,31.2c.4-1,1.2-2,2.6-2s1.8,1,1.8,2h-4.3ZM89.1,32.8c.1-.5.1-1,.1-1.5,0-2.8-1.8-4-4.5-4s-5.2,2.8-5.2,5.8,1.7,4,4.2,4,4.1-1.1,4.9-3.3h-2.6c-.4.6-.9,1.3-1.9,1.3s-2-.8-2-1.8v-.5h7Z"></path>           </g>         </g>       </g>     </g>   </g> </svg>