<svg viewBox="0 0 400 40" fill="none" xmlns="http://www.w3.org/2000/svg"> <path d="M46.8616 0.687876L38.0052 28.6328L37.3173 31.3844L36.8014 28.6328L28.2029 0.687876H23.9037L15.3052 28.6328L14.7893 31.3844L14.1015 28.6328L5.24505 0.687876H0V0.773861L12.2098 39.123H17.1969L25.4514 12.4678L26.0533 9.88822L26.6552 12.4678L34.9097 39.123H39.8968L52.1066 0.687876H46.8616ZM69.9054 0C58.4695 0 50.3009 8.51247 50.3009 19.8624C50.3009 31.2124 58.4695 39.8108 69.9054 39.8108C81.3414 39.8108 89.5099 31.2124 89.5099 19.8624C89.5099 8.51247 81.3414 0 69.9054 0ZM69.9054 35.1677C61.307 35.1677 55.46 28.6328 55.46 19.8624C55.46 11.092 61.307 4.64316 69.9054 4.64316C78.5039 4.64316 84.2648 11.092 84.2648 19.8624C84.2648 28.6328 78.4179 35.1677 69.9054 35.1677ZM111.952 0C100.516 0 92.2614 8.51247 92.2614 19.8624C92.2614 31.2124 100.43 39.8108 111.952 39.8108C123.474 39.8108 131.556 31.2124 131.556 19.8624C131.556 8.51247 123.388 0 111.952 0ZM111.952 35.1677C103.353 35.1677 97.5064 28.6328 97.5064 19.8624C97.5064 11.092 103.439 4.64316 111.952 4.64316C120.464 4.64316 126.311 11.092 126.311 19.8624C126.311 28.6328 120.464 35.1677 111.952 35.1677ZM148.753 0.687876H134.91V39.123H148.753C160.619 39.123 168.272 31.4703 168.272 19.9484C168.272 8.42648 160.619 0.687876 148.753 0.687876ZM148.753 34.4798H139.897V5.33104H148.753C157.696 5.33104 163.113 10.8341 163.113 19.8624C163.113 28.8908 157.61 34.3938 148.753 34.4798ZM183.577 17.3689C178.332 15.3052 175.924 14.1015 175.924 10.3181C175.924 6.53482 178.16 4.47119 181.857 4.47119C185.555 4.47119 188.134 6.70679 188.134 10.8341H193.207C193.035 3.69733 188.65 0 181.943 0C174.807 0 170.851 4.72915 170.851 10.6621C170.851 16.595 174.721 19.5185 181.255 21.9261C187.016 23.9897 189.338 25.7094 189.338 28.9768C189.338 32.5881 187.016 35.3396 182.545 35.3396C177.73 35.3396 174.893 32.6741 174.807 27.773H169.733C169.819 34.9097 174.377 39.8108 182.459 39.8108C189.424 39.8108 194.411 35.6836 194.411 28.6328C194.411 23.0439 191.316 20.2064 183.577 17.3689ZM226.913 0.687876H194.669V5.33104H208.255V39.037H213.242V5.33104H226.827V0.687876H226.913ZM244.884 0C233.448 0 225.193 8.51247 225.193 19.8624C225.193 31.2124 233.362 39.8108 244.884 39.8108C256.406 39.8108 264.488 31.2124 264.488 19.8624C264.488 8.51247 256.32 0 244.884 0ZM244.884 35.1677C236.285 35.1677 230.439 28.6328 230.439 19.8624C230.439 11.092 236.285 4.64316 244.884 4.64316C253.482 4.64316 259.243 11.092 259.243 19.8624C259.243 28.6328 253.396 35.1677 244.884 35.1677ZM285.211 35.1677C277.042 35.1677 271.367 28.6328 271.367 19.9484C271.367 11.264 277.042 4.72915 285.125 4.72915C291.402 4.72915 295.013 7.73861 296.647 12.2098H302.15C300.086 4.72915 294.239 0 285.211 0C274.119 0 266.208 8.51247 266.208 19.9484C266.208 31.3844 274.119 39.8968 285.211 39.8968C294.239 39.8968 300.172 35.3396 302.322 27.601H296.991C295.357 31.9003 291.574 35.1677 285.211 35.1677ZM333.706 0.687876H327.429L310.318 22.442V0.687876H305.417V39.123H310.404V29.7506L317.025 21.6681L330.181 39.037H336.457L320.206 17.7128L333.706 0.687876ZM350.645 19.9484C350.731 19.2605 350.645 18.6586 350.559 18.0567L349.355 18.1427C349.441 18.6586 349.527 19.0886 349.441 19.7764C349.441 20.0344 349.355 20.2064 349.355 20.3783L347.292 18.1427C348.237 17.5408 349.269 16.939 349.269 15.5632C349.269 14.1874 348.237 13.3276 346.776 13.3276C345.142 13.3276 344.282 14.3594 344.282 15.6492C344.282 16.595 344.712 17.2829 345.228 17.7988L345.486 18.0567L345.4 18.1427C344.368 18.7446 343.508 19.4325 343.508 20.8942C343.508 22.6139 344.798 23.6457 346.862 23.6457C347.979 23.6457 348.925 23.2158 349.613 22.6139L350.387 23.4738H352.021L350.301 21.5821C350.473 20.9802 350.645 20.5503 350.645 19.9484ZM346.776 14.3594C347.463 14.3594 347.979 14.8753 347.979 15.5632C347.979 16.509 347.291 16.853 346.604 17.2829L346.346 17.0249C346.002 16.595 345.572 16.1651 345.572 15.4772C345.572 14.7893 346.088 14.3594 346.776 14.3594ZM346.776 22.442C345.486 22.442 344.712 21.8401 344.712 20.7223C344.712 19.8624 345.314 19.3465 346.174 18.8306H346.26L348.839 21.6681C348.323 22.184 347.635 22.442 346.776 22.442ZM373.001 22.356C370.851 22.356 369.476 20.6363 369.476 18.4007C369.476 16.1651 370.937 14.4454 373.001 14.4454C374.635 14.4454 375.58 15.2193 376.01 16.3371H377.472C376.956 14.4454 375.408 13.2416 373.087 13.2416C370.249 13.2416 368.186 15.4772 368.186 18.4007C368.186 21.3242 370.249 23.5598 373.087 23.5598C375.408 23.5598 376.956 22.356 377.472 20.3783H376.096C375.666 21.4961 374.635 22.356 373.001 22.356ZM385.297 13.4136H386.586V23.3018H385.297V13.4136ZM400 14.6174V13.4136H394.497V23.3018H400V22.098H395.787V18.8306H399.484V17.6268H395.787V14.6174H400Z" fill="white"></path> </svg>