<svg viewBox="0 0 508 189" fill="none" xmlns="http://www.w3.org/2000/svg"> <path opacity="0.7" d="M0.705078 114.544L60.8213 10.4836L120.938 114.544H0.705078Z" fill="white"></path> <path opacity="0.5" d="M199.686 1.34305L139.394 105.58L109.16 53.0219L79.2773 1.34305H199.686Z" fill="white"></path> <path opacity="0.7" d="M199.684 1.34305L139.392 105.58L109.158 53.0219L199.684 1.34305Z" fill="white"></path> <path d="M0.705078 114.545L91.231 63.0414L120.938 114.545H0.705078Z" fill="white"></path> <path d="M12.3066 176.419V145.657H16.1738V176.419H12.3066Z" fill="white"></path> <path d="M36.3867 176.419V145.657H40.4296L51.5037 164.993L54.8435 171.321H55.0193C55.0193 169.739 54.8435 168.157 54.6677 166.399C54.6677 164.641 54.4919 163.059 54.4919 161.477V145.657H58.1833V176.419H54.1404L43.0663 157.083L39.7265 150.755H39.5507C39.5507 152.337 39.7265 153.919 39.9023 155.501C39.9023 157.083 39.9023 158.665 39.9023 160.423V176.419H36.2109H36.3867Z" fill="white"></path> <path d="M84.7284 176.419V148.997H75.4121V145.657H97.9118V148.997H88.5955V176.419H84.7284Z" fill="white"></path> <path d="M115.137 176.419V145.657H132.89V148.997H119.004V158.665H130.605V162.005H119.004V173.079H133.242V176.419H115.137Z" fill="white"></path> <path d="M151.521 176.419V145.657H161.189C162.771 145.657 164.178 145.657 165.584 146.185C166.99 146.536 168.045 146.888 168.924 147.591C169.802 148.294 170.681 149.173 171.209 150.228C171.736 151.282 172.088 152.688 172.088 154.27C172.088 156.731 171.384 158.665 170.154 160.071C168.924 161.477 167.166 162.532 165.056 163.059L172.791 176.419H168.396L161.014 163.411H155.389V176.419H151.521ZM155.564 160.247H160.662C163.123 160.247 164.881 159.72 166.111 158.841C167.342 157.786 168.045 156.38 168.045 154.446C168.045 152.513 167.342 150.931 166.111 150.228C164.881 149.349 162.947 148.997 160.662 148.997H155.564V160.423V160.247Z" fill="white"></path> <path d="M190.02 176.419V145.657H194.062L205.136 164.993L208.476 171.321H208.652C208.652 169.739 208.476 168.157 208.3 166.399C208.3 164.641 208.3 163.059 208.3 161.477V145.657H211.992V176.419H207.949L196.875 157.083L193.535 150.755H193.359C193.359 152.337 193.535 153.919 193.711 155.501C193.711 157.083 193.711 158.665 193.711 160.423V176.419H190.02Z" fill="white"></path> <path d="M227.986 176.419L238.357 145.657H242.752L253.123 176.419H248.904L245.916 167.102H234.666L231.678 176.419H227.635H227.986ZM237.303 159.368L235.896 164.114H245.037L243.631 159.368C243.103 157.61 242.576 156.028 242.049 154.27C241.521 152.513 240.994 150.755 240.467 148.997C239.939 150.755 239.588 152.513 239.06 154.27C238.533 156.028 238.006 157.61 237.478 159.368H237.303Z" fill="white"></path> <path d="M272.986 176.419V148.997H263.67V145.657H286.17V148.997H276.853V176.419H272.986Z" fill="white"></path> <path d="M303.395 176.419V145.657H307.262V176.419H303.395Z" fill="white"></path> <path d="M338.726 177.122C336.793 177.122 335.035 176.77 333.453 176.067C331.871 175.364 330.465 174.309 329.234 172.903C328.004 171.497 327.125 169.915 326.598 167.805C325.895 165.872 325.543 163.587 325.543 161.126C325.543 158.665 325.895 156.38 326.598 154.446C327.301 152.513 328.18 150.755 329.234 149.524C330.465 148.118 331.695 147.063 333.453 146.36C335.035 145.657 336.793 145.306 338.726 145.306C340.66 145.306 342.418 145.657 344 146.36C345.582 147.063 346.988 148.118 348.218 149.524C349.449 150.931 350.328 152.513 350.855 154.446C351.558 156.38 351.734 158.665 351.734 160.95C351.734 163.235 351.382 165.696 350.855 167.63C350.152 169.563 349.273 171.321 348.218 172.727C346.988 174.133 345.582 175.188 344 175.891C342.418 176.594 340.66 176.946 338.726 176.946V177.122ZM338.726 173.606C340.133 173.606 341.363 173.254 342.418 172.727C343.472 172.2 344.527 171.321 345.23 170.266C346.109 169.212 346.636 167.805 346.988 166.223C347.34 164.641 347.691 162.884 347.691 160.95C347.691 159.016 347.515 157.259 346.988 155.852C346.636 154.27 345.933 153.04 345.23 151.985C344.351 150.931 343.472 150.052 342.418 149.524C341.363 148.997 340.133 148.645 338.726 148.645C337.32 148.645 336.09 148.997 335.035 149.524C333.98 150.052 332.926 150.931 332.223 151.985C331.519 153.04 330.816 154.27 330.465 155.852C329.937 157.434 329.762 159.192 329.762 160.95C329.762 162.708 329.937 164.641 330.465 166.223C330.816 167.805 331.519 169.036 332.223 170.266C333.101 171.321 333.98 172.2 335.035 172.727C336.09 173.254 337.32 173.606 338.726 173.606Z" fill="white"></path> <path d="M370.191 176.419V145.657H374.234L385.308 164.993L388.648 171.321H388.824C388.824 169.739 388.648 168.157 388.472 166.399C388.472 164.641 388.472 163.059 388.472 161.477V145.657H392.164V176.419H388.121L377.047 157.083L373.707 150.755H373.531C373.531 152.337 373.707 153.919 373.883 155.501C373.883 157.083 373.883 158.665 373.883 160.423V176.419H370.191Z" fill="white"></path> <path d="M408.16 176.419L418.531 145.657H422.926L433.296 176.419H429.078L426.09 167.102H414.84L411.851 176.419H407.809H408.16ZM417.652 159.368L416.246 164.114H425.562L424.156 159.368C423.629 157.61 423.101 156.028 422.574 154.27C422.047 152.513 421.519 150.755 420.992 148.997C420.465 150.755 420.113 152.513 419.586 154.27C419.058 156.028 418.531 157.61 418.004 159.368H417.652Z" fill="white"></path> <path d="M449.467 176.419V145.657H453.334V173.079H466.869V176.419H449.467Z" fill="white"></path> <path d="M498.336 63.0413C495.524 60.7562 492.184 58.8227 488.317 57.4164C484.274 56.0102 479.879 54.9555 474.958 54.4282C478.297 53.7251 481.461 52.4946 484.274 51.0884C487.086 49.6822 489.547 47.7486 491.657 45.4635C493.766 43.1784 495.348 40.7175 496.403 37.7292C497.457 34.741 498.16 31.577 498.16 28.0614C498.16 24.5458 497.457 19.9756 496.051 16.6358C494.645 13.296 492.36 10.4836 489.196 8.19844C486.032 5.91332 481.813 4.15553 476.54 2.92508C471.442 1.69463 465.114 1.1673 457.731 1.1673H389.705V5.56176L398.142 7.6711V107.513L389.705 109.798V114.193H462.653C462.653 114.193 477.419 113.841 483.043 112.259C488.668 110.677 493.239 108.392 496.754 105.58C500.27 102.767 502.906 99.2517 504.488 95.2088C506.07 91.1659 506.949 86.5957 506.949 81.8496C506.949 77.1036 506.246 74.2912 504.664 71.1272C503.258 67.9631 500.973 65.1507 498.336 62.8656V63.0413ZM414.49 8.90154H453.513C458.61 8.90154 462.829 9.25311 466.344 10.132C469.86 11.0109 472.673 12.2413 474.782 13.8233C476.891 15.4054 478.473 17.5147 479.528 19.9756C480.583 22.4365 480.934 25.6005 480.934 28.9403C480.934 32.2801 480.583 35.6199 479.704 38.4323C478.825 41.2448 477.419 43.7057 475.485 45.6393C473.551 47.5728 470.739 49.1548 467.399 50.2095C463.884 51.2642 459.665 51.7915 454.392 51.7915H414.314V8.72577L414.49 8.90154ZM487.965 92.9237C486.911 96.0877 485.329 98.7244 483.043 100.834C480.758 102.943 477.77 104.701 474.079 105.756C470.387 106.986 465.993 107.513 460.72 107.513C455.446 107.513 454.919 107.513 452.106 107.513C449.118 107.513 424.861 107.513 422.576 107.338C419.763 107.338 417.126 107.338 414.49 107.162V59.7015H456.325C462.302 59.7015 467.223 60.2289 471.442 61.1078C475.661 61.9867 479.176 63.3929 481.813 65.3265C484.45 67.26 486.383 69.5452 487.614 72.3576C488.844 75.1701 489.547 78.6856 489.547 82.5528C489.547 86.4199 489.02 89.9355 487.965 92.9237Z" fill="white"></path> <path d="M365.448 5.73754V1.34307H332.402V5.73754L340.839 7.84687V107.689L333.984 109.271L326.953 107.689L263.848 1.1673H249.434L188.439 107.689L180.529 109.974V114.369H208.127V109.974L199.513 107.689L217.794 74.9943H289.336L308.848 107.689L300.41 109.974V114.369H365.624V109.974L357.187 107.689V7.84687L365.624 5.73754H365.448ZM221.837 67.7874L252.95 12.9445L285.118 67.7874H221.837Z" fill="white"></path> <path d="M478.646 165.872C478.998 164.993 479.701 164.114 480.404 163.411C481.107 162.708 481.986 162.18 482.865 161.829C483.744 161.477 484.799 161.302 485.853 161.302C486.908 161.302 487.963 161.477 488.842 161.829C489.721 162.18 490.599 162.708 491.303 163.411C492.006 164.114 492.533 164.993 493.06 165.872C493.412 166.751 493.763 167.805 493.763 169.036C493.763 170.266 493.588 171.145 493.06 172.2C492.709 173.079 492.006 173.958 491.303 174.661C490.599 175.364 489.721 175.891 488.842 176.243C487.787 176.594 486.908 176.77 485.853 176.77C484.799 176.77 483.744 176.594 482.865 176.243C481.986 175.891 481.107 175.364 480.404 174.661C479.701 173.958 479.174 173.079 478.646 172.2C478.295 171.145 477.943 170.266 477.943 169.036C477.943 167.805 478.119 166.926 478.646 165.872ZM479.877 171.672C480.228 172.551 480.58 173.254 481.283 173.782C481.81 174.309 482.514 174.836 483.393 175.188C484.271 175.54 485.15 175.715 486.029 175.715C486.908 175.715 487.787 175.715 488.666 175.188C489.369 174.836 490.072 174.309 490.775 173.782C491.303 173.254 491.83 172.376 492.181 171.672C492.533 170.794 492.709 169.915 492.709 169.036C492.709 168.157 492.709 167.278 492.181 166.399C491.83 165.52 491.303 164.817 490.775 164.29C490.248 163.762 489.545 163.235 488.666 162.884C487.787 162.532 487.084 162.356 486.029 162.356C484.975 162.356 484.271 162.532 483.393 162.884C482.689 163.235 481.986 163.762 481.283 164.29C480.756 164.817 480.228 165.52 479.877 166.399C479.525 167.278 479.35 168.157 479.35 169.036C479.35 169.915 479.35 170.969 479.877 171.672ZM486.381 164.466C487.435 164.466 488.314 164.641 488.842 165.169C489.369 165.52 489.721 166.223 489.721 167.102C489.721 167.981 489.545 168.508 489.017 168.86C488.49 169.212 487.963 169.387 487.26 169.563L489.896 173.606H488.314L485.853 169.563H484.271V173.606H482.865V164.466H486.381ZM485.853 168.508C486.205 168.508 486.557 168.508 486.732 168.508C487.084 168.508 487.26 168.508 487.435 168.333C487.611 168.333 487.787 168.157 487.963 167.805C487.963 167.63 488.139 167.278 488.139 166.926C488.139 166.575 488.139 166.399 487.963 166.223C487.963 166.048 487.611 165.872 487.435 165.872C487.26 165.872 487.084 165.872 486.732 165.696C486.557 165.696 486.205 165.696 486.029 165.696H484.096V168.684H485.678L485.853 168.508Z" fill="white"></path> </svg>