<svg viewBox="0 0 779 210" fill="none" xmlns="http://www.w3.org/2000/svg"> <g clip-path="url(#clip0_8823_2)"> <path d="M57.2286 51.1532H57.1087C48.6444 51.2447 40.3157 53.1274 32.7641 56.6564C25.2124 60.1855 18.6393 65.2663 13.551 71.5084L13.7389 0.0367432H0.427205L0 165.369H13.3117V144.872C18.3841 151.144 24.9525 156.255 32.5086 159.809C40.0648 163.363 48.406 165.265 56.8869 165.369H57.0063C88.346 165.369 113.876 139.795 113.961 108.324C114.154 93.3558 108.201 78.8743 97.3005 67.7875C92.2387 62.5993 86.0619 58.4413 79.1623 55.5771C72.2633 52.7133 64.7935 51.2066 57.2286 51.1532ZM57.0745 153.229H56.9722C32.9119 153.229 13.3971 133.094 13.4484 108.466C13.3388 96.7181 17.926 85.3457 26.3329 76.5223C30.1541 72.4455 34.875 69.1689 40.1797 66.9123C45.4843 64.6551 51.2503 63.47 57.0916 63.4359C81.1519 63.4359 100.667 83.6646 100.616 108.419C100.564 133.173 81.0837 153.229 57.0745 153.229Z" fill="white"></path>z <path d="M192.977 51.4478C185.374 51.4272 177.851 52.8934 170.906 55.7497C163.961 58.6057 157.75 62.7876 152.683 68.0188C141.91 79.1596 135.94 93.5582 135.903 108.488C135.864 123.418 141.762 137.843 152.478 149.029C157.539 154.256 163.729 158.448 170.652 161.334C177.573 164.221 185.074 165.739 192.669 165.79H193.575C213.825 165.79 230.059 158.127 241.832 143.006L242.755 141.808L232.143 134.429L231.169 135.659C221.549 147.878 209.075 153.712 192.721 153.507C170.745 153.507 152.478 136.873 149.607 114.658L249.744 114.878V108.745C249.847 77.2265 224.369 51.5266 192.977 51.4478ZM149.641 102.391C152.632 80.2227 170.916 63.7303 192.858 63.7303H192.943C217.26 63.7303 235.544 83.9749 236.433 102.58L149.641 102.391Z" fill="white"></path> <path d="M380.503 100.451C380.503 73.6475 358.459 51.8105 331.238 51.7475C324.38 51.7683 317.606 53.144 311.371 55.7821C305.138 58.4202 299.588 62.2592 295.096 67.0415V51.6686H281.785L281.494 165.995H294.806L294.977 100.247C294.907 90.7863 298.681 81.6456 305.554 74.6254C308.761 71.3028 312.69 68.6404 317.085 66.8122C321.481 64.9841 326.245 64.0306 331.067 64.0141H331.152C351.043 64.0141 367.192 80.3799 367.14 100.404L367.243 160.318L367.55 166.389H380.606L380.298 160.082L380.503 100.451Z" fill="white"></path> <path d="M441.269 22.9884H427.974L427.889 51.9838H407.536V64.2502H427.906L427.718 134.445C427.94 154.942 442.687 166.341 469.225 166.404H475.889V154.138H469.242C456.494 154.138 441.251 150.685 441.012 134.476L441.183 64.2979L476.129 64.3768V52.0942L441.183 52.0153L441.269 22.9884Z" fill="white"></path> <path d="M503.088 1.07489L502.744 166.439L516.056 166.462L516.4 1.09847L503.088 1.07489Z" fill="white"></path> <path d="M603.469 52.3469H603.367C572.025 52.3469 546.498 77.921 546.412 109.391C546.209 124.347 552.128 138.824 562.988 149.928C568.045 155.158 574.237 159.352 581.157 162.236C588.083 165.12 595.583 166.632 603.179 166.673H604.066C624.332 166.673 640.566 159.01 652.342 143.89L653.263 142.692L642.669 135.313L641.697 136.558C632.076 148.778 619.584 154.532 603.248 154.406C581.271 154.406 563.022 137.772 560.151 115.556L660.274 115.777V109.644C660.342 78.1258 634.862 52.41 603.469 52.3469ZM560.134 103.29C563.124 81.1056 581.407 64.6138 603.333 64.6138H603.367C623.513 64.6138 645.95 81.1845 646.871 103.479L560.134 103.29Z" fill="white"></path> <path d="M764.75 52.6937L726.642 143.669L690.194 56.5723L688.482 52.5991H674.233L677.548 60.9084L719.296 160.902C707.605 189.74 699.832 197.718 683.683 197.718H676.849V209.985H683.683C706.752 209.985 718.266 198.948 732.914 162.968L775.634 60.9873L779.051 52.7094L764.75 52.6937Z" fill="white"></path> </g> <defs> <clipPath id="clip0_8823_2"> <rect width="779" height="210" fill="white"></rect> </clipPath> </defs> </svg>