<svg id="Layer_2" xmlns="http://www.w3.org/2000/svg" version="1.1" viewBox="0 0 1150 209">   <!-- Generator: Adobe Illustrator 29.4.0, SVG Export Plug-In . SVG Version: 2.1.0 Build 152)  -->   <defs>     <style>       .st0 {         fill: #fff;       }     </style>   </defs>   <path class="st0" d="M27,175c4.7,2,9.1,4.9,14,6.5,9.3,2.9,25.3,4.4,34.2.3,13.3-6.3,13.4-24.1,13.8-36.7-7,3-12,7.3-19.9,8.5C-1.6,164.4-4.2,42.6,67.4,50.1c8.3.9,14.3,4.6,21.1,8.9l.5-7h15v108.5c0,1.9-2.5,11.4-3.3,13.7-10.1,30.1-49.6,26.8-73.7,17.8v-17ZM55.7,64.2c-30.2,4.7-32.7,61.4-6.7,73.3,12.6,5.8,30.5,2.2,38.8-9.2l.2-51.8c-6.3-10.7-20.5-14.1-32.2-12.3Z"></path>   <path class="st0" d="M375,154h-16v-9c-4.7,2.1-7.8,4.8-13,6.5-48,16-75.1-38.7-55.5-77.5,10.7-21.2,36.8-29.7,58.5-20.4,3.7,1.6,6.3,4.4,10,5.5V16.5l16-5.5v143ZM326.8,64.3c-26,3.5-31.1,39.2-21.6,59.1s40.2,22.1,53.7,3.9l.2-49.8c-6.5-11-20-14.9-32.2-13.3Z"></path>   <path class="st0" d="M1032,12v142h-15v-9c-8.6,4.2-15.5,8.4-25.5,9-65.9,4.3-66.6-108.7,1-104.1,9.7.7,16.1,4.9,24.5,9V16.5l15-4.5ZM984.8,64.3c-26.5,3.6-31.8,39.3-21.9,59.4,10.1,20.8,38.8,21.3,53,4.6l.2-51.8c-6.3-10-19.9-13.8-31.2-12.3Z"></path>   <path class="st0" d="M204,154h-16v-9c-4,1.3-6.7,4.2-10.7,5.8-27.3,10.4-66.5-2.6-56.8-37.8,3.3-11.8,19.1-23,31-23h36.5c5.9-36-37.5-27.6-58-19v-15c21.9-7.7,63.4-13.2,72.1,15.4.4,1.4,1.9,7.2,1.9,8.1v74.5ZM188,103h-29.5c-3.1,0-12.3,3-15.2,4.8-7.9,5-9.9,15.8-5.1,23.5,8.1,13.1,37,10.1,46.7,0s3.1-3.6,3.1-3.9v-24.5Z"></path>   <path class="st0" d="M480,108h-73c1.2,34.5,40.3,40,64,23v15.5c-12.5,8-30.8,9.3-45,6-53-12-46.7-110.9,17.3-102.3,27.7,3.7,40.2,32.6,36.8,57.7ZM464,95c-.9-41.5-56-41.6-57,0h57Z"></path>   <path class="st0" d="M1137,108h-73c1.2,34.5,40.3,40,64,23v15.5c-12.5,8-30.8,9.3-45,6-53-12-46.7-110.9,17.3-102.3,27.7,3.7,40.2,32.6,36.8,57.7ZM1121,95c-.9-41.5-56-41.6-57,0h57Z"></path>   <path class="st0" d="M827,154h-16V16.5c4.6-3,11-3,16-5.5v143Z"></path>   <polygon class="st0" points="518 122 506 122 506 88 518 84 518 122"></polygon>   <path class="st0" d="M785.7,66.8c-11.6-23.5-50.4-17.9-70.7-10.8v15c16.5-7.1,52.3-14.2,58.1,5.5v13c-27.7-.5-72.5-2.5-68.1,37.9,2.9,26.1,37,30.9,57.3,23.3,4.3-1.6,7.5-4.6,11.7-5.8v9h15v-77.5c0-1.5-2.4-7.9-3.3-9.7ZM773,128.5c-11.2,15.7-54,17.6-51.9-7.9.4-5.6,4.3-11.2,9.2-13.8,2.4-1.3,11.8-3.8,14.2-3.8h28.5v25.5Z"></path>   <path class="st0" d="M923.4,66.8c-11.6-23.5-50.4-17.9-70.7-10.8v15c16.5-7.1,52.3-14.2,58.1,5.5v13c-27.7-.5-72.5-2.5-68.1,37.9,2.9,26.1,37,30.9,57.3,23.3,4.3-1.6,7.5-4.6,11.7-5.8v9h15v-77.5c0-1.5-2.4-7.9-3.3-9.7ZM910.6,128.5c-11.2,15.7-54,17.6-51.9-7.9.4-5.6,4.3-11.2,9.2-13.8,2.4-1.3,11.8-3.8,14.2-3.8h28.5v25.5Z"></path>   <path class="st0" d="M265.5,50c-10.3.9-17.3,5.7-25,12l-.5-10h-15v102h15v-70.5s4.6-21.4,32.5-18.7c.4,0,.8,0,1.2.1,0,0,.1,0,.2,0,2.1.2,4.1.6,6.1,1v-14.5c-3.2-2.4-10.5-1.9-14.5-1.5Z"></path>   <path class="st0" d="M686.8,71.7c-11.3-27.4-48.9-28.1-67.3-7.8-10.9-14.1-30.5-17.9-46.5-10.5-3.6,1.7-7.5,4.4-9,5.5v-7h-16v102h16v-71.9s-.4-16.7,21.2-18.3h1.2c.6-.1,1.3-.1,1.9-.1,0,0,0,0,0,0,0,0,17.1-1.6,22.3,17,.3.8.4,1.4.4,1.7v71.5h16v-70.5c0-2,2.8-8.9,4.2-10.8,7.5-11.2,28.8-12.1,37.4-1.7,2,2.4,6.5,11.9,6.5,14.5v68.5h16v-65.5c0-3.4-2.8-13.3-4.2-16.8Z"></path> </svg>