<svg xmlns="http://www.w3.org/2000/svg" viewBox="0 0 604.21 324.52" xml:space="preserve"><path fill="#fff" d="M113.79 273.97c-1.62 4.05-4.24 7.7-5.73 11.78-.73 2-1.72 2.29-3.36 2.92-6.14 3-12.72 4.97-19.5 5.84-3.91.17-7.82.42-11.73.6-1.28.06-2.58-.09-3.84.07a4.97 4.97 0 0 1-6.02-3.14 4.084 4.084 0 0 1 1.32-5.61c.23-.14.47-.26.72-.35 5.7-3.25 11.42-6.42 17.09-9.7 4.57-2.64 9.08-5.38 13.6-8.12 5.72-3.44 11.42-6.9 17.12-10.38.54-.34 1.08-.71 1.62-1.08.65-.41 1.31-.8 1.97-1.19.23-.14.52-.07.66.16.01.02.03.05.04.07l1.03 2.52c.04.11.04.23 0 .35-1.62 5.05-3.04 10.25-5.02 15.24m101.74-115.5c.08-1.58.15-3.14.23-4.73a.49.49 0 0 1 .59-.46l.96.22c.26.06.52-.1.59-.36 0-.02.01-.04.01-.06.21-2.77-.29-6.03 1.08-7.49 3.13-3.25 3.08-7.88 6.2-11.2 2.14-3.08 3.72-6.52 4.66-10.15.1-.25-.02-.53-.27-.63-.06-.02-.12-.04-.19-.03-2.17.05-3.45-1.14-4.12-3.61-1.72-6.32-2.45-6.65-8.22-3.97-.54.26-1.41-.17-2.1-.09-1.26.16-3.01 0-3.68.78-3.39 3.42-6.39 7.2-8.95 11.27-3.25 5.91-6.15 12.03-9.08 18.13v.05c-3.73 10.78-8.27 22.75-12.33 34.66-.02.07-.06.13-.11.18l-4.22 4.37c-.08.09-.13.2-.14.32 0 .46-.08 1.66-.4 1.72-4.51.96-5.47 4.37-5.99 8.32-.04.27-.28.45-.55.42l-.12-.03-1.81-.77a.48.48 0 0 0-.61.19c-.37.75-.84 1.44-1.41 2.05-2.05 1.79-4.13 3.56-6.34 5.15-1.27.92-3.36 2.46-4.12 2.03-2.35-1.33-5.06-2.9-4.63-6.45a.52.52 0 0 1 .47-.43l1.82-.14c.27-.02.47-.25.45-.52 0-.03-.01-.05-.01-.08-.49-2.12-.94-4.04-1.32-5.7-.03-.16.01-.32.12-.43l4.98-5.09c.32-.01.62-.13.85-.35-.88-2.71-1.52-4.44-2.26-6.71-.07-.24.05-.49.28-.59 1.8-.77 3.28-1.81 3.13-2.47-.84-3.6-2.17-7.08-3.28-10.53a.44.44 0 0 1 .09-.45l4.44-5.17c.12-.14.15-.33.1-.5a33.8 33.8 0 0 0-11.37-14.04.495.495 0 0 0-.61 0c-1.87 1.46-3.47 3.44-5.32 3.71-3.9.54-4.3.45-3.08 3.97.09.26-.05.54-.3.63-.02.01-.04.01-.06.02-.88.15-1.9.22-2.19.72-1.51 2.55-3.93 4.64-5.51 7.16a5.28 5.28 0 0 0-1.67 4.39c.05.36.14.74.21 1.08q0 .63.09 1.26c.55 2.47-.92 4.94-3.35 5.64a.48.48 0 0 0-.31.4c-.05.54-.16 1.84-.29 3.54-.01.14-.07.26-.18.35-2.43 1.99-4.86 4-7.29 6.01-.03.02-.06.04-.1.06-1.96.97-3.93 1.92-5.91 2.75-2.76 1.16-5.68 2.12-8.5 3.05l-.24.08c-1.36.45-2.71.9-4.08 1.38-1.22.43-2.44.9-3.65 1.38-2.31.98-4.7 1.77-7.14 2.37-2.33.45-4.68.75-7.04.91-1.96.17-4.19.37-6.34.75-6.45.97-12.99 1.26-19.5.86-3.83-.44-7.5-1.79-10.7-3.94-1.25-.69-2.49-1.39-3.75-2a15 15 0 0 1-6.93-7.3c-.2-.56-.37-1.12-.5-1.7-.38-2.2-1.47-4.2-3.11-5.71a.46.46 0 0 1-.17-.28l-.83-4.7a.4.4 0 0 1 0-.16l.68-4.13.79-6.25a.484.484 0 0 0-.42-.54.55.55 0 0 0-.33.07l-3.47 2.28c-.23.13-.53.05-.66-.19a.6.6 0 0 1-.06-.19l-.04-3.04c0-.23.15-.42.37-.47.7-.17 1.36-.49 1.94-.92a7.41 7.41 0 0 0 2.6-5.67c.24-2.88.44-5.76.64-8.67l.09-1.14.26.36 2.33-3.55a7.35 7.35 0 0 0 1.74-6.63 4.3 4.3 0 0 0-.68-1.19l3.34-1.87a.93.93 0 0 0 .5-1.13l-2.01-4.47c.34-.13.66-.32.95-.54 1.79-1.41 1.62-3.69 1.5-6.1 0-.37-.06-.76-.11-1.15-.07-.43-.1-.86-.08-1.29.11-.39.24-.76.41-1.13.37.17.75.33 1.14.46l2.35.68c.61.29 1.35.03 1.64-.58.11-.23.15-.49.1-.75l-.35-2.64c-.33-1.41-.14-2.9.54-4.18.1-.14.27-.22.44-.2l1.21.12c.21.02.4-.09.49-.28l.72-1.57c.29-.61.62-1.21.97-1.78.69-1.05 1.22-2.2 1.59-3.4.06-.26.32-.43.58-.37l.09.03.83.36c.21.09.46.02.59-.17l1.12-1.66c.89-1.55 1.36-3.29 1.39-5.08.03-.32.1-1.18.2-1.62l1.08.09c.14.01.28-.04.38-.15l18.14-18.63c.19-.19.49-.19.68-.01l.01.01 1 1.01a.49.49 0 0 0 .77-.1l1.57-2.8c.31-.54.58-1.08.83-1.62.24-.57.55-1.1.92-1.6q.84-.72 1.8-1.26c.77-.45 1.52-.95 2.22-1.51 1.64-1.42 3.13-2.99 4.47-4.7.92-1.15 1.91-2.24 2.95-3.28 4.78-4.53 10.21-8.3 16.12-11.2 3.34-1.66 6.63-3.48 9.83-5.25 4.21-2.34 8.57-4.76 12.97-6.73l1.27-.57c2.96-1.46 6.07-2.62 9.26-3.47a55.5 55.5 0 0 1 23.58.08c2.98.74 5.23 3.2 5.68 6.24.23 8.76-3.69 17.11-10.56 22.54-1.31 1.08-2.71 2.09-4.09 3.1a34.1 34.1 0 0 0-11.96 12.46c-.65 1.06-1.46 2.01-2.4 2.83a8.39 8.39 0 0 0-2.74 11.24l.25.41 3.25 1.95c1.18.66 2.12 1.18 3.04 1.73a10.23 10.23 0 0 0 12.18-2.29c5.62-4.33 11.04-9.03 16.29-13.58l3.89-3.36c.54-.47 1.08-.92 1.77-1.47 2.93-2.07 5.38-4.75 7.19-7.84.09-.19.33 0 .49 0h1.87c.21 0 .4-.13.47-.34l1.4-4.37v-.06l.58-3.25v-.06l4.33-13.5a.486.486 0 0 1 .77-.22c.54.44 1.34.35 1.77-.2.13-.16.21-.34.25-.54l1.33-6.68a.49.49 0 0 1 .44-.39l1.92-.14c.27-.02.47-.25.45-.52 0-.03-.01-.05-.01-.08l-.68-2.78c-.33-2.7-1.26-5.28-2.71-7.58a.45.45 0 0 1-.12-.21 27.2 27.2 0 0 0-12.83-16.72 33.7 33.7 0 0 0-12.7-5.58c-6.17-.96-12.47-.83-18.59.41-8.08 1.8-16.08 4.33-23.83 6.79-2.14.68-4.28 1.35-6.42 2.02-2.08.72-4.07 1.65-5.96 2.78l-1.03.54c-1.87 1.02-3.73 2.1-5.62 3.19-3.43 2.08-6.98 3.97-10.62 5.67l-1.57.69c-6.8 2.1-12.63 6.56-16.45 12.57-.03.07-.09.13-.16.17-.33.18-.96.45-1.2.54-.54.24-1.12.49-1.62.76-.3.16-.62.31-1.05.49-1.18.44-2.27 1.11-3.21 1.96-1.89 1.87-3.69 3.79-5.57 5.79-2.01 2.13-4.08 4.33-6.21 6.42-1.77 1.73-3.67 3.41-5.63 5.14-2.28 2.01-4.64 4.09-6.85 6.35a48 48 0 0 0-4.01 4.87 25.2 25.2 0 0 1-5.37 5.83 51.9 51.9 0 0 0-14.54 17.31c-.89 1.46-1.79 2.92-2.71 4.33-5.03 7.65-9.5 15.66-13.38 23.96-3.55 8.12-6.57 16.47-9.06 24.97-.98 3.4-1.72 6.87-2.23 10.37-.27 1.56-.54 3.11-.83 4.66a64.2 64.2 0 0 0 .96 30.82 58.63 58.63 0 0 0 17.07 25.04c1.15.98 2.57 1.59 4.07 1.75.13.02.24.1.31.21.34.57.77 1.08 1.26 1.53 3.77 2.94 8.21 4.91 12.92 5.74l1.32.34a73.5 73.5 0 0 0 19.81 2.17c2.41-.03 4.92-.16 7.55-.37.88-.08 1.72-.42 2.41-.97.09-.06.19-.1.3-.09 20.72.99 37.62-7.58 54-15.82l1.95-.97c.24-.12.53-.02.65.22.04.08.06.18.05.27-.47 4.51-.93 8.89-1.44 13.24a4.81 4.81 0 0 1-3.35 4.7c-2.9.74-5.53 2.27-7.61 4.42-3.24 3.55-7.2 6.37-11.63 8.25-6.08 3.91-12.41 7.42-18.96 10.49-7.18 3.39-14.05 7.41-20.53 12-3.69 2.29-6.5 6.37-10.42 7.78-5.02 1.83-6.21 6.07-8.32 9.64-2.73 5.07-5.19 10.28-7.39 15.6-.4.8-.67 1.66-.79 2.54a24.54 24.54 0 0 0 7.18 21.29c3.5 3.47 5.38 4.33 9.66 2.62.25-.09.53.03.63.29.03.08.04.17.02.25-.2 1.71.57 2.49 2.79 2.3 3.68-.31 7.45.15 11.06-.48 7.9-1.36 16.2-.1 23.72-4.28 4.44-2.46 9.61-3.56 14.22-5.77 2.79-1.49 5.37-3.35 7.67-5.53a49 49 0 0 0 7.85-8c1.87-2.64 5.91-3.46 6.15-7.29a3.83 3.83 0 0 1 3.48-4.15c.06 0 .11-.01.17-.01 1.05-.2 2.71-3.17 2.37-3.64-1.42-1.98-.07-2.81.88-4.01 1.26-1.58 2.45-3.22 4.02-5.31a.483.483 0 0 0-.4-.77l-3.34.05c-.27 0-.49-.22-.49-.48v-.06c.12-.8.23-1.55.38-2.53a.488.488 0 0 1 .92-.15l.54 1.03c.13.24.42.33.67.21.03-.01.05-.03.07-.05l3.48-2.66a.49.49 0 0 0 .17-.54c-.25-.82-.48-1.62-.64-2.13a.47.47 0 0 1 .32-.59c.03-.01.06-.01.08-.02 1.71-.09 3.41-.39 5.05-.89.43-.17-.03-2.33.13-3.55.1-1.08.41-2.12.91-3.08 2.32-4.04 2.35-5.75-2.25-5.96a.5.5 0 0 1-.47-.52c0-.03.01-.07.02-.1.54-1.95.97-1.9 1.47-3.79.06-.26.32-.42.58-.36.14.03.26.13.33.26.13.38.29.76.47 1.13.2.44.88 1.05 1.32 1.02.43-.03 1.34-.67 1.36-1.08.1-2.13 0-4.27-.03-6.88a.5.5 0 0 1 .29-.48c1.03-.4 1.28-1.47.76-3.66-.34-1.46-.74-3.6 0-4.5 2.42-2.93 5.14-5.59 8.12-7.93 4.71-3.69 9.65-7.08 14.48-10.62-.1.54-.25 1.12-.34 1.68-.86 5.13-1.27 10.34-1.85 15.52a24.3 24.3 0 0 0 5.51 17.24c.17.22.48.25.7.08.03-.02.06-.05.08-.08l2.33-2.82a.49.49 0 0 1 .85.19c.97 3.52 4.5 2.5 5.77 1.75 3.08-2.13 5.85-4.68 8.23-7.58 2.4-2.57 4.47-5.45 6.79-8.12.63-.6 1.35-1.11 2.12-1.51.22-.13.51-.07.66.14l.61.88c.16.22.46.27.68.11.1-.07.17-.18.19-.29l3.07-14.08c.54.2.41-4.72.18-5.49-1.33-4.57-5.2-7.97-5.06-13.41.08-3.15.88-3.82 3.04-4.01.27-.02.47-.25.45-.52V196c-.11-1.02-.08-2.17-.65-2.77-2.33-2.42-4.58-4.62-1.34-7.91.17-.17.21-.47.47-1.11.14-.54.82 1.41 1.52.2-.13-2.36-.05-4.73.25-7.07.97-3.83 4.7-6.85 4.33-11.41 0-.28.4-.59.51-.75.43-.45.07-2.38.74-1.98.23.13.53.05.67-.18.06-.11.08-.24.05-.36-.63-2.17-.28-.98-.82-2.82-.08-.26.07-.54.33-.61.03-.01.05-.01.08-.02l3.14-.36c.24-.03.42-.22.44-.47m124.42-77.95c2.41 1.94 4.13 4.62 4.87 7.63.01.24.16.45.38.54 1.84.83 5.92 2.71 6.85 6.29.17.57.77.9 1.35.73.01 0 .02-.01.03-.01 4.06-.51 8.19.13 11.92 1.83 2.74.41 5.52.53 8.28.36.19 0 .39-.29.72-.54s.08-2.08.11-3.18c5.63.73 2.86-1.2 6.95-3.44 1.05-.51 2.14-.94 3.25-1.31.41-.15.61-.61.46-1.01-.01-.02-.02-.05-.03-.07-1.75-3.21-3.68-6.73-5.62-10.25-.05-.09-.23-.1-.34-.18a51.5 51.5 0 0 1-8.83-6.32c-6.78-7.37-13.03-15.21-19.74-22.65-1.08-1.18-3.4-1.33-5.21-1.7-.94-.19-2.08.54-2.98.28-4.26-1.13-2.59-1.05-3.59 1.59-.87 2.29-2 5-5.34 5.34-.95.41-1.62 1.29-1.78 2.32.06 4.62-2.41 9.46 1.21 13.83 2.57 3.1 3.04 7.4 7.04 9.95M237.78 93.08c.22.08.47.03.63-.14.74-.73 2.04-1.7 2.17-2.8.43-3.57 1.9-3.25 4.19-1.53.28.2.67.14.87-.14.04-.06.07-.12.09-.19.34-1.28.49-2.6.44-3.92.03-.34.33-.59.67-.56.23.02.43.17.52.38.38.81 1.02 1.13 2.47.16.87-.58 1.18-1.99 1.68-3.48.11-.33.46-.51.79-.4q.18.06.3.21c.6.72.82 1.9 1.47 1.78 1.54-.29 1.68-3.61 1.83-4.46.55-3.14-.85-6.31-3.55-8.01-1.77-1.62-.34-.88-1.85-2.89a.62.62 0 0 1 .11-.87c.08-.06.18-.1.28-.12.89-.15.24 0 1.13-.12.34-.05.57-.37.51-.71a.62.62 0 0 0-.32-.45c-1.22-.66-1.93-.92-2.38-1.73.04-.19.81-.2 1.55-.21a.63.63 0 0 0 .61-.63.63.63 0 0 0-.11-.35 9.4 9.4 0 0 1-1.48-2.39 4.47 4.47 0 0 0-5.07-3.77c-.85.13-1.65.5-2.3 1.07-2.04-.12-4.06-.48-6.01-1.08-2.25-.69-4.64.57-5.33 2.82-.07.23-.12.46-.15.7-.4.94-.94 1.83-1.59 2.62-2.66 4.44-7.08 7.47-8.89 12.75a10.346 10.346 0 0 0 2.07 12.76c.07.08.16.14.26.18 4.53 1.66 10.8 4.16 14.41 5.49"/><path fill="#fff" d="M518.94 173.19c2.12-.71 2.81-6.41.91-9.64a.28.28 0 0 1 .1-.39q.045-.03.09-.03l3.25-.64c.13-.02.22-.13.23-.25.08-.89.17-1.86.24-2.67.01-.12.09-.22.21-.24 1.19-.25 2.83-.28 3.02-.81.59-2.05 1.01-4.14 1.25-6.26a.28.28 0 0 0-.12-.28l-.99-.64 5.81-.99c.16-.03.26-.18.24-.34a.3.3 0 0 0-.04-.1l-2.33-3.4a.3.3 0 0 1 .08-.41c.04-.03.09-.05.14-.05l6.86-.44c.16-.01.3.11.31.26v.03c-.3 13.41-10.83 30.22-18.05 31.19-.11 0-.17-.08-.28-.12-1.2-.49-4.63-5.42-3.29-5.13 1.32.81 1.36.87 2.12 1.34.07.03.16.04.24.01m-83.57 1.35a.27.27 0 0 1-.38-.03.27.27 0 0 1-.06-.17c.05-2.99-.2-5.97-.76-8.9-2.53-7.58 1.9-11.16 1.44-18.75.44-4.37 1.54-8.65 3.25-12.69.75-2.51 1.33-5.07 1.77-7.66.73-5.32 1.05-10.7 1.93-15.99.17-1.06 2.03-1.83 3.3-2.85.04-.03.06-.07.08-.11 2.35-5.6 4.93-11.73 7.46-17.87.42-1.02.45-2.2.87-3.25.52-1.09 1.11-2.13 1.78-3.14.39-.66 1.27-1.39 1.16-1.93-1.08-5.09 3.76-8.03 4.5-12.56.19-1.2.27-1.39 2.04-2.53.85-.54 1.48-2.05 1.14-2.5-.21-.29-.5-.52-.83-.65a.29.29 0 0 1-.21-.36c.01-.03.02-.07.05-.1 6.75-7.25 12.4-15.45 16.76-24.34.26-.7 1.04-1.06 1.74-.8.02.01.04.02.06.02l.85.36c.57.23 1.22-.03 1.47-.6 1.12-2.28 5.06-3.01 3.68-6.31a.3.3 0 0 1 .16-.4c.01 0 .01-.01.02-.01l3.93-1.28c.15-.05.32.03.37.18 1.46 3.94 2.97 8.01 4.45 12.09.07.38.05.78-.05 1.15-.47 7.67-1.48 15.31-3.02 22.84-2.29 7.65-5.19 15.1-8.67 22.28q-5.04 11.175-10.68 22.08c-7.52 14.5-15.13 28.96-23.03 43.26a167 167 0 0 1-9.99 15.62 21.9 21.9 0 0 1-6.61 5.88m-166.1 51.04c-.06.1-.17.16-.29.15a22.17 22.17 0 0 1-16.51-8.09c-1.81-2.41-4.33-4.27-6.28-6.6-2.29-2.71-1.62-5.54 1.72-6.35 6.7-1.62 13.64-2.2 20.41-3.44.96-.08 1.93-.08 2.9 0 .07 0 .13-.02.18-.07l1.31-1.08c.58 2.03 1.05 4.09 1.41 6.16.57 6.81-1.14 13.6-4.85 19.32m80.89-70.28c1.68-1.73 2.99-3.78 3.87-6.02.07-.13.24-.18.38-.11.04.02.08.06.11.11.18.32.94 0 1.31-.22.24-.21.3-.74.25-1.72-.16-2.71.57-3.91 3.71-3.79 1.38.06 2.84-1.67 4.33-2.75.12-.09.29-.06.39.05 2.31 2.89 1.97 7.08-.77 9.55-4.21 3.96-6.55 10.72-14 10.96-.14 0-.26-.09-.29-.22-.5-2.02-2.12-3.72.74-5.86m253.98 36.8c-2.97-4.72-2.81-9.37-5-13.19-.97-.13-1.94-.16-2.91-.08-1.53 1.08-3.08 2.71-3.66 2.41-3.01-1.54-3.25.66-4.01 2.4-.25.73-.67 1.39-1.23 1.92a78 78 0 0 0-11.92 9.21c-3.49 3.99-8.21 3.93-12.35 5.34-4.36.74-8.75 1.25-13.16 1.52a58.7 58.7 0 0 1-21.91.41c-2.66-.3-5.34-.41-8.02-.34-.18-.74-.16-.65-.35-1.39l15.51-8.47q.075-.045.12-.12c.85-1.62 1.22-3.99 3.3-3.02.12.05.26.04.36-.04l10.64-8.95c.11-.09.14-.25.07-.37l-1.28-2.46a.286.286 0 0 1 .11-.38q.09-.045.18-.03c4.6.92 5.31-4.28 8.76-4.93.18-.04.31-.21.29-.39-.15-1.15-1.97-.93-.3-2.35 1.05-.88.79 0 1.19.67.29.48.1.19 1.47.14.29 0 .44.32.54.05 2.14-4.39 3.81-9 4.98-13.74a58.5 58.5 0 0 0 1.66-18.45c-.27-1.2-.78-2.34-1.51-3.34-3.18 1.01-2.43-1.93-3.1-3.13-1.32-2.35-1.51-5.57-5.32-5.58-.49 0-.96-.83-1.46-1.24a27.7 27.7 0 0 0-4.87-3.75c-1.05-.51-2.65.27-4 .19-9.41-.54-18.08.82-24.47 8.78-1.84 2.64-4.05 5-6.56 7a66.4 66.4 0 0 0-17.99 20.68 64.8 64.8 0 0 0-9.21 24.53v.03c-.21 3.62-.5 7.24-.68 10.83 0 .09-.05.17-.13.22a70.7 70.7 0 0 1-22.56 7.96c-5.71.18-11.25-2.02-15.27-6.08a.3.3 0 0 1-.05-.42l.01-.01c1.84-2.1 4.67-3.25 6.27-5.24s3.14-3.98 4.56-5.77c.27-.05.24.29.58.05 2.54-4.68 5.46-9.15 8.74-13.35 2.26-2.55 3.5-4.67 2.64-7.32-.05-.15.02-.32.18-.37.04-.01.08-.02.12-.02l3.53.32c.18.02.35-.12.36-.31V162c-.37-1.23-.56-2.51-.58-3.79.05-.54 1.31-1.75 1.95-1.52.25.29.44.7.76.87.48.29-.16-2.46.06-2.49.13-.29.29-.23.47-.1.22.15.52.12.7-.08.88-.8 1.65-1.71 2.3-2.71 1.46-2.71 2-6.41 4.17-8.07 4.14-3.17 3.44-6.45 2.08-10.29-.05-.16.22-.43.43-.84l2.2 1.62c.16.11.37.08.48-.08.01-.01.01-.01.01-.02 1.38-2.39 2.74-4.54 3.85-6.82 1.74-3.57 4.8-6.67 4.02-11.24-.1-.54 1.42-1.38 2.71-2.52.04-.04.07-.1.06-.16-.04-.38-.24-1.78.15-1.97 3.83-1.87 1.08-5.19 1.88-7.68.1-.33.17-.67.27-1.05l2.01.79c.16.06.34-.01.42-.16 2.03-4.1 3.93-7.82 5.7-11.59 3.21-5.06 5.59-10.6 7.04-16.42.15-.49.4-.94.74-1.32 1.08-1.54 2.86-2.96 3.1-4.62.87-5.99 1.23-12.05 1.78-18.15.71.76 1.08.54 1.44.67.64-.14.64-.54.64-1.01.06-5.96.36-11.98-.03-17.93-.25-4-1.08-7.94-2.46-11.7-1.34-3.54-4.03-6.55-5.61-10.03-2.25-4.92-6.7-8.48-11.99-9.58a67.2 67.2 0 0 0-19.47.38 8.25 8.25 0 0 0-5.42 3.54c-2.37 3.92-6.46 5.78-9.4 8.97s-6.5 5.66-9.18 8.94a717 717 0 0 0-20.2 25.75c-2.94 4.12-5.63 8.41-8.06 12.85-2.61 4.54-5.08 9.16-7.4 13.87-3.05 6.14-6.26 12.23-8.77 18.58-2.96 7.46-5.08 15.28-7.45 22.95-1.31 4.21-2.51 8.46-3.55 12.75l-.46 1.91-.49 2.33a97.5 97.5 0 0 0-3.21 23.47 61 61 0 0 1-.83 8.84 30.15 30.15 0 0 0 1.66 16.25c.14.71.2 1.44.18 2.17.21 1.72.25 3.49.54 5.19.02.09-.03.19-.11.24a42.3 42.3 0 0 1-16.11 5.59c-1.13-.1-2.27-.02-3.37.25a76.7 76.7 0 0 1-16.3 4.45c-9.09.38-18.37-.51-25.03-8.24-.57-.96-.97-2-1.18-3.1a.3.3 0 0 1 .15-.37c6.08-2.96 11.99-5.59 17.65-8.67 5.61-3 10.53-7.16 14.43-12.19.54-.48 1.23-.76 1.96-.8 1.59-.25 3.69.17 2.71-2.71 1.04-.64 2.13-1.2 3.25-1.68.04-.02.07-.05.08-.1.15-.83.46-2.53.82-4.52.03-.15.18-.25.33-.23.05.01.09.03.13.06l1.48 1.29c.13.11.34.1.45-.03q.045-.045.06-.12l2.04-7.04c.05-.17.22-.26.39-.22.02 0 .03.01.05.02l2 .99c.14.07.31.01.37-.13l1.89-4.01h1.03c.05 0 .17-.03.18-.17 1.5-5.33 2.34-10.83 2.5-16.36 0-.38-.09-.75-.28-1.08-2.29-4.17-4.15-7.58-6.05-10.99-.28-.59-.72-1.08-1.28-1.42a34.69 34.69 0 0 0-32.61-1.59q-2.13 1.32-4.11 2.85c-4.5 2.99-8.81 6.25-12.92 9.75-4.33 4.08-7.84 9.02-11.92 13.37a55.1 55.1 0 0 0-12.66 23.37c-.45 2.83-1.71 5.46-3.63 7.58l-.07.04c-5.86 2.2-12.46.4-16.4-4.46a38.08 38.08 0 0 0-18.24-18.96c-.58-.29-1.12-.65-1.6-1.08-2.36-1.87-4.59-3.92-7.08-5.6-3.29-2.21-6.74-4.17-11.02-6.75a.283.283 0 0 1-.1-.4c.05-.08.12-.13.21-.14.96-.15 1.91-.34 2.85-.6.27-.06.5-.23.64-.47.24-.55.45-1.1.63-1.67.09-.2.25-.36.44-.44 7.2-2.95 14.55-5.5 22.03-7.62a242 242 0 0 1 24.44-3.35c.13-.02.23-.13.23-.26l.05-2.35a.293.293 0 0 1 .47-.23c1.7 1.21 3.38 2.41 4.22-.74 0-.08.7.08 1.06 0 .72-.13 1.44-.3 2.17-.47.16-.04.26-.19.22-.35a.2.2 0 0 0-.05-.1c-.38-.54.06-.54-.54-1.33-.1-.13-.07-.31.05-.4a.36.36 0 0 1 .2-.06c2.23.2 3.54-.15 6.09.08.19.01.35-.13.37-.31 0-.04 0-.07-.01-.11a30.46 30.46 0 0 0-10.37-15.61 2.25 2.25 0 0 0-1.47-.38c-4.19.23-8.38.75-12.57.74a40.04 40.04 0 0 0-20.28 5.28c-1.8 1.02-4.36.61-6.45 1.26-1.08.34-1.95 1.52-3.08 2.48-.03.02-.05.04-.09.05-3.19.66-6.28 1.71-9.21 3.12a97.3 97.3 0 0 0-19.97 19 24.47 24.47 0 0 0-7.04 15.89c.1 2.4.61 4.77 1.48 7 .65 1.37 1.46 2.66 2.43 3.83.05.08.14.14.24.15 2.6.69 4.57 2.81 5.06 5.45.04.16.28.25.54.12l.15-.25c.1-.27 2.4 0 2.48.43l-.06.67c-.01.15.1.29.25.31.07.01.13-.01.19-.05 2.05-1.41 3.22-1.5 4.52 1.25.73 1.54 2.31 5.52 5.9 2.75.34-.26.62.11.54.44-.14.54-.11.71-.18.97-.03.1.01.22.1.28l8.09 5.49c.14.08.19.26.11.4-.04.08-.12.13-.21.14-6.52 1.11-12.97 2.62-19.3 4.52-5.69 2.02-12.15 2.95-16 8.88a65.3 65.3 0 0 1-8.55 9.57 17.73 17.73 0 0 0-5.62 15.98c1.3 4.91 3.32 9.59 5.99 13.91 1.44 2.25 3.26 4.24 5.37 5.88 2.31 1.51 4.5 3.2 6.54 5.05a25.63 25.63 0 0 0 18.32 8.47 40.74 40.74 0 0 0 28.84-7.89 33 33 0 0 0 3.97-3.62c.1-.1.26-.1.36 0 .01.01.02.02.02.03.27.37.71 1 1.05.94.88-.19 1.65-.73 2.13-1.49 1.02-1.83 1.81-3.79 2.66-5.68.07-.17.27-.26.45-.18.04.01.07.03.1.06l2.33 1.79c.13.1.32.07.42-.06.04-.05.06-.12.06-.19-.07-1.85-.12-3.37-.18-5.05 0-.18.13-.32.31-.33.04 0 .08.01.12.02l1.83.67c.15.05.31-.02.37-.16l.94-2.17c.13-.29.13-.63 0-.92-.8-1.83-.86-1.72-1.62-3.5-.1-.24-.14-.5-.13-.75.03-.59.28-1.14.71-1.54.14-.06.31.01.37.15l1.67 3.99c.07.16.26.22.42.15q.105-.045.15-.15c.81-1.68 1.54-3.4 2.17-5.15 1.22-3.79 3.79-7.53 2.24-11.7a8.87 8.87 0 0 1 3.15-10.18c.07-.07.16-.1.25-.09 1.87.29 3.78.06 5.52-.68 2.17 1.39 2.97 6.42 3.79 8.81.99 2.98 1.62 6.26 4.77 6.59.13.01.24.09.3.21l1.97 3.93c.26.54.9.77 1.44.51l.06-.03c1.88-.98 1.97-.62 3.4 1.58 1.86 2.87 3.5 6.28 8.03 5.36.66-.03 1.32.17 1.85.57 4.43 2.33 9.43 3.39 14.42 3.05 9.67.84 19.42.31 28.95-1.58 12.3-2.93 24.4-6.65 36.22-11.14.69-.3 1.62-.74 2.74-1.25.12-.06.27-.03.36.06.65.65 1.31 1.3 1.98 1.94.05.05.11.08.18.08 1.02.09 2.02.38 2.94.83 1.7.83 3.25 1.98 4.98 2.74 2.88 1.26 5.87.6 9.07 1.62a68.2 68.2 0 0 0 28.77 2.75 59.2 59.2 0 0 0 23.67-8.67l.15.19c1.58 1.88 3.46 3.47 5.57 4.72.14.05.21.2.16.34-.25.66.3.95.97 1.53.19.16 1.12-.11 1.42-.1 1.8.1 3.07 1.93 5.1 2.8 1.63 1 3.39 1.77 5.24 2.28 9.84 1.19 19.79 1.31 29.65.34a81.4 81.4 0 0 0 32.67-8.95c3.96-2.1 8.12-3.79 12.43-5.03 2.47-.8 3.54-1.87 3-4.08-.2-.78.27-1.58 1.05-1.78.03-.01.06-.02.09-.02l4.05-.74c.15-.02.29.07.33.22.22.9.27.61.58.82.68.63 1.08-2.11 1.73-4.44.13-.47.62-.75 1.09-.61.15.04.29.13.4.24l1.3 1.36c.11.12.3.12.41.01.04-.04.07-.08.08-.14.46-1.73-.26-3.79 1.98-4.2.16-.02.27-.17.25-.33v-.01c-.18-1.06-.48-2.1-.9-3.08-.2-.49.49-2.42 1.52-2.51.33-.03.81-.65 1.21-.67.18-.01.31-.16.3-.33 0-.05-.02-.1-.04-.15"/></svg>