<svg xmlns="http://www.w3.org/2000/svg" version="1.1" viewBox="0 0 1675.6 393">   <defs>     <style>       .cls-1 {         fill: #fff;       }     </style>   </defs>   <!-- Generator: Adobe Illustrator 28.6.0, SVG Export Plug-In . SVG Version: 1.2.0 Build 709)  -->   <g>     <g id="Layer_1">       <path class="cls-1" d="M30.1,313.4c.3-1.1,1-2.3.9-3.4-.7-20.3,3.1-40.3,4.1-60.5.6-11.7.6-23.4.6-35.1,0-13.7-.8-27.5-.7-41.2,0-8.3,1.8-16.7,1.5-25-.4-13.2-2.1-26.3-2.7-39.5-.2-5.4,1.3-10.8,1.7-16.3.4-5.6,1-11.2.2-16.7-1-6.6,3.2-13.3,9.8-13.9,5.5-.5,11-1.3,16.5-1.7,5.2-.4,9.4,1.6,12.7,5.8,1,1.3,2.9,1.8,4.2,2.9,1.4,1.1,3.5,2.2,3.8,3.6,2,8.7,1.4,17.5,0,26.3-.4,2.5-.7,5-.8,7.6-.4,21.2-.6,42.4-.9,63.6,0,.9.2,1.8.3,2.9,37.9-.8,75.6-1.6,113.8-2.5,0-4.6-.1-9.3,0-13.9.7-24.8,1.4-49.6,2.3-74.4.3-7.4,1.2-14.8,2.1-22.1.1-1,1.9-2.5,2.8-2.5,12.7.7,25.3,1.4,38,2.6,4.5.4,6.6,5,5.8,9.8-3.1,18.7-4.3,37.4-.9,56.2.5,3,.5,6.2.5,9.3.1,16.6.5,33.2.2,49.8-.3,18.1-1.4,36.1-1.9,54.2-.3,11.5-.2,22.9-.4,34.4,0,2.8-.2,5.7-.6,8.5-.6,4.2-1.7,8.3.1,12.7.9,2.1.5,4.8.3,7.2-.7,7.9-1.4,15.9-2.3,23.8-.4,3.1-1.7,5.6-5.5,5.8-12.7.5-25.4,1-38.1,1.5-.9,0-1.9,0-2.8-.1-6.3-.4-6.2-.5-6.1-6.6.1-9.4,0-18.9,0-28.3.1-12.8,0-25.6.8-38.4.5-8.5,2.6-16.8,3.3-25.3.6-7.6.1-15.3.1-23.7-36.8,1.5-74,2.9-111.4,4.4,0,5,.1,9.3,0,13.6-.7,16.6-1.5,33.2-2.1,49.7-.4,9.8-.6,19.6-.6,29.4,0,2.5.8,5,1.6,7.4,2.3,6.4-.1,10.4-6.7,11.9-6.9,1.5-13.6,3.4-20.8,1.8-.6-.1-1.4,0-2,.2-8.9,2.6-15.1-1.1-20.1-8.2-.2-.3-.6-.6-.8-.9,0-2.2,0-4.3,0-6.5Z"></path>       <path class="cls-1" d="M1569.2,343.4c-5.4-1.5-10.7-3.6-16.2-4.4-10.2-1.4-20.5-1.9-30.7-3-2.4-.3-4.8-1.1-6.9-2.3-12.1-6.5-25.4-11.3-34.1-23.1-3.7-5.1-9.1-8.8-13-13.8-6.6-8.5-6.4-24.6,0-33.2,1.1-1.5,3.4-3,5.2-3,8.9-.3,17.8-.4,26.8-.1,2.1,0,4.1,2.4,6.3,2.9,3.7.8,2.3,3.8,3,5.8,2.4,7.1,4.7,14.1,11.5,18.5,1.6,1,2.8,2.5,4.2,3.8,3.4,3.4,7.1,5.9,12.1,6.8,4.4.8,8.6,2.4,12.8,3.7,9.2,2.9,18.1,2.7,26.7-1.9,1.7-.9,3.3-1.8,5.1-2.5,10.1-4,13.8-12,14.9-22.1,1-9,2.7-17.8,4-26.8.8-5.4-1.1-8.6-5.7-11.2-2.4-1.3-5-3-6.6-5.2-4.8-6.6-12-9-19.2-11.2-11.3-3.6-22.8-6.6-34.2-9.9-7.9-2.2-15.9-4.3-23.8-6.6-3.4-1-6.6-3.1-10.5-1.8-.9.3-2.2-.7-3.3-1.2-1.2-.5-2.5-1.5-3.7-1.4-6.4.2-9.6-4.1-12.6-8.6-5-7.5-9.5-15.4-14.7-22.8-4.5-6.5-4.8-14.2-5.1-21.3-.3-11.2,1.8-22.2,5.4-33,5.7-16.8,16.6-29.4,30.2-40.2,4.2-3.4,8.1-7.3,12.5-10.3,3.9-2.7,8.3-5,12.7-6.9,9.6-4.1,19.9-6,30.1-7.5,2.9-.4,6.2.2,9.1,1.1,7.7,2.4,15.3,5.4,23,7.8,12.1,3.8,23.8,8.5,33.7,16.2,5.8,4.5,10.2,11,14.5,17.1,4.6,6.5,8.9,13.3,12.4,20.3,2.5,5.1,4,10.8,5.3,16.4,1.2,5.3-2.6,10.1-8,11-2.7.5-5.4.9-8.1.8-9-.3-18-.8-27-1.3-4.3-.2-7.3-2.4-8.5-6.7-1.3-4.7-3.7-8.4-8.4-10.7-2.4-1.2-4.5-3.5-6.2-5.7-8-10.3-30.5-18-44.7-11.1-5.7,2.8-12.2,3.8-17.3,8.2-10,8.5-14.9,18.7-12.7,31.9.6,3.5,1.1,6.9,1.8,10.4,1.3,5.8,4.6,10.3,10.2,12.1,6.8,2.2,13.8,3.6,20.8,5.2,4.6,1,9.3,1.9,13.9,2.4,3.2.4,6.6-.3,9.8,0,4.1.4,8.2,1.1,12.2,2.1,6.5,1.5,13,3.3,19.5,4.9.8.2,1.7.1,2.4.4,11.6,5,23.7,9.1,32.1,19.3,1.3,1.6,3.5,2.6,4.7,4.3,2.8,3.8,5.9,7.6,7.9,11.8,3.3,7.4,6,15,8.4,22.7.8,2.6,0,5.8,0,8.7-.2,7.7,0,15.4-.9,22.9-.7,5.3-2.3,10.9-4.9,15.6-4.7,8.3-10.5,16-15.7,24-8,12.3-20.6,18.5-33.4,24-7.4,3.2-15.3,5-23,7.5-2.2,0-4.3,0-6.5,0Z"></path>       <path class="cls-1" d="M1330.4,199.8c-1.4,14-2.2,27.3-4.3,40.5-1.7,10.8-5.5,21-13,29.7-3.2,3.7-5.5,8.4-7.6,12.8-2.7,5.8-6.9,10.1-11.8,14.2-9.7,8-19,16.4-28.5,24.6-3.1,2.7-6.1,5.3-9.1,8-5.2,4.6-11,6.8-18.2,6.4-3.7-.2-7.7,1.2-11.3,2.4-4.9,1.6-9.8,3-15.1,1.7-1.4-.3-3-.3-4.4,0-12.9,3.3-25.2,1.2-37.3-3.5-12.7-5-25.4-9.9-37.8-15.5-6.4-2.9-12.3-7.2-18.3-10.9-3.2-2-6.1-4.5-9.4-6.2-6.4-3.3-10.8-8.5-15-14-9.4-12.5-19-24.9-27.9-37.8-9-12.9-13.5-27.9-17.6-42.8-1-3.6-.2-7.8,0-11.7,0-3.2,0-6.5.6-9.7.8-4.7,1.9-9.3,3.4-13.8,1.5-4.6,3.9-8.9,5.5-13.5,3.7-10.9,9-20.7,16.7-29.3,2.9-3.2,4.6-7.5,7-11.2,1.6-2.5,3.2-5.1,5.3-7.1,6.9-6.8,13.7-13.7,21.3-19.8,10-8,20.5-15.4,31.1-22.5,11.6-7.7,25.1-11.1,38.2-15.3,3.4-1.1,7.2-1,10.9-1,11.7,0,23.6-.9,35.1.9,9,1.4,17.4,6.4,26.1,9.5,6.5,2.3,13,4.4,18.5,8.8,6.4,5.1,13.5,9.3,19.9,14.4,4.3,3.5,8.2,7.6,11.8,11.9,4.5,5.4,7.8,11.8,12.7,16.7,11.6,11.3,17,24.8,18.2,40.7,1.1,14.4,2.8,28.7,4.2,42.5ZM1283.5,180.6c.1-18.2-7.2-29.6-17.5-39.8-5.1-5.1-9.2-11.1-14-16.5-2.3-2.5-4.9-5.7-7.9-6.5-5.9-1.7-10.6-5.2-15.6-8.3-3-1.9-6.5-3.6-9.9-4.1-7.6-1.1-15.1-.3-22.8,1.2-15.7,3.1-31,7.1-46.1,12.4-11.6,4.1-20.5,11.2-27.3,21.2-9.3,13.4-16.5,27.9-20.7,43.6-3,11.3-4.5,22.8,2,33.7,1.4,2.4,2.2,5.2,3.1,7.9,2.7,8.3,6.6,15.6,13.4,21.6,4.6,4,7.7,9.6,11.6,14.5,2.4,2.9,4.6,6,7.3,8.6,4.9,4.8,10,9.4,15.3,13.8,2.8,2.4,6,4.5,9.4,6,11.9,5.6,24.6,3.9,37.1,3,2.6-.2,5.3,0,7.6-1,15-6.1,30.5-11.5,40.9-25.1,2.7-3.5,6-6.6,8.9-10,2.5-3,5.4-5.9,6.8-9.4,4.3-10,8-20.3,11.8-30.5,1.1-2.9,1-6.2,2.1-9.1,3.5-9.8,4.5-19.9,4.7-27.2Z"></path>       <path class="cls-1" d="M482.3,63.7c10.5-.5,20.8-.6,31-1.6,13.8-1.4,27.2.7,40.6,3.5,5.8,1.2,11.8,1.4,17.6,2.8,4.1,1,8.1,2.8,11.6,5,10,6.5,20.1,13.1,29.6,20.4,6.3,4.9,12,10.9,17.3,16.9,5.2,6,9.5,12.7,14.4,19,4.8,6.1,8,12.9,9.7,20.3,2.2,10.1,4.4,20.3,5.9,30.5,1.2,7.9-1.5,15.5-4,22.9-4.4,12.9-8.3,26-13.4,38.6-3.7,9-8.8,17.5-13.8,25.9-3.6,6.1-7.7,12.1-12.5,17.3-26.3,28.4-31.3,33.5-74.7,42-15.4,3-30.4.8-45.6-.5-10.9-.9-21.7-2-32.2-5.8-10.9-3.9-19.6-10.7-28.2-18-9.9-8.4-19.4-17.1-29-25.8-1.5-1.3-2.8-3-3.7-4.7-5.5-10.8-11.9-21.3-16-32.7-3.4-9.5-4.6-19.9-5.9-30-1.3-10.5.6-20.9,3-31.2.9-3.7,1.5-7.4,1.7-11.2.7-11.7,4.3-22.4,9.1-32.9,3-6.4,5.4-13.1,8.3-19.6.7-1.5,1.9-3.1,3.3-4,9-5.5,15.3-14,23-20.8,8.6-7.6,17.2-15.4,27.1-21.1,7.6-4.4,16.6-7.5,25.8-5.3ZM425.7,212.6c0,2.1-.4,5.2.1,8.2.5,3.2,1.4,6.6,3,9.4,2.9,5.3,6.4,10.2,9.9,15.2,1.2,1.7,2.6,3.7,4.3,4.6,7.9,4.3,16,8.3,24.1,12.3,1.9.9,4,1.7,6,2.2,6.9,1.6,13.9,2.7,20.8,4.5,12.1,3,24.3,6.4,36.8,4,10.6-2,20.8-5.6,31.3-8.1,6.2-1.5,10.4-5.5,14.4-9.9,8.4-9.2,13.7-20.4,18.5-31.7,3.1-7.3,6-14.6,6.4-22.8.8-18.4-2.9-35.6-10.6-52.2-3.6-7.6-8.5-13.6-15.5-18.2-4.6-3-9-6.5-12.9-10.3-14.4-14.3-14.3-14.6-32.3-16.6-5.3-.6-10.7.9-16.1,1-10,.2-19.9.4-29.8,2.4-10,2-19.2,4.6-25.1,13.8-.8,1.2-1.9,2.3-3,3.3-10.9,10.1-19.1,22.1-24,36.1-3.4,9.8-7.5,19.4-7.2,30.1.2,7.3.6,14.5,1,22.8Z"></path>       <path class="cls-1" d="M838.6,290.9c2.4-.3,4.6-.7,6.9-.8,16.5-.7,33-1.4,49.4-1.9,2.4,0,4.8.5,7.2.8,14.9,1.9,29.7,4,44.6,5.8,10.5,1.3,14.4,6.6,10.7,16.6-3.1,8.1-7.4,15.8-11.8,23.4-1,1.8-4.6,2.8-7.1,2.9-16.7.8-33.5,1.8-50.2,1.8-9.7,0-19.3-1.8-29-2.6-10.9-.9-21.8-1.6-32.8-2.3-5.9-.4-11.8-.6-17.7-.7-6.7-.1-12.2-3.4-16.1-8.1-3.1-3.8-3.2-9.4-2.2-14.3,2.1-10.6.9-21.2.6-31.8-.4-15.7.6-31.5,1.2-47.3.7-17.2,2-34.4,0-51.7-.8-7.4.5-15.1.6-22.6.1-7-.2-14-.1-21,.2-10,.5-20,.9-29.9.3-8.5.5-17,1.3-25.5.6-5.9,1.7-11.8,3.5-17.4,3-9.4,17.1-14.3,25.8-9.5,4,2.2,8.2,4.2,11.9,6.8,2,1.4,3.2,3.9,4.9,5.8,2.2,2.4.9,4.6.1,7.1-.8,2.7-1,5.5-1.2,8.3-1.3,14.8-2.2,29.5-.9,44.4,1.4,15.7.5,31.5.6,47.3,0,9,.5,18.1.5,27.1,0,21.7-.2,43.5-.5,65.2-.1,7.8-.9,15.7-1.4,24Z"></path>     </g>   </g> </svg>