<svg width="80" height="35" viewBox="0 0 80 35" fill="none" xmlns="http://www.w3.org/2000/svg"> <path d="M1.49296 0.13888V10.7632H7.22178V12.1173H0V0.13888H1.49296Z" fill="white"></path> <path d="M9.14427 12.1173H7.5645L11.7309 0.13888H13.1197L17.2861 12.1173H15.7064L14.7863 9.37442H10.0643L9.14427 12.1173ZM12.4253 2.39569L10.5331 8.02034H14.3176L12.4253 2.39569Z" fill="white"></path> <path d="M24.7349 0.13888L28.3285 7.6037L31.9046 0.13888H33.3802V12.1173H31.8873V3.33313L28.9708 9.61746H27.6341L24.7697 3.38521V12.1173H23.2767V0.13888H24.7349Z" fill="white"></path> <path d="M36.6084 12.1173H35.0286L39.195 0.13888H40.5838L44.7503 12.1173H43.1705L42.2504 9.37442H37.5285L36.6084 12.1173ZM39.8894 2.39569L37.9972 8.02034H41.7817L39.8894 2.39569Z" fill="white"></path> <path d="M48.0674 0.13888V12.1173H46.5744V0.13888H48.0674Z" fill="white"></path> <path d="M58.5939 1.96168L57.4308 2.79497C56.7885 1.96168 56.0941 1.35408 54.5838 1.35408C53.195 1.35408 52.2575 1.97904 52.2575 3.22897C52.2575 4.65249 53.3339 5.13857 55.0872 5.45105C57.3961 5.85033 58.8023 6.68362 58.8023 8.9057C58.8023 10.4681 57.7607 12.2562 54.7747 12.2562C52.8304 12.2562 51.4069 11.5965 50.5042 10.2945L51.7367 9.44386C52.5179 10.3639 53.2123 10.9021 54.7747 10.9021C56.7364 10.9021 57.3093 9.99938 57.3093 8.97514C57.3093 7.84674 56.7364 7.0829 54.4796 6.7357C52.2228 6.3885 50.7646 5.31217 50.7646 3.22897C50.7646 1.51032 51.893 0 54.6358 0C56.5455 0 57.7433 0.642322 58.5939 1.96168Z" fill="white"></path> <path d="M69.1886 6.78778C69.1886 10.6591 67.5047 12.2562 64.8486 12.2562C62.1925 12.2562 60.5086 10.6591 60.5086 6.78778V5.46841C60.5086 1.59712 62.1925 0 64.8486 0C67.5047 0 69.1886 1.59712 69.1886 5.46841V6.78778ZM62.0015 5.46841V6.78778C62.0015 9.75634 63.0084 10.9021 64.8486 10.9021C66.6887 10.9021 67.6956 9.75634 67.6956 6.78778V5.46841C67.6956 2.49985 66.6887 1.35408 64.8486 1.35408C63.0084 1.35408 62.0015 2.49985 62.0015 5.46841Z" fill="white"></path> <path d="M78.1569 0.13888H79.6499V12.1173H78.1917L73.0184 3.05537V12.1173H71.5254V0.13888H72.9489L78.1569 9.28762V0.13888Z" fill="white"></path> <path d="M1.49296 22.6512V33.2755H7.22178V34.6296H0V22.6512H1.49296Z" fill="white"></path> <path d="M9.14427 34.6296H7.5645L11.7309 22.6512H13.1197L17.2861 34.6296H15.7064L14.7863 31.8867H10.0643L9.14427 34.6296ZM12.4253 24.908L10.5331 30.5326H14.3176L12.4253 24.908Z" fill="white"></path> <path d="M17.1091 22.6512H18.7583L22.1262 32.1992L25.5461 22.6512H27.1953L22.8553 34.6296H21.4491L17.1091 22.6512Z" fill="white"></path> <path d="M28.5895 34.6296H27.0098L31.1762 22.6512H32.565L36.7314 34.6296H35.1516L34.2316 31.8867H29.5096L28.5895 34.6296ZM31.8706 24.908L29.9784 30.5326H33.7628L31.8706 24.908Z" fill="white"></path> <path d="M45.0135 22.6512H46.5065V34.6296H45.0482L39.8749 25.5677V34.6296H38.382V22.6512H39.8055L45.0135 31.7999V22.6512Z" fill="white"></path> <path d="M53.2716 34.6296H49.4524V22.6512H53.2716C55.9277 22.6512 57.6116 24.1441 57.6116 28.0154V29.2654C57.6116 33.1367 55.9277 34.6296 53.2716 34.6296ZM53.2716 33.2755C55.1118 33.2755 56.1186 32.2339 56.1186 29.2654V28.0154C56.1186 25.0469 55.1118 24.0053 53.2716 24.0053H50.9453V33.2755H53.2716Z" fill="white"></path> <path d="M59.9633 22.6512H67.1851V24.0053H61.4563V27.755H66.6643V29.1091H61.4563V33.2755H67.1851V34.6296H59.9633V22.6512Z" fill="white"></path> </svg>