<svg viewBox="0 0 815 252" fill="none" xmlns="http://www.w3.org/2000/svg"> <g clip-path="url(#clip0_1994_1565)"> <path d="M462.936 151.791C449.439 157.216 434.988 159.872 420.444 159.6C380.192 159.6 356.053 142.177 356.053 114.737C356.053 86.5819 384.049 69.9063 425.017 70.5285C437.128 70.3788 449.149 72.6311 460.385 77.1552L458.083 82.5685C447.376 78.5658 436.011 76.6133 424.581 76.813C391.39 76.813 376.117 94.0797 376.117 115.36C376.117 139.409 396.367 153.129 423.212 152.973C435.94 153.329 448.616 151.216 460.541 146.751L462.936 151.791Z" fill="white"></path> <path d="M342.455 92.3682C342.3 76.8127 325.689 71.7104 303.012 71.7104H266.492V158.137H283.632V117.693H289.853L332.75 158.137H355.707L310.104 116.168C310.104 116.168 342.611 113.337 342.455 92.3682ZM283.694 110.786V77.7771H304.598C304.598 77.7771 325.782 76.6882 325.533 93.706C325.533 102.324 317.943 110.195 304.598 110.693L283.694 110.786Z" fill="white"></path> <path d="M800.503 92.9903C798.438 93.0522 796.4 92.4966 794.652 91.3944C792.904 90.2923 791.524 88.6937 790.689 86.8031C789.854 84.9125 789.601 82.8158 789.964 80.7809C790.326 78.7461 791.287 76.8656 792.724 75.3799C794.161 73.8942 796.008 72.8708 798.029 72.4405C800.051 72.0102 802.154 72.1925 804.071 72.9642C805.989 73.7359 807.632 75.0619 808.792 76.7727C809.952 78.4834 810.575 80.5012 810.582 82.5681C810.628 83.9204 810.401 85.268 809.915 86.5307C809.429 87.7935 808.694 88.9455 807.754 89.918C806.813 90.8906 805.687 91.6638 804.441 92.1917C803.195 92.7195 801.856 92.9911 800.503 92.9903ZM800.503 70.1548C798.042 70.1548 795.637 70.8846 793.59 72.2521C791.544 73.6195 789.949 75.563 789.008 77.837C788.066 80.1109 787.82 82.613 788.3 85.027C788.78 87.441 789.965 89.6584 791.705 91.3988C793.445 93.1392 795.662 94.3244 798.076 94.8046C800.489 95.2847 802.991 95.0383 805.265 94.0964C807.539 93.1545 809.482 91.5595 810.849 89.513C812.216 87.4665 812.946 85.0605 812.946 82.5992C812.946 79.2988 811.635 76.1335 809.302 73.7997C806.968 71.4659 803.803 70.1548 800.503 70.1548Z" fill="white"></path> <path d="M736.609 151.106L736.64 115.173H773.844V108.92H736.64V77.5907H780.719V71.7729H719.687L719.625 158.044L780.719 158.106V151.106H736.609Z" fill="white"></path> <path d="M658.69 71.7729H641.768V158.106H704.261L704.292 151.635H658.659L658.69 71.7729Z" fill="white"></path> <path d="M797.857 81.6977V77.2799H800.812C802.337 77.2799 803.923 77.6221 803.923 79.3954C803.923 81.1688 802.274 81.6977 800.439 81.6977H797.857ZM806.194 79.4888C806.194 76.6888 804.545 75.4443 801.154 75.4443H795.68V89.7866H797.857V83.5643H800.377L804.172 89.7866H806.567L802.492 83.5643C803.001 83.5701 803.506 83.4699 803.974 83.2701C804.443 83.0703 804.864 82.7752 805.212 82.4036C805.561 82.032 805.828 81.592 805.997 81.1116C806.166 80.6313 806.233 80.121 806.194 79.6132" fill="white"></path> <path d="M173.481 122.889L193.296 89.5377L213.111 122.889H173.481ZM195.971 71.7422L143.463 158.107H152.204L169.593 129.64H217.217L233.953 158.044H252.213L201.633 71.7422H195.971Z" fill="white"></path> <path d="M539.113 77.9018L539.051 71.7729H477.988L478.019 158.106H539.051L539.113 151.573H494.91L494.942 115.64H532.145V109.355H494.942V77.9329L539.113 77.9018Z" fill="white"></path> <path d="M580.614 71.7729H563.691V158.075L626.216 158.106V151.449H580.676L580.614 71.7729Z" fill="white"></path> <path d="M118.297 71.7422L68.5567 138.849L18.5368 71.7422H1.92578L1.98799 158.044H12.9687V93.8933L60.4689 158.107H62.3975L113.071 90.8444V158.107H133.694V71.7422H118.297Z" fill="white"></path> <path d="M279.963 44.5197C273.029 47.2591 265.643 48.6732 258.188 48.6886C237.564 48.6886 230.658 36.773 230.658 25.6041C230.658 8.46189 244.843 2.55078 258.188 2.55078C274.892 2.55078 279.092 10.5152 280.678 13.4397L272.684 14.8397C271.346 11.3241 266.742 7.15522 258.188 7.15522C243.816 7.15522 239.524 17.173 239.524 25.6041C239.524 32.293 241.732 44.0841 258.188 44.0841C262.795 44.2094 267.382 43.4271 271.688 41.7819V28.7152H258.997V24.1419H279.963V44.5197Z" fill="white"></path> <path d="M299.499 23.1471H312.377C321.709 23.1471 324.291 19.2271 324.291 15.8049C324.291 8.40042 314.959 8.08931 311.475 8.08931H299.499V23.1471ZM291.318 3.48486H313.093C323.918 3.48486 332.441 7.2182 332.441 15.3693C332.441 23.5204 324.105 25.916 320.901 26.6938L335.956 47.756H326.189L313.124 27.7204H299.437V47.756H291.256L291.318 3.48486Z" fill="white"></path> <path d="M386.878 25.6352C386.878 17.1419 383.768 7.15522 368.059 7.15522C353.656 7.15522 349.395 17.1419 349.395 25.6352C349.395 32.2619 351.572 44.1152 368.059 44.1152C384.545 44.1152 386.878 32.2619 386.878 25.6352ZM340.498 25.6352C340.498 8.46189 354.745 2.55078 368.059 2.55078C381.372 2.55078 395.588 8.213 395.588 25.6352C395.588 36.7419 388.651 48.6886 368.059 48.6886C347.466 48.6886 340.498 36.7419 340.498 25.6352Z" fill="white"></path> <path d="M451.422 30.3337C451.422 45.0182 438.793 48.6893 428.341 48.6893C417.889 48.6893 405.229 45.0182 405.229 30.3337V3.48486H413.41V31.8271C413.41 37.8004 417.142 44.0849 428.341 44.0849C439.539 44.0849 443.241 37.8626 443.241 31.8271V3.48486H451.422V30.3337Z" fill="white"></path> <path d="M470.179 25.076H482.809C490.803 25.076 496.216 22.4626 496.216 16.6138C496.216 9.70708 488.657 8.08931 482.809 8.08931H470.179V25.076ZM461.998 3.48486H482.155C489.839 3.48486 504.459 4.60486 504.459 16.3026C504.459 27.4715 492.296 29.6804 482.902 29.6804H470.272V47.7871H462.091L461.998 3.48486Z" fill="white"></path> <path d="M512.734 3.48486H550.778V8.08931H520.915V22.5249H549.254V27.0982H520.915V43.1515H551.68V47.756H512.734V3.48486Z" fill="white"></path> <path d="M780.785 23.3335H577.439V27.8757H780.785V23.3335Z" fill="white"></path> <path d="M205.242 23.3335H1.89648V27.8757H205.242V23.3335Z" fill="white"></path> <path d="M18.8166 249.044C14.2873 248.853 10.0069 246.919 6.86951 243.647C3.73213 240.374 1.98047 236.015 1.98047 231.482C1.98047 226.948 3.73213 222.589 6.86951 219.316C10.0069 216.044 14.2873 214.11 18.8166 213.919C21.2642 213.847 23.6999 214.288 25.9663 215.215C28.2328 216.142 30.2797 217.534 31.9748 219.302L29.3618 222.133C28.0083 220.679 26.3717 219.518 24.5529 218.721C22.734 217.924 20.7713 217.507 18.7855 217.497C15.2343 217.734 11.9058 219.312 9.47429 221.911C7.04279 224.511 5.69003 227.938 5.69003 231.497C5.69003 235.057 7.04279 238.483 9.47429 241.083C11.9058 243.682 15.2343 245.26 18.7855 245.497C20.8361 245.488 22.8619 245.049 24.732 244.207C26.6021 243.366 28.2748 242.141 29.6418 240.613L32.1615 243.07C30.4877 244.988 28.4148 246.517 26.0881 247.549C23.7613 248.58 21.237 249.091 18.6922 249.044" fill="white"></path> <path d="M57.4262 249.044C55.1506 249.045 52.8979 248.589 50.802 247.702C48.7062 246.816 46.8098 245.517 45.2255 243.883C43.6413 242.249 42.4015 240.314 41.5797 238.192C40.7579 236.069 40.371 233.803 40.4418 231.528C40.3835 229.232 40.7867 226.946 41.6274 224.808C42.4681 222.67 43.7292 220.722 45.3362 219.08C46.9431 217.438 48.8631 216.135 50.9826 215.249C53.102 214.363 55.3778 213.911 57.675 213.92C62.2043 214.11 66.4848 216.044 69.6221 219.317C72.7595 222.589 74.5112 226.948 74.5112 231.482C74.5112 236.016 72.7595 240.374 69.6221 243.647C66.4848 246.92 62.2043 248.853 57.675 249.044M57.675 217.497C55.8822 217.508 54.1101 217.881 52.4654 218.595C50.8207 219.308 49.3375 220.348 48.1052 221.65C46.8728 222.952 45.9168 224.491 45.2948 226.172C44.6727 227.854 44.3975 229.644 44.4857 231.435C44.4064 233.238 44.69 235.038 45.3196 236.729C45.9492 238.419 46.912 239.967 48.1508 241.278C49.3897 242.59 50.8794 243.639 52.5315 244.364C54.1836 245.089 55.9645 245.474 57.7684 245.497C61.3196 245.26 64.6481 243.682 67.0796 241.083C69.5111 238.484 70.8638 235.057 70.8638 231.497C70.8638 227.938 69.5111 224.511 67.0796 221.912C64.6481 219.312 61.3196 217.734 57.7684 217.497" fill="white"></path> <path d="M98.3597 229.662C105.856 231.311 109.34 234.049 109.34 239.306C109.34 245.186 104.519 248.951 97.8308 248.951C92.688 249.018 87.7218 247.076 83.9883 243.537L86.3524 240.706C87.8538 242.242 89.6501 243.458 91.6333 244.281C93.6166 245.104 95.7458 245.518 97.8931 245.498C102.435 245.498 105.421 243.102 105.421 239.68C105.421 236.258 103.71 234.702 96.6488 233.177C88.9032 231.497 85.357 228.978 85.357 223.346C85.357 217.715 90.023 214.013 96.3999 214.013C100.73 213.889 104.953 215.374 108.252 218.182L106.043 221.293C103.409 218.897 99.9908 217.547 96.431 217.498C92.045 217.498 89.2453 219.893 89.2453 223.004C89.2453 226.115 90.9562 228.044 98.3908 229.662" fill="white"></path> <path d="M137.055 239.152H136.868L124.612 221.014V248.454H120.91V214.512H124.736L137.024 233.054L149.28 214.512H153.137V248.454H149.342V220.983L137.055 239.152Z" fill="white"></path> <path d="M190.839 217.996H170.277V229.601H188.693V233.085H170.277V244.969H191.088V248.454H166.482V214.512H190.839V217.996Z" fill="white"></path> <path d="M215.321 248.454H211.464V218.058H200.141V214.512H226.613V218.058H215.321V248.454Z" fill="white"></path> <path d="M241.701 214.512H237.906V248.454H241.701V214.512Z" fill="white"></path> <path d="M270.819 249.044C266.289 248.853 262.009 246.919 258.871 243.647C255.734 240.374 253.982 236.015 253.982 231.481C253.982 226.948 255.734 222.589 258.871 219.316C262.009 216.044 266.289 214.11 270.819 213.919C273.261 213.847 275.692 214.289 277.954 215.216C280.215 216.143 282.256 217.535 283.946 219.301L281.364 222.133C280.006 220.685 278.368 219.528 276.55 218.731C274.733 217.934 272.772 217.515 270.787 217.497C267.236 217.734 263.908 219.312 261.476 221.911C259.045 224.511 257.692 227.937 257.692 231.497C257.692 235.057 259.045 238.483 261.476 241.083C263.908 243.682 267.236 245.26 270.787 245.497C272.838 245.488 274.864 245.049 276.734 244.207C278.604 243.366 280.277 242.141 281.644 240.613L284.163 243.07C282.486 244.992 280.408 246.523 278.076 247.555C275.743 248.587 273.213 249.095 270.663 249.044" fill="white"></path> <path d="M306.841 229.662C314.368 231.311 317.821 234.049 317.821 239.306C317.821 245.186 313 248.951 306.312 248.951C301.2 249 296.269 247.059 292.562 243.537L294.896 240.706C296.404 242.241 298.206 243.457 300.194 244.28C302.182 245.103 304.316 245.517 306.467 245.498C310.978 245.498 313.964 243.102 313.964 239.68C313.964 236.258 312.284 234.702 305.223 233.177C297.477 231.497 293.9 228.978 293.9 223.346C293.9 217.715 298.566 214.013 304.974 214.013C309.304 213.889 313.527 215.374 316.826 218.182L314.586 221.293C311.919 218.871 308.452 217.52 304.85 217.498C300.495 217.498 297.695 219.893 297.695 223.004C297.695 226.115 299.437 228.044 306.841 229.662Z" fill="white"></path> <path d="M351.757 207.076H348.646V252H351.757V207.076Z" fill="white"></path> <path d="M399.753 249.044C395.224 248.834 390.951 246.882 387.827 243.595C384.703 240.308 382.97 235.941 382.99 231.407C383.01 226.872 384.782 222.521 387.935 219.262C391.087 216.003 395.377 214.089 399.908 213.919C402.351 213.847 404.782 214.289 407.043 215.216C409.305 216.143 411.346 217.535 413.035 219.301L410.422 222.133C409.069 220.679 407.432 219.518 405.613 218.721C403.795 217.924 401.832 217.507 399.846 217.497C398.064 217.52 396.305 217.902 394.674 218.622C393.043 219.342 391.575 220.384 390.358 221.686C389.14 222.988 388.199 224.523 387.589 226.198C386.98 227.874 386.716 229.655 386.812 231.435C386.72 233.22 386.987 235.005 387.596 236.686C388.206 238.366 389.146 239.907 390.361 241.218C391.576 242.529 393.041 243.583 394.67 244.318C396.3 245.053 398.059 245.454 399.846 245.497C401.902 245.492 403.934 245.055 405.809 244.214C407.685 243.372 409.363 242.145 410.733 240.613L413.222 243.07C411.551 244.991 409.479 246.522 407.151 247.554C404.824 248.586 402.298 249.095 399.753 249.044Z" fill="white"></path> <path d="M438.39 249.045C436.102 249.067 433.832 248.626 431.718 247.749C429.604 246.872 427.689 245.576 426.088 243.94C424.487 242.304 423.233 240.362 422.402 238.229C421.571 236.096 421.179 233.817 421.25 231.529C421.312 228.138 422.374 224.84 424.304 222.051C426.234 219.262 428.945 217.105 432.097 215.853C435.249 214.6 438.7 214.307 442.018 215.01C445.336 215.714 448.372 217.383 450.744 219.807C453.116 222.231 454.719 225.303 455.351 228.635C455.983 231.968 455.615 235.413 454.295 238.537C452.975 241.662 450.761 244.326 447.931 246.196C445.101 248.066 441.782 249.057 438.39 249.045ZM438.39 217.498C436.598 217.509 434.825 217.882 433.181 218.596C431.536 219.309 430.053 220.349 428.821 221.651C427.588 222.953 426.632 224.492 426.01 226.173C425.388 227.855 425.113 229.645 425.201 231.436C425.117 233.25 425.401 235.062 426.037 236.763C426.673 238.464 427.646 240.019 428.899 241.333C430.152 242.647 431.659 243.694 433.327 244.41C434.996 245.126 436.792 245.496 438.608 245.498C440.402 245.484 442.175 245.107 443.82 244.389C445.465 243.672 446.948 242.63 448.18 241.325C449.411 240.021 450.367 238.48 450.989 236.797C451.61 235.114 451.886 233.322 451.797 231.529C451.877 229.728 451.593 227.93 450.963 226.241C450.333 224.552 449.37 223.006 448.131 221.697C446.891 220.388 445.401 219.342 443.749 218.62C442.097 217.899 440.317 217.517 438.515 217.498" fill="white"></path> <path d="M479.296 229.662C486.823 231.311 490.276 234.049 490.276 239.306C490.276 245.186 485.455 248.951 478.767 248.951C473.656 248.993 468.728 247.053 465.018 243.537L467.382 240.706C468.898 242.257 470.714 243.482 472.72 244.306C474.726 245.13 476.879 245.535 479.047 245.498C483.588 245.498 486.544 243.102 486.544 239.68C486.544 236.258 484.864 234.702 477.803 233.177C470.057 231.497 466.48 228.978 466.48 223.346C466.48 217.715 471.177 214.013 477.554 214.013C481.884 213.889 486.106 215.374 489.405 218.182L487.166 221.293C484.49 218.921 481.036 217.615 477.46 217.622C473.074 217.622 470.306 220.018 470.306 223.129C470.306 226.24 472.017 228.169 479.42 229.786" fill="white"></path> <path d="M518.023 239.152H517.837L505.549 221.014V248.454H501.848V214.512H505.705L517.992 233.054L530.248 214.512H534.105V248.454H530.279V220.983L518.023 239.152Z" fill="white"></path> <path d="M571.806 217.997H551.244V229.601H569.629V233.085H551.244V244.97H572.024V248.454H547.48V214.668H571.837L571.806 217.997ZM556.968 211.557L561.541 204.525L565.398 206.33L559.923 211.557H556.968Z" fill="white"></path> <path d="M596.29 248.454H592.432V218.058H581.109V214.512H607.581V218.058H596.29V248.454Z" fill="white"></path> <path d="M622.664 214.512H618.869V248.454H622.664V214.512Z" fill="white"></path> <path d="M669.668 246.618L667.086 249.48L662.576 245.404C660.02 247.404 656.949 248.639 653.72 248.964C650.491 249.29 647.235 248.694 644.331 247.245C641.427 245.796 638.993 243.553 637.311 240.777C635.629 238.001 634.769 234.805 634.829 231.56C634.766 229.261 635.166 226.972 636.005 224.83C636.844 222.688 638.104 220.737 639.712 219.091C641.319 217.446 643.24 216.141 645.362 215.252C647.483 214.364 649.762 213.911 652.062 213.92C654.348 213.902 656.614 214.346 658.724 215.225C660.835 216.104 662.746 217.4 664.344 219.036C665.941 220.671 667.192 222.613 668.022 224.743C668.851 226.874 669.242 229.15 669.171 231.435C669.206 235.608 667.775 239.66 665.127 242.884L669.668 246.618ZM653.586 237.564L656.168 234.702L662.389 240.364C664.304 237.83 665.332 234.736 665.313 231.56C665.179 228.968 664.287 226.473 662.748 224.383C661.209 222.294 659.09 220.702 656.655 219.806C654.219 218.91 651.574 218.749 649.048 219.343C646.522 219.936 644.226 221.259 642.444 223.146C640.663 225.033 639.474 227.402 639.027 229.958C638.579 232.514 638.892 235.146 639.926 237.526C640.96 239.907 642.67 241.931 644.844 243.348C647.018 244.765 649.56 245.513 652.155 245.498C654.946 245.516 657.667 244.62 659.901 242.947L653.586 237.564Z" fill="white"></path> <path d="M708.613 233.955C708.613 243.849 702.983 248.982 694.584 248.982C686.185 248.982 680.555 243.849 680.555 234.267V214.667H684.35V234.173C684.35 241.484 688.176 245.622 694.646 245.622C701.116 245.622 704.787 241.826 704.787 234.422V214.667H708.582L708.613 233.955Z" fill="white"></path> <path d="M745.787 217.996H725.256V229.601H743.64V233.085H725.256V244.969H746.035V248.454H721.461V214.512H745.787V217.996Z" fill="white"></path> <path d="M769.618 229.662C777.115 231.311 780.598 234.049 780.598 239.306C780.598 245.186 775.746 248.951 769.089 248.951C763.967 249.001 759.027 247.06 755.309 243.537L757.673 240.706C759.174 242.242 760.97 243.458 762.954 244.281C764.937 245.104 767.066 245.518 769.213 245.498C773.755 245.498 776.741 243.102 776.741 239.68C776.741 236.258 775.03 234.702 767.969 233.177C760.224 231.497 756.646 228.978 756.646 223.346C756.646 217.715 761.343 214.013 767.72 214.013C772.05 213.889 776.273 215.374 779.572 218.182L777.363 221.293C774.675 218.922 771.212 217.616 767.627 217.622C763.241 217.622 760.472 220.018 760.472 223.129C760.472 226.24 762.214 228.169 769.618 229.786" fill="white"></path> </g> <defs> <clipPath id="clip0_1994_1565"> <rect width="815" height="252" fill="white"></rect> </clipPath> </defs> </svg>