<svg viewBox="0 0 1575 152" fill="none" xmlns="http://www.w3.org/2000/svg"> <g clip-path="url(#clip0_9286_2)"> <path d="M164.355 103.213C164.355 122.162 149.026 137.538 130.124 137.538H104.407C103.687 137.538 103.485 136.529 104.148 136.255C115.443 131.673 123.425 120.606 123.425 107.652V73.2982H120.802C105.934 73.2982 93.5297 83.8463 90.6339 97.896C90.4898 98.6165 89.5101 98.6165 89.3516 97.896C86.4558 83.8463 74.0513 73.2982 59.1831 73.2982H56.561V107.652C56.561 120.606 64.5281 131.673 75.8089 136.255C76.5005 136.544 76.3132 137.538 75.5784 137.538H49.6744C30.7722 137.538 15.443 122.177 15.443 103.213V14.8657H40.2809C64.946 14.8657 85.4761 32.9214 89.3228 56.5682C89.4381 57.3175 90.4898 57.3175 90.6051 56.5682C94.423 32.9214 114.881 14.8657 139.546 14.8657H164.384V103.213H164.355ZM0.142639 147.783H179.828V4.00061H0.142639V147.783Z" fill="white"></path> <path d="M1316.72 4.00061H1288.79V147.783H1400.92V136.702H1316.8L1316.72 4.00061Z" fill="white"></path> <path d="M674.08 69.0473V14.3037H715.212C715.212 14.3037 750.077 12.5025 749.688 40.7749C749.501 55.1416 737.212 68.2259 715.241 69.0473H674.08ZM777.566 38.4261C777.336 12.6466 749.991 4.07266 712.676 4.00061H645.899V147.783H674.08V80.2006H693.76L755.35 147.783H788.847L722.92 78.0823L724.346 77.9815C724.332 77.9815 777.869 73.2982 777.566 38.4261Z" fill="white"></path> <path d="M341.837 111.268L276.356 4.00061H251.72V147.783H267.15V40.8613L331.19 147.783H334.489L403.629 35.8034V147.783H431.406V4.00061H408.066L341.837 111.268Z" fill="white"></path> <path d="M1178.33 4.00061H1150.39V147.783H1262.53V136.702H1178.33V4.00061Z" fill="white"></path> <path d="M1124.07 14.2605V4.00061H1006.93V147.783H1124.07V136.947H1034.86V77.0736H1114.48V66.5976H1034.86V14.2605H1124.07Z" fill="white"></path> <path d="M1544.33 14.2605V4.00061H1427.18V147.783H1544.33V136.947H1455.12V77.0736H1534.73V66.5976H1455.12V14.2605H1544.33Z" fill="white"></path> <path d="M496.483 89.1348L531.694 26.4658L566.271 89.1348H496.483ZM598.63 147.783H628.755L549.429 4.00061H529.562L448.651 147.783H463.491L490.187 100.331H572.437L598.63 147.783Z" fill="white"></path> <path d="M896.641 141.198C872.092 141.198 855.912 135.059 843.854 122.782C831.78 110.505 825.758 94.9132 825.758 76.0073C825.758 64.0182 828.308 53.1098 833.423 43.2966C838.537 33.4834 846.562 25.63 857.512 19.6931C868.447 13.7706 883.171 10.8021 899.739 10.8021C927.487 10.8021 951.619 26.0623 962.28 51.6688L983.243 45.2852C979.698 37.7199 974.31 30.6735 966.862 24.2466C958.779 17.2722 948.349 11.5802 935.569 7.21401C922.79 2.83338 910.559 0.657471 893.573 0.657471C873.114 0.657471 857.252 3.8709 841.707 10.2977C826.162 16.7246 814.146 25.6156 805.66 36.9706C797.174 48.3401 792.939 61.3523 792.939 76.0361C792.939 90.8495 797.131 103.948 805.516 115.303C813.901 126.658 825.816 135.52 841.26 141.875C856.705 148.23 872.509 151.4 892.967 151.4C911.668 151.4 923.842 149.498 936.708 145.074C949.573 140.65 959.845 134.598 967.985 127.537C975.477 121.024 980.923 113.906 984.482 106.254L963.375 99.827C951.187 126.399 930.296 141.198 896.641 141.198Z" fill="white"></path> <path d="M1565.68 3.35211C1561.55 3.35211 1558.19 6.70963 1558.19 10.8453C1558.19 14.981 1561.55 18.3385 1565.68 18.3385C1569.81 18.3385 1573.17 14.981 1573.17 10.8453C1573.17 6.70963 1569.81 3.35211 1565.68 3.35211ZM1565.68 20.0245C1560.62 20.0245 1556.5 15.9032 1556.5 10.8453C1556.5 5.78739 1560.62 1.66614 1565.68 1.66614C1570.74 1.66614 1574.86 5.78739 1574.86 10.8453C1574.86 15.9032 1570.74 20.0245 1565.68 20.0245Z" fill="white"></path> <path d="M1564.12 10.5715H1566.14C1567.22 10.5715 1567.71 9.9807 1567.71 9.17374C1567.71 8.36678 1567.21 7.8192 1566.18 7.8192H1564.11V10.5715H1564.12ZM1565.58 12.0269H1564.14V15.4853H1562.42V6.30615H1566.44C1568.19 6.30615 1569.5 7.34367 1569.5 9.15933C1569.5 10.5427 1568.6 11.4505 1567.39 11.8108L1569.66 15.4853H1567.61L1565.58 12.0269Z" fill="white"></path> </g> <defs> <clipPath id="clip0_9286_2"> <rect width="1575" height="142" fill="white"></rect> </clipPath> </defs> </svg>