<svg xmlns="http://www.w3.org/2000/svg" fill="none" viewBox="0 0 171 44" height="44" width="171">
<g clip-path="url(#clip0_1314_1452)">
<path fill="#FA3232" d="M8.74598 24.2536C9.3166 25.9257 9.37885 27.6081 9.37885 29.3321V34.9921C9.37885 38.087 11.5783 39.7071 15.1888 39.7071L15.1369 43.9548C10.6342 43.9548 4.97992 40.6522 4.97992 36.8303C4.97992 33.3201 5.87215 24.0978 2.93608 24.0978H0V19.6425H2.93608C5.82028 19.6425 4.97992 10.6798 4.97992 7.2215C4.96954 2.50651 10.6238 0.045166 15.1265 0.045166L15.1784 4.29281C11.5679 4.29281 9.36847 5.91293 9.36847 9.00779V17.0773C9.36847 18.0223 9.16098 18.8636 8.90161 19.5386C8.38286 20.951 6.70214 21.3768 5.08367 21.3249V22.27C6.65027 22.3219 8.22724 22.8412 8.74598 24.264V24.2536Z"></path>
<path fill="#FA3232" d="M161.152 29.3218C161.152 27.5978 161.204 25.9257 161.775 24.2433C162.294 22.8309 163.86 22.3116 165.437 22.2597V21.3146C163.819 21.3665 162.148 20.9511 161.619 19.5387C161.308 18.8637 161.152 18.0224 161.152 17.0774V9.01827C161.152 5.9338 158.901 4.31367 155.353 4.31367L155.405 0.076416C159.897 0.076416 165.541 2.53776 165.541 7.24236C165.541 10.6903 164.649 19.6426 167.575 19.6426H170.5V24.0875H167.575C164.649 24.0875 165.541 33.289 165.541 36.7993C165.541 40.6211 159.897 43.9133 155.405 43.9133L155.353 39.6761C158.901 39.6761 161.152 38.0559 161.152 34.9715V29.3218Z"></path>
<path fill="#FA3232" d="M15.1783 34.0161V12.4144H20.2723L20.3761 17.0879H20.4798C20.5109 16.9529 20.6458 16.6413 20.8741 16.1636C21.1023 15.6858 21.4654 15.1666 21.9738 14.585C22.4822 14.0034 23.1358 13.4945 23.945 13.0583C24.7543 12.6221 25.7502 12.4041 26.933 12.4041C28.1157 12.4041 29.0494 12.6325 29.8172 13.0895C30.5849 13.5465 31.2074 14.128 31.6846 14.8239C32.1619 15.5197 32.4939 16.2778 32.7118 17.0879H32.8155C32.8466 16.9529 33.0126 16.6309 33.2927 16.1428C33.5729 15.6547 33.9775 15.1146 34.4962 14.5435C35.0253 13.9619 35.7101 13.4634 36.5712 13.048C37.4323 12.6325 38.4698 12.4144 39.694 12.4144C41.0635 12.4144 42.184 12.7052 43.0762 13.2764C43.9684 13.8476 44.6739 14.5954 45.203 15.4885C45.7322 16.3817 46.1264 17.3371 46.3858 18.3549C46.6451 19.3727 46.8111 20.3489 46.8838 21.2732C46.9564 22.1975 46.9875 22.966 46.9875 23.558V34.0161H41.7897V23.5061C41.7897 22.9453 41.7586 22.3014 41.7067 21.5848C41.6549 20.8682 41.5096 20.162 41.2917 19.4869C41.0635 18.8015 40.69 18.2407 40.1609 17.8045C39.6318 17.3683 38.9055 17.1502 37.951 17.1502C36.7994 17.1502 35.9072 17.4721 35.2951 18.1264C34.683 18.7703 34.2576 19.6012 34.0397 20.5982C33.8115 21.5952 33.6974 22.6441 33.6974 23.7242V34.0265H28.4477V23.5165C28.4477 22.9556 28.4269 22.3118 28.3958 21.5952C28.3647 20.8786 28.2194 20.1724 27.9808 19.4973C27.7318 18.8119 27.348 18.251 26.8292 17.8149C26.3001 17.3787 25.5739 17.1606 24.6298 17.1606C23.5093 17.1606 22.6378 17.4825 22.0049 18.1368C21.3721 18.7807 20.9467 19.6115 20.7184 20.6085C20.4902 21.6055 20.3761 22.6545 20.3761 23.7346V34.0369H15.1783V34.0161Z"></path>
<path fill="#FA3232" d="M60.1219 34.5459C57.7045 34.5459 55.6814 34.0682 54.063 33.1231C52.4341 32.178 51.2203 30.8695 50.411 29.2078C49.6018 27.5461 49.2076 25.6456 49.2076 23.5062C49.2076 21.3668 49.6122 19.4143 50.411 17.7527C51.2203 16.091 52.4341 14.7824 54.063 13.8374C55.6918 12.8923 57.7149 12.4146 60.1219 12.4146C63.6597 12.4146 66.3468 13.4323 68.1831 15.4679C70.0195 17.5034 70.9428 20.1829 70.9428 23.5062C70.9428 25.5729 70.559 27.4423 69.7912 29.1247C69.0235 30.8071 67.8407 32.1261 66.243 33.0919C64.6453 34.0578 62.6118 34.5355 60.1219 34.5355V34.5459ZM60.07 30.0179C61.647 30.0179 62.8401 29.6855 63.6701 29.0209C64.4897 28.3562 65.0395 27.5046 65.3197 26.4764C65.5998 25.4483 65.7347 24.3889 65.7347 23.2985C65.7347 22.208 65.5894 21.1591 65.3197 20.1413C65.0395 19.1235 64.4897 18.2719 63.6701 17.5969C62.8505 16.9114 61.647 16.5687 60.07 16.5687C58.493 16.5687 57.3518 16.9114 56.5218 17.5969C55.7022 18.2823 55.142 19.1339 54.8411 20.1413C54.5402 21.1591 54.395 22.208 54.395 23.2985C54.395 24.3889 54.5402 25.4483 54.8411 26.4764C55.142 27.515 55.7022 28.3562 56.5218 29.0209C57.3414 29.6855 58.5242 30.0179 60.07 30.0179Z"></path>
<path fill="#FA3232" d="M74.2419 34.0163V4.42822H79.4916V34.0163H74.2419Z"></path>
<path fill="#FA3232" d="M92.1383 34.5457C91.4017 34.5457 90.6028 34.4522 89.721 34.2549C88.8495 34.0575 87.9676 33.7668 87.0961 33.3617C86.2246 32.9567 85.4258 32.4374 84.7099 31.8143C83.9941 31.1808 83.4234 30.4434 83.0084 29.6022C82.5935 28.761 82.3756 27.7847 82.3756 26.6631H87.314C87.314 26.6631 87.3347 26.9228 87.397 27.3486C87.4489 27.7744 87.6149 28.2313 87.895 28.7402C88.1751 29.2491 88.6316 29.6957 89.2645 30.0799C89.8973 30.4642 90.7999 30.6615 91.993 30.6615C92.9372 30.6615 93.7049 30.5369 94.3066 30.298C94.898 30.0488 95.3441 29.7476 95.645 29.3737C95.9459 29.0102 96.0911 28.5948 96.0911 28.1378C96.0911 27.3693 95.7695 26.767 95.1159 26.3204C94.4726 25.8842 93.6323 25.5207 92.6259 25.2403C91.6092 24.9599 90.5302 24.6691 89.3993 24.3783C88.2581 24.0771 87.1999 23.6825 86.1935 23.1944C85.1872 22.7063 84.3779 22.0312 83.7554 21.1692C83.1226 20.3072 82.8113 19.196 82.8113 17.8355C82.8113 15.8 83.6206 14.2837 85.2287 13.2659C86.8368 12.2481 88.8806 11.7393 91.3706 11.7393C92.6985 11.7393 93.9539 11.8847 95.1263 12.1858C96.2986 12.487 97.3361 12.9544 98.2491 13.6086C99.1621 14.2525 99.8883 15.0834 100.428 16.0804C100.967 17.0774 101.237 18.2925 101.237 19.736H96.2986C96.3297 18.926 96.2052 18.2717 95.9044 17.7628C95.6035 17.2539 95.2093 16.8593 94.7216 16.5789C94.234 16.2985 93.7049 16.1011 93.1447 15.9973C92.5844 15.8934 92.0449 15.8415 91.5158 15.8415C90.2605 15.8415 89.306 16.0596 88.6523 16.4958C88.0091 16.932 87.6771 17.5032 87.6771 18.199C87.6771 19.0091 87.9987 19.6322 88.6523 20.0684C89.2956 20.5046 90.136 20.868 91.1734 21.1485C92.2005 21.4289 93.3003 21.7197 94.4519 22.0104C95.6035 22.3116 96.6928 22.7063 97.7096 23.1944C98.7263 23.6825 99.5563 24.3472 100.2 25.1676C100.843 25.9881 101.175 27.0889 101.175 28.4494C101.175 29.8099 100.801 30.9419 100.044 31.8351C99.2866 32.7282 98.2387 33.4033 96.89 33.8602C95.5412 34.3172 93.9539 34.5457 92.1383 34.5457Z"></path>
<path fill="#FA3232" d="M113.822 34.5459C111.404 34.5459 109.381 34.0682 107.763 33.1231C106.134 32.178 104.92 30.8695 104.111 29.2078C103.302 27.5461 102.907 25.6456 102.907 23.5062C102.907 21.3668 103.312 19.4143 104.111 17.7527C104.92 16.091 106.134 14.7824 107.763 13.8374C109.392 12.8923 111.415 12.4146 113.822 12.4146C117.36 12.4146 120.047 13.4323 121.883 15.4679C123.719 17.5034 124.643 20.1829 124.643 23.5062C124.643 25.5729 124.259 27.4423 123.491 29.1247C122.723 30.8071 121.541 32.1261 119.943 33.0919C118.345 34.0578 116.312 34.5355 113.822 34.5355V34.5459ZM113.77 30.0179C115.347 30.0179 116.54 29.6855 117.37 29.0209C118.19 28.3562 118.739 27.5046 119.02 26.4764C119.3 25.4483 119.435 24.3889 119.435 23.2985C119.435 22.208 119.289 21.1591 119.02 20.1413C118.739 19.1235 118.19 18.2719 117.37 17.5969C116.55 16.9114 115.347 16.5687 113.77 16.5687C112.193 16.5687 111.052 16.9114 110.222 17.5969C109.402 18.2823 108.842 19.1339 108.541 20.1413C108.24 21.1591 108.095 22.208 108.095 23.2985C108.095 24.3889 108.24 25.4483 108.541 26.4764C108.842 27.515 109.402 28.3562 110.222 29.0209C111.041 29.6855 112.224 30.0179 113.77 30.0179Z"></path>
<path fill="#FA3232" d="M126.324 16.2051V12.4248H139.925V16.2051H126.324ZM129.26 34.0681V8.89379C129.26 7.00365 129.685 5.63277 130.546 4.79155C131.407 3.95033 132.694 3.53491 134.406 3.53491H140.081V7.68908H134.624V34.0681H129.27H129.26Z"></path>
<path fill="#FA3232" d="M142.072 16.2051V12.4248C142.84 12.4248 143.473 12.3729 143.961 12.269C144.448 12.1652 144.842 11.9367 145.143 11.5836C145.444 11.2305 145.662 10.6905 145.797 9.95309C145.932 9.21572 146.004 8.19795 146.004 6.91016H150.31V12.4248H155.248V16.2051H142.072ZM150.466 34.0161C148.754 34.0161 147.467 33.5903 146.606 32.7595C145.745 31.9183 145.32 30.5578 145.32 28.6572V15.6235H150.31V29.81H155.352V34.0161H150.466Z"></path>
</g>
<defs>
<clipPath id="clip0_1314_1452">
<rect transform="translate(0 0.045166)" fill="white" height="43.9096" width="170.5"></rect>
</clipPath>
</defs>
</svg>
