<svg viewBox="0 0 147 112" fill="none" xmlns="http://www.w3.org/2000/svg"> <g clip-path="url(#clip0_3653_92)"> <path d="M0.669922 111.87V76.64L21.7499 50.43L35.5199 50.5L60.6499 30.87L74.6399 34.71L81.5599 23.84L89.4699 25.53L112.9 9.58004L121.66 13.25L134.79 0.540039L147 22.43V111.87H0.669922Z" fill="white"></path> <path d="M18.9099 74.7V101.82H24.9599V83.36C24.9599 83.36 25.6699 78.74 31.9499 78.74C38.2299 78.74 37.9899 83.86 37.9899 83.86V101.82H44.0599V83.89C44.0599 83.89 43.8799 73.8 32.6999 73.8C32.6999 73.8 26.3899 73.38 23.7099 77.89L18.9199 74.7H18.9099Z" fill="black"></path> <path d="M56.0599 70.7801C58.0868 70.7801 59.7299 69.1369 59.7299 67.1101C59.7299 65.0832 58.0868 63.4401 56.0599 63.4401C54.033 63.4401 52.3899 65.0832 52.3899 67.1101C52.3899 69.1369 54.033 70.7801 56.0599 70.7801Z" fill="black"></path> <path d="M66.4798 70.7801C68.5098 70.7801 70.1498 69.1401 70.1498 67.1101C70.1498 65.0801 68.5098 63.4401 66.4798 63.4401C64.4498 63.4401 62.8098 65.0801 62.8098 67.1101C62.8098 69.1401 64.4498 70.7801 66.4798 70.7801Z" fill="black"></path> <path d="M70.2899 77.6101C67.7699 75.2801 64.4199 73.8401 60.7199 73.8401C52.9299 73.8401 46.6199 80.1501 46.6199 87.9401C46.6199 95.7301 52.9299 102.04 60.7199 102.04C63.9599 102.04 66.9299 100.94 69.3099 99.1001V101.82H75.0699V74.5501L70.2899 77.6101ZM60.7199 96.7601C55.8499 96.7601 51.8899 92.8101 51.8899 87.9301C51.8899 83.0501 55.8399 79.1001 60.7199 79.1001C64.9099 79.1001 68.4099 82.0201 69.3099 85.9301V89.9201C68.3999 93.8301 64.9099 96.7501 60.7199 96.7501V96.7601Z" fill="black"></path> <path d="M100.6 77.6101C98.0799 75.2801 94.7299 73.8401 91.0299 73.8401C83.2399 73.8401 76.9299 80.1501 76.9299 87.9401C76.9299 95.7301 83.2399 102.04 91.0299 102.04C94.2699 102.04 97.2399 100.94 99.6199 99.1001V101.82H105.38V74.5501L100.6 77.6101ZM91.0199 96.7601C86.1499 96.7601 82.1899 92.8101 82.1899 87.9301C82.1899 83.0501 86.1399 79.1001 91.0199 79.1001C95.2099 79.1001 98.7099 82.0201 99.6099 85.9301V89.9201C98.6999 93.8301 95.2099 96.7501 91.0199 96.7501V96.7601Z" fill="black"></path> <path d="M120.8 86.53L132.22 74.55H124.98L114.81 83.87V67.48L109.07 71.94V101.82H114.81V90.85L116.79 89.07L126.76 101.82H133.93L120.8 86.53Z" fill="black"></path> </g> <defs> <clipPath id="clip0_3653_92"> <rect width="147" height="112" fill="white"></rect> </clipPath> </defs> </svg>