<svg viewBox="0 0 400 60" fill="none" xmlns="http://www.w3.org/2000/svg"> <g clip-path="url(#clip0_837_1149)"> <path d="M31.0957 0.493408C13.8319 0.493408 0 13.3299 0 29.8339C0 46.3379 13.8319 59.1744 31.0957 59.1744C48.3594 59.1744 62.1914 46.3379 62.1914 29.8339C62.1914 13.3299 48.3594 0.493408 31.0957 0.493408ZM31.0957 48.3551C20.224 48.3551 11.7624 40.6794 11.7624 29.8339C11.7624 18.9884 20.224 11.3127 31.0957 11.3127C41.9674 11.3127 50.429 18.9884 50.429 29.8339C50.429 40.6794 41.9674 48.3551 31.0957 48.3551Z" fill="white"></path> <path d="M109.634 23.7301C110.996 21.6868 111.808 19.3028 111.808 16.8403C111.808 8.11677 104.394 1.59375 94.1515 1.59375H71.2816C69.9718 1.59375 69.2383 2.27487 69.2383 3.50612V56.1618C69.2383 57.3931 69.9718 58.0742 71.2816 58.0742H101.041C111.913 58.0742 119.955 50.2937 119.955 40.1032C119.955 32.7942 115.921 26.7951 109.66 23.7039L109.634 23.7301ZM81.0007 11.9939H94.1253C97.7667 11.9939 100.02 14.273 100.02 17.4429C100.02 18.9361 99.3647 20.4555 98.212 21.5558H80.9745V11.9939H81.0007ZM99.5219 47.6741H81.0007V31.3796H99.6004C105.364 31.3796 108.167 34.9686 108.167 39.5268C108.167 44.0851 105.338 47.6741 99.5219 47.6741Z" fill="white"></path> <path d="M166.221 47.4383H137.876V34.759H163.653C164.963 34.759 165.697 34.0779 165.697 32.8466V26.2712C165.697 25.04 164.963 24.3588 163.653 24.3588H137.876V12.2821H165.802C167.111 12.2821 167.845 11.601 167.845 10.3697V3.50612C167.845 2.27487 167.111 1.59375 165.802 1.59375H128.157C126.847 1.59375 126.113 2.27487 126.113 3.50612V56.1618C126.113 57.3931 126.847 58.0742 128.157 58.0742H166.247C167.557 58.0742 168.29 57.3931 168.29 56.1618V49.3506C168.29 48.1194 167.557 47.4383 166.247 47.4383H166.221Z" fill="white"></path> <path d="M206.483 36.6452C213.111 33.6325 217.67 27.3453 217.67 20.3507C217.67 9.95055 208.789 1.59375 197.786 1.59375H177.143C175.833 1.59375 175.1 2.27487 175.1 3.50612V56.1618C175.1 57.3931 175.833 58.0742 177.143 58.0742H184.845C186.155 58.0742 186.888 57.3931 186.888 56.1618V38.5051H194.197L210.151 56.9477C210.806 57.786 211.618 58.0742 212.666 58.0742H221.73C223.433 58.0742 224.009 56.9215 222.935 55.6903L206.483 36.619V36.6452ZM197.786 28.7075H186.888V11.9939H197.786C202.266 11.9939 205.907 15.6353 205.907 20.3507C205.907 25.0661 202.24 28.7075 197.786 28.7075Z" fill="white"></path> <path d="M247.639 24.8039C242.112 22.8915 237.999 21.0578 237.999 16.8925C237.999 13.644 240.828 11.3125 245.701 11.3125C250.573 11.3125 253.298 13.1201 254.005 16.8663C254.215 18.0713 254.87 18.7 256.101 18.7H263.829C265.139 18.7 265.925 18.0189 265.846 16.7091C264.877 5.6016 255.603 0.519409 245.727 0.519409C235.851 0.519409 226.263 6.09934 226.263 16.9187C226.263 28.9168 236.794 32.139 245.413 34.9945C251.097 36.8807 255.891 38.6359 255.891 42.6702C255.891 45.9448 253.062 48.3811 247.063 48.3811C241.064 48.3811 237.842 46.4163 237.108 42.5392C236.899 41.3079 236.244 40.6792 235.012 40.6792H227.284C225.974 40.6792 225.189 41.3603 225.267 42.6702C226.263 53.961 235.929 59.1742 247.037 59.1742C258.144 59.1742 267.627 53.4895 267.627 42.644C267.627 30.7244 256.337 27.7642 247.665 24.8039H247.639Z" fill="white"></path> <path d="M303.15 0.493408C285.887 0.493408 272.055 13.3299 272.055 29.8339C272.055 46.3379 285.887 59.1744 303.15 59.1744C320.414 59.1744 334.246 46.3379 334.246 29.8339C334.246 13.3299 320.414 0.493408 303.15 0.493408ZM303.15 48.3551C292.279 48.3551 283.817 40.6794 283.817 29.8339C283.817 18.9884 292.279 11.3127 303.15 11.3127C314.022 11.3127 322.484 18.9884 322.484 29.8339C322.484 40.6794 314.022 48.3551 303.15 48.3551Z" fill="white"></path> <path d="M350.725 2.825C350.175 1.9867 349.284 1.59375 348.21 1.59375H342.892C341.582 1.59375 340.849 2.27487 340.849 3.50612V56.1618C340.849 57.3931 341.582 58.0742 342.892 58.0742H350.594C351.904 58.0742 352.637 57.3931 352.637 56.1618V23.18L379.882 56.843C380.432 57.6813 381.323 58.0742 382.397 58.0742H388.475C389.784 58.0742 390.518 57.3931 390.518 56.1618V50.4509C390.518 49.5864 388.344 47.3335 386.877 45.3687C385.409 43.404 350.725 2.825 350.725 2.825Z" fill="white"></path> <path d="M398.48 10.8938H390.228V3.11331C390.228 2.19642 389.678 1.67249 388.708 1.67249H383.207C382.238 1.67249 381.687 2.19642 381.687 3.11331V10.8938H373.435C372.466 10.8938 371.916 11.4177 371.916 12.3346V17.5216C371.916 18.4385 372.466 18.9624 373.435 18.9624H381.687V26.7429C381.687 27.6598 382.238 28.1837 383.207 28.1837H388.708C389.678 28.1837 390.228 27.6598 390.228 26.7429V18.9624H398.48C399.449 18.9624 399.999 18.4385 399.999 17.5216V12.3346C399.999 11.4177 399.449 10.8938 398.48 10.8938Z" fill="white"></path> </g> <defs> <clipPath id="clip0_837_1149"> <rect width="400" height="58.681" fill="white" transform="translate(0 0.493408)"></rect> </clipPath> </defs> </svg>