<svg viewBox="0 0 250 165" fill="none" xmlns="http://www.w3.org/2000/svg"> <path fill-rule="evenodd" clip-rule="evenodd" d="M99.4618 0.634078C81.9212 5.14951 57.3868 39.3406 42.742 79.6782L41.7176 82.5H26.237H10.7565L9.54845 86.1699C-3.72035 126.478 -3.10072 159.046 11.0363 164.317C26.4894 170.078 54.1338 138.749 71.908 95.332C72.59 93.6645 73.1766 92.3277 73.2103 92.3615C73.244 92.3952 72.8386 93.9514 72.3096 95.8194C60.1776 138.669 65.2027 168.528 83.8838 164.597C100.1 161.184 122.845 131.707 137.985 94.4845C138.615 92.9364 139.151 91.6909 139.177 91.7165C139.203 91.7421 138.843 93.0564 138.378 94.6376C129.239 125.709 129.158 152.513 138.176 161.489C153.539 176.78 187.746 139.066 207.258 85.3211L208.282 82.5H223.763H239.244L240.452 78.8302C253.72 38.5225 253.101 5.95385 238.964 0.683451C223.511 -5.07818 195.866 26.2511 178.092 69.668C177.41 71.3355 176.823 72.6717 176.79 72.6379C176.756 72.6042 177.161 71.0486 177.69 69.1806C189.822 26.3311 184.797 -3.52887 166.116 0.403463C149.909 3.81457 127.086 33.3908 112.012 70.5155C111.384 72.0636 110.849 73.3091 110.823 73.2835C110.797 73.2579 111.157 71.9436 111.622 70.3624C124.46 26.7142 119.034 -4.40383 99.4618 0.634078Z" fill="white"></path> </svg>