<svg viewBox="0 0 850 178" fill="none" xmlns="http://www.w3.org/2000/svg"> <g clip-path="url(#clip0_3799_355)"> <path fill-rule="evenodd" clip-rule="evenodd" d="M161.571 0.559875H261.639C261.639 0.559875 269.241 0.453192 274.255 2.18679C282.389 4.9872 290.71 10.8814 295.351 17.1757C299.672 23.0432 303.192 30.2443 303.192 45.3666C303.192 72.704 303.139 132.446 303.139 132.446H273.268L273.348 62.8892C273.348 55.3414 274.201 40.3792 271.934 36.2719C270.574 33.8449 267.614 30.8844 261.186 30.8844C239.929 30.8844 191.842 30.8044 191.842 30.8044L191.789 132.446H161.571V0.559875Z" fill="white"></path> <path fill-rule="evenodd" clip-rule="evenodd" d="M0 0.560059C10.2149 0.560059 19.923 0.666741 30.1379 0.666741C30.1379 34.5652 30.0845 101.188 30.0845 101.188L31.258 102.522H94.4408C94.4408 102.522 103.936 102.949 107.643 100.095C112.017 96.7345 111.83 91.0003 111.83 91.0003L111.75 0.586729H141.915V97.3479C141.915 97.3479 141.168 108.79 133.38 117.858C129.886 121.938 120.578 129.299 112.47 131.486C110.177 132.1 105.162 132.473 94.1208 132.473H0V0.560059Z" fill="white"></path> <path fill-rule="evenodd" clip-rule="evenodd" d="M323.142 0.560059H353.52V132.366H323.142V0.560059Z" fill="white"></path> <path fill-rule="evenodd" clip-rule="evenodd" d="M413.635 0.479926C431.505 0.319902 481.139 0.879986 481.139 0.879986C481.139 0.879986 495.648 0.319902 504.156 5.89407C523.732 18.7227 524.132 38.1922 524.132 38.1922C524.132 38.1922 524.399 55.9016 524.132 73.0508C523.972 82.9723 524.345 95.3475 524.345 95.3475C524.345 95.3475 523.732 103.455 520.345 109.216C514.45 119.218 507.116 125.405 507.116 125.405C507.116 125.405 517.464 143.488 522.665 152.396H487.62C483.726 145.755 476.231 132.366 476.231 132.366H416.062C416.062 132.366 393.072 132.793 379.604 117.831C370.882 108.149 371.816 86.1994 371.816 86.1994L371.709 39.2057C371.709 39.2057 372.296 27.844 376.19 21.9765C384.324 9.65463 392.779 2.72026 406.834 0.559938L413.662 0.479926H413.635ZM411.662 30.0043C406.594 30.0043 402.114 35.9786 402.114 42.0061C402.114 91.0802 402.194 92.6537 402.434 93.6939C404.487 103.162 413.635 102.575 413.635 102.575L454.788 102.469C454.788 102.469 457.882 102.202 457.855 102.068C456.442 97.4011 455.988 95.8275 455.242 93.0805C455.188 92.9204 455.615 92.6537 455.615 92.6537H487.3C487.3 92.6537 488.073 92.9204 488.1 93.0004C489.22 94.9474 489.753 95.8542 490.954 97.2144C490.954 97.2144 492.154 96.841 492.767 96.3076C494.154 95.1074 493.941 88.9998 493.941 88.9998V39.6058C493.941 39.6058 493.941 35.1518 489.247 32.458C484.793 29.8977 479.165 30.0844 479.165 30.0844H413.022L411.688 30.0043H411.662Z" fill="white"></path> <path fill-rule="evenodd" clip-rule="evenodd" d="M541.148 0.559874H571.632L571.686 102.042L571.979 102.468L639.403 102.548C639.403 102.548 646.497 102.735 649.804 99.028C653.991 94.3339 653.538 87.6929 653.538 87.6929L653.458 0.533203H683.222L682.982 91.3468C682.982 91.3468 684.023 109.083 670.981 120.871C657.485 133.033 639.909 132.34 639.909 132.34C639.909 132.34 567.072 132.42 541.121 132.42V0.559874H541.148Z" fill="white"></path> <path fill-rule="evenodd" clip-rule="evenodd" d="M729.709 0.586729C729.709 0.586729 785.104 0.560059 825.35 0.560059V30.6712L733.843 30.7512V51.6877L819.963 51.6077V81.3988H733.843V102.149L825.35 102.229V132.473L703.599 132.393C703.599 132.393 703.679 44.54 703.679 0.586729H729.709Z" fill="white"></path> <path d="M839.566 0C845.087 0 849.461 4.48067 849.461 10.0815C849.461 15.6823 845.06 20.2164 839.512 20.2164C833.965 20.2164 829.511 15.7624 829.511 10.0815C829.511 4.40066 833.992 0 839.512 0L839.566 0ZM839.512 1.57357C835.085 1.57357 831.431 5.38747 831.431 10.1082C831.431 14.8289 835.059 18.6695 839.566 18.6695C844.047 18.7228 847.62 14.9089 847.62 10.1349C847.62 5.3608 844.047 1.57357 839.566 1.57357H839.512ZM837.619 15.9757H835.832V4.72071C836.765 4.58735 837.672 4.454 839.032 4.454C840.739 4.454 841.86 4.80072 842.526 5.30746C843.193 5.78753 843.566 6.56098 843.566 7.62781C843.566 9.12137 842.58 10.0015 841.379 10.3749V10.4549C842.366 10.6416 843.033 11.5217 843.246 13.202C843.513 14.9622 843.78 15.629 843.967 15.9757H842.073C841.806 15.629 841.539 14.5889 841.299 13.0953C841.033 11.6818 840.313 11.1217 838.872 11.1217H837.619V15.9491V15.9757ZM837.619 9.73479H838.926C840.393 9.73479 841.646 9.20138 841.646 7.8145C841.646 6.82769 840.926 5.84088 838.926 5.84088C838.339 5.84088 837.939 5.89422 837.619 5.92089V9.73479Z" fill="white"></path> <path d="M534.293 152.21H536.96L548.429 177.574H545.362L542.401 170.906H528.693L525.705 177.574H522.798L534.267 152.21H534.293ZM541.308 168.319L535.574 155.517L529.813 168.319H541.281H541.308Z" fill="white"></path> <path d="M560.617 152.369H570.032C575.713 152.369 579.473 155.383 579.473 160.37V160.45C579.473 165.891 574.939 168.692 569.579 168.692H563.444V177.573H560.617V152.396V152.369ZM569.685 166.078C573.873 166.078 576.593 163.838 576.593 160.53V160.45C576.593 156.85 573.899 154.956 569.819 154.956H563.444V166.051H569.685V166.078Z" fill="white"></path> <path d="M591.849 152.369H601.263C606.944 152.369 610.705 155.383 610.705 160.37V160.45C610.705 165.891 606.171 168.692 600.81 168.692H594.702V177.573H591.849V152.396V152.369ZM600.917 166.078C605.104 166.078 607.824 163.838 607.824 160.53V160.45C607.824 156.85 605.131 154.956 601.05 154.956H594.676V166.051H600.89L600.917 166.078Z" fill="white"></path> <path d="M623.107 152.369H625.96V174.933H640.123V177.573H623.107V152.396V152.369Z" fill="white"></path> <path d="M652.818 152.369H655.672V177.546H652.818V152.369Z" fill="white"></path> <path d="M681.009 152.21H683.676L695.144 177.574H692.077L689.143 170.906H675.435L672.448 177.574H669.54L681.009 152.21ZM688.023 168.319L682.316 155.517L676.555 168.319H688.023Z" fill="white"></path> <path d="M708.053 152.369H710.72L726.589 172.559V152.369H729.363V177.546H727.096L710.826 156.876V177.546H708.053V152.369Z" fill="white"></path> <path d="M742.565 165.038V164.958C742.565 157.837 747.899 151.916 755.313 151.916C759.874 151.916 762.621 153.543 765.128 155.917L763.181 158.024C761.074 155.997 758.7 154.556 755.26 154.556C749.686 154.556 745.498 159.09 745.498 164.878V164.958C745.498 170.799 749.712 175.36 755.26 175.36C758.7 175.36 760.967 174.026 763.394 171.732L765.261 173.573C762.648 176.24 759.767 178 755.18 178C747.899 178 742.565 172.292 742.565 165.038Z" fill="white"></path> <path d="M777.45 152.369H795.666V154.956H780.304V163.544H794.066V166.131H780.304V174.933H795.853V177.52H777.45V152.343V152.369Z" fill="white"></path> <path d="M807.108 173.893L808.868 171.812C811.482 174.186 814.015 175.36 817.509 175.36C821.003 175.36 823.11 173.573 823.11 171.092V171.012C823.11 168.665 821.857 167.332 816.576 166.238C810.788 164.985 808.121 163.118 808.121 158.957V158.877C808.121 154.93 811.615 151.996 816.416 151.996C820.07 151.996 822.71 153.036 825.27 155.09L823.617 157.277C821.27 155.357 818.923 154.53 816.336 154.53C813.055 154.53 810.975 156.317 810.975 158.584V158.664C810.975 161.037 812.255 162.371 817.803 163.544C823.43 164.771 826.017 166.825 826.017 170.666V170.746C826.017 175.066 822.417 177.867 817.403 177.867C813.402 177.867 810.121 176.533 807.108 173.839V173.893Z" fill="white"></path> </g> <defs> <clipPath id="clip0_3799_355"> <rect width="849.461" height="178" fill="white"></rect> </clipPath> </defs> </svg>