<svg viewBox="0 0 231 45" fill="none" xmlns="http://www.w3.org/2000/svg"> <g clip-path="url(#clip0_9198_144241)"> <path d="M230.744 43.1849C229.861 42.6199 228.978 41.5302 228.095 39.9158C227.172 38.3014 226.169 36.0816 225.085 33.3775C223.921 30.3909 222.637 28.0096 221.312 26.2742C220.189 24.8212 218.904 23.6104 217.419 22.7629L217.7 22.7225C224.082 21.2292 227.333 17.5565 227.333 11.7447C227.333 7.78942 225.808 4.8028 222.838 2.90589C219.867 1.00898 215.653 0.0403442 210.235 0.0403442H194.782V44.0728H201.244V23.5297H210.235C212.081 24.1351 213.686 25.3863 215.011 27.2025C216.376 29.0994 217.7 31.8438 219.025 35.3148C219.827 37.4538 220.59 39.2297 221.272 40.6019C221.955 41.9741 222.717 43.1446 223.52 44.0325L223.56 44.0728H230.865V43.2656L230.744 43.1849ZM201.244 2.90589H210.395C217.62 2.90589 221.312 5.85215 221.312 11.6639C221.312 17.5161 217.66 20.5431 210.395 20.5431H201.244V2.90589Z" fill="white"></path> <path d="M98.2131 2.9059H110.736V44.0325H117.157V2.9059H129.64V2.38419e-06H98.2131V2.9059Z" fill="white"></path> <path d="M144.933 0H138.511V44.0325H144.933V0Z" fill="white"></path> <path d="M158.137 44.0325H186.112V41.1266H164.518V23.4894H177.282V20.5431H164.518V2.9059H186.112V0H158.137V44.0325Z" fill="white"></path> <path d="M61.6495 0L43.7486 36.6467L27.4533 0H20.5498L30.3431 22.0364L23.1988 36.6467L6.90346 0H0L19.5865 44.0325H22.7573L31.8281 25.4266L40.0962 44.0325H43.3072L64.8202 0H61.6495Z" fill="white"></path> <path d="M78.4252 0L56.9121 44.0325H60.0829L66.7054 30.4716H88.2586L94.2791 44.0325H101.183L81.596 0H78.4252ZM68.1102 27.5657L77.9837 7.38583L86.9341 27.5657H68.1102Z" fill="white"></path> </g> <defs> <clipPath id="clip0_9198_144241"> <rect width="230.865" height="44.0728" fill="white"></rect> </clipPath> </defs> </svg>